<svg id="Layer_1" data-name="Layer 1" xmlns="http://www.w3.org/2000/svg" viewBox="0 0 590.42 590.19"><defs><style>.cls-1{fill:#00bf86;}</style></defs><title>acco</title><path class="cls-1" d="M305.22,600.27C147.18,601.89,8,472.29,9.6,301.8,11.16,137.74,144,9.19,308.1,10.1,474.72,11,604.82,152.88,599.86,315.73,595.16,470.31,465.65,602.38,305.22,600.27ZM480.6,502.75c58.76-41,110.48-145.06,84.36-257.13-26.76-114.8-134.77-210-269.19-205.5C184.6,43.87,70.43,126.2,43.79,255c-17.64,85.3,26.16,217.56,80,243.11,13-25.49,22.79-53.28,39.84-75.49s41.28-38.64,63-58.21c-24.82-23.29-47.3-50.95-50-90.11C174,235.58,184.37,201.66,210.79,173c40.75-44.24,117.45-52.76,166.28-18.35,26.84,18.91,45.35,43.75,52.83,76.17,13,56.47-7,101.58-50.78,138.9C435.93,397.94,468.76,441.68,480.6,502.75ZM306.3,571.82c48.71,0,87.43-10.06,128.14-32.34,7.94-4.34,11.1-9.31,11.13-18.53.23-76.08-78-142.75-154.25-131.07C219.88,400.82,177.33,442,164,512.59c-2.33,12.37.24,20.47,12.69,26.94C217.47,560.72,260,573.65,306.3,571.82Zm-.44-218.07c47.35,4.52,93.05-40,93.32-90.64.27-50.92-42-93.62-92.72-93.66-50,0-92.66,42.37-92.8,92.24C213.51,318.07,266.12,358.74,305.86,353.75Z" transform="translate(-9.58 -10.1)"/></svg>