<?xml version="1.0" encoding="utf-8"?>
<!-- Generator: Adobe Illustrator 26.5.0, SVG Export Plug-In . SVG Version: 6.00 Build 0)  -->
<svg version="1.1" xmlns="http://www.w3.org/2000/svg" xmlns:xlink="http://www.w3.org/1999/xlink" x="0px" y="0px"
	 viewBox="0 0 500 500" style="enable-background:new 0 0 500 500;" xml:space="preserve">
<style type="text/css">
	.st0{fill:#514A56;}
	.st1{fill:#FFD5A1;}
	.st2{fill:#E8E8EA;}
	.st3{clip-path:url(#SVGID_00000147187092873705576120000014216169599698980758_);fill:#0E0E0F;}
	.st4{clip-path:url(#SVGID_00000147187092873705576120000014216169599698980758_);}
	.st5{fill:#FB8500;}
	.st6{fill:#BDB5C6;}
	.st7{opacity:0.5;fill:#FB8500;}
	.st8{fill:#0E0E0F;}
	.st9{fill:#FFFFFF;}
	.st10{fill:#BDCAFF;}
	.st11{opacity:0.4;fill:#7186BB;}
	.st12{opacity:0.4;fill:#BDCAFF;}
	.st13{opacity:0.5;}
	.st14{opacity:0.5;fill:none;stroke:#FB8500;stroke-linecap:round;stroke-miterlimit:10;}
	.st15{opacity:0.5;fill:none;stroke:#FB8500;stroke-width:2;stroke-linecap:round;stroke-miterlimit:10;}
	.st16{fill:#FF3948;}
	.st17{opacity:0.6;fill:#FFFFFF;}
	.st18{font-family:'Poppins-Medium';}
	.st19{font-size:13.4494px;}
	.st20{font-family:'Poppins-SemiBold';}
	.st21{font-size:18.6078px;}
	.st22{fill:#FFEE76;}
	.st23{fill:none;stroke:#867E7E;stroke-linecap:round;stroke-miterlimit:10;}
	.st24{fill:#867E7E;}
</style>
<g id="BACKGROUND">
	<g>
		<g>
			<path class="st0" d="M75.15,121.57c-1.46,1.75-2.74,4.92-3.29,7.75l-0.04-0.01l-0.04,0c-0.12-2.87-0.68-6.28-1.4-8.53
				c-0.47-1.4-1.03-2.14-1.56-2.03c-0.53,0.11-0.99,1.05-1.28,2.67c-0.58,3.35,0.14,8.44,1.51,11.15l0.63,1.24
				c-0.07,2.5-0.01,4.99,0.1,7.49l-0.96-2.11c-0.82-1.89-2.16-4.03-3.59-6.03c-1.46-1.99-2.99-3.86-4.43-5.02
				c-1.36-1.12-2.41-1.41-2.96-0.71c-0.57,0.69-0.49,2.26,0.15,4.36c0.36,1.07,0.86,2.2,1.45,3.3c0.6,1.1,1.33,2.18,2.08,3.17
				c1.54,1.98,3.29,3.62,4.84,4.51c1.21,0.69,2.42,1.36,3.63,2.02c0.15,1.75,0.29,3.5,0.51,5.25c-1.62-1.22-3.17-2.5-4.75-3.82
				c-1.96-1.67-4.68-3.24-7.43-4.45c-2.76-1.21-5.62-2.04-7.91-2.05c-2.23-0.02-3.6,0.74-3.86,2.16c-0.28,1.43,0.66,3.28,2.56,5.15
				c3.99,3.86,11.08,6.21,15.64,5.74l6.01-0.59c0.48,3.76,1.13,7.48,1.86,11.18c-1.81-1.17-3.6-2.38-5.39-3.64
				c-2.2-1.55-5.17-2.9-8.16-3.88c-2.99-0.96-6.05-1.51-8.45-1.3c-2.32,0.2-3.68,1.1-3.82,2.55c-0.15,1.45,0.98,3.22,3.13,4.93
				c4.49,3.51,12.04,5.36,16.78,4.53l6.33-1.09c0.41,1.96,0.85,3.92,1.31,5.87l1.46,5.82c-1.97-1.14-3.96-2.31-5.94-3.51
				c-2.43-1.45-5.57-2.64-8.77-3.39c-3.19-0.76-6.41-1.07-8.89-0.66c-2.4,0.39-3.76,1.4-3.81,2.86c-0.06,1.46,1.22,3.15,3.57,4.7
				c4.9,3.2,12.82,4.72,17.75,3.59l6.65-1.5l1.72,6.13l1.87,6.08c-2.15-1.1-4.31-2.23-6.49-3.4c-5.16-2.76-13.45-4.35-18.6-3.25
				c-2.48,0.54-3.84,1.65-3.81,3.15c0.03,1.49,1.41,3.19,3.95,4.68c5.27,3.1,13.63,4.26,18.7,2.82l6.93-1.94
				c1.39,4.26,2.91,8.47,4.5,12.66c-2.37-1.03-4.68-2.12-7.05-3.22c-2.79-1.3-6.33-2.23-9.85-2.69c-3.53-0.45-7.05-0.41-9.69,0.3
				c-2.55,0.69-3.91,1.92-3.8,3.48c0.12,1.55,1.62,3.25,4.38,4.66c2.82,1.46,6.43,2.41,9.97,2.74c3.57,0.32,7.06,0.05,9.65-0.82
				l7.19-2.43c0.86,2.2,1.73,4.39,2.68,6.55c0.92,2.17,1.84,4.34,2.85,6.48l-3.84-1.44l-3.79-1.53c-5.91-2.36-15.02-3.14-20.43-1.38
				c-2.61,0.86-3.95,2.22-3.75,3.83c0.1,0.81,0.57,1.63,1.38,2.42c0.83,0.78,2,1.52,3.45,2.19c5.99,2.78,15.25,3.01,20.49,0.88
				l7.4-2.97c2.08,4.5,4.3,8.93,6.63,13.31c-2.71-0.84-5.47-1.72-8.21-2.65c-3.1-1.08-7.05-1.64-10.92-1.7
				c-3.86-0.06-7.6,0.38-10.35,1.46c-2.66,1.04-3.96,2.53-3.67,4.21c0.31,1.66,2.23,3.28,5.32,4.5c3.17,1.27,7.24,1.81,11.08,1.75
				c3.86-0.07,7.55-0.79,10.22-2.04l7.56-3.57c1.28,2.26,2.5,4.55,3.82,6.79c1.34,2.22,2.61,4.5,4.01,6.68
				c-2.95-0.67-5.82-1.46-8.76-2.25c-3.34-0.89-7.42-1.25-11.42-1.08c-4,0.17-7.88,0.88-10.66,2.16c-2.69,1.24-3.94,2.86-3.5,4.57
				c0.45,1.7,2.46,3.3,5.78,4.35c3.43,1.08,7.59,1.45,11.58,1.13c4.01-0.33,7.81-1.32,10.49-2.79l7.66-4.22
				c2.88,4.61,5.95,9.1,9.1,13.53c-3.07-0.54-6.21-1.1-9.32-1.75c-3.46-0.73-7.75-0.81-11.89-0.37c-4.1,0.43-8.07,1.39-10.85,2.9
				c-2.7,1.46-3.89,3.21-3.34,4.97c0.53,1.76,2.83,3.23,6.3,4.13c3.56,0.94,7.99,1,12.08,0.41c4.11-0.59,7.95-1.85,10.63-3.56
				l7.7-4.92l3.66,4.91l3.1-2.37l-3.6-4.83l7.05-5.8c2.44-2,4.92-5.19,7.01-8.65c2.1-3.47,3.75-7.15,4.61-10.37
				c0.82-3.11,0.63-5.24-0.48-6.15c-1.12-0.9-3.12-0.44-5.63,1.33c-2.58,1.83-5.29,4.79-7.53,8.18c-2.21,3.37-3.92,7.16-4.63,10.55
				c-0.62,3.02-1.16,6.05-1.69,9.14c-3.11-4.36-6.13-8.79-8.97-13.33l7.13-5.06c2.49-1.76,5.09-4.66,7.31-7.84
				c2.23-3.19,4.15-6.69,5.13-9.71c0.95-2.93,1-5.05-0.06-5.99c-1.04-0.94-3.01-0.62-5.54,0.92c-2.61,1.59-5.39,4.26-7.75,7.38
				c-2.36,3.11-4.3,6.67-5.16,9.87c-0.77,2.83-1.57,5.73-2.23,8.6c-1.39-2.15-2.63-4.39-3.95-6.59c-1.3-2.21-2.51-4.47-3.77-6.7
				l7.12-4.36c2.51-1.53,5.21-4.16,7.57-7.09c2.38-2.94,4.35-6.14,5.54-9.03c1.14-2.78,1.24-4.8,0.29-5.78
				c-0.92-0.99-2.83-0.81-5.36,0.51c-2.6,1.36-5.49,3.78-7.95,6.63c-2.45,2.84-4.51,6.13-5.59,9.17c-0.92,2.65-1.79,5.31-2.65,8.03
				c-2.29-4.32-4.48-8.69-6.53-13.12l7.06-3.71c5.03-2.67,10.97-9.33,13.58-14.69c0.62-1.3,0.98-2.44,1.08-3.37
				c0.11-0.94-0.03-1.69-0.45-2.19c-0.84-1.01-2.69-0.95-5.2,0.17c-5.18,2.29-11.59,8.66-13.95,14.38l-1.55,3.72L95,219.6
				c-0.99-2.1-1.9-4.25-2.81-6.39c-0.94-2.13-1.79-4.29-2.64-6.46l6.92-3.1c2.49-1.11,5.26-3.2,7.75-5.62
				c2.52-2.43,4.77-5.18,6.15-7.69c1.31-2.42,1.71-4.31,0.93-5.32c-0.76-1.02-2.54-1.07-5.02-0.14c-2.55,0.96-5.45,2.85-8.04,5.19
				c-2.6,2.34-4.89,5.14-6.19,7.8c-1.11,2.26-2.25,4.57-3.3,6.89c-1.57-4.13-3.07-8.28-4.44-12.48l6.73-2.53
				c4.87-1.85,11.17-7.33,14.08-11.97c1.41-2.26,1.88-4.05,1.2-5.07c-0.67-1.02-2.38-1.18-4.81-0.42
				c-4.99,1.53-11.54,6.67-14.37,11.66c-1.18,2.07-2.34,4.18-3.5,6.31l-1.84-5.99l-1.69-6.04l6.5-2.02
				c4.76-1.5,11.11-6.4,14.13-10.69c1.48-2.08,1.99-3.75,1.41-4.74c-0.58-0.99-2.2-1.23-4.56-0.65c-2.44,0.6-5.3,2-7.92,3.85
				c-2.61,1.85-5.01,4.16-6.47,6.45c-1.22,1.89-2.43,3.8-3.63,5.74l-1.43-5.74c-0.45-1.92-0.88-3.84-1.29-5.77l6.24-1.53
				c4.66-1.16,10.95-5.44,14.17-9.17c1.59-1.81,2.18-3.28,1.72-4.21c-0.47-0.93-2-1.26-4.3-0.89c-2.37,0.38-5.21,1.46-7.85,3
				c-2.66,1.53-5.06,3.54-6.65,5.61c-1.27,1.67-2.53,3.38-3.75,5.13c-0.72-3.63-1.35-7.27-1.82-10.93l5.96-0.95
				c4.54-0.75,10.85-4.25,14.26-7.36c1.68-1.51,2.37-2.78,2.04-3.65c-0.35-0.88-1.77-1.31-3.99-1.19c-2.29,0.12-5.09,0.84-7.75,2.02
				c-2.67,1.17-5.15,2.83-6.84,4.63c-1.32,1.43-2.65,2.91-3.92,4.43c-0.21-1.69-0.35-3.39-0.49-5.09c1.11-0.8,2.22-1.58,3.34-2.35
				c1.44-0.98,3.05-2.57,4.51-4.26c0.74-0.85,1.42-1.73,2.04-2.59c0.63-0.86,1.17-1.7,1.58-2.49c0.85-1.51,1.02-2.63,0.6-3.2
				c-0.44-0.57-1.52-0.55-3.04,0.14c-1.53,0.72-3.32,2.07-4.85,3.75c-1.55,1.68-2.85,3.69-3.58,5.52l-0.79,2.08
				c-0.1-2.41-0.16-4.82-0.09-7.22l0.68-1.15c1.51-2.52,2.99-6.85,3.41-9.8c0.21-1.43,0.07-2.37-0.41-2.64
				C76.78,120.04,76.04,120.47,75.15,121.57z"/>
		</g>
		<g>
			<path class="st0" d="M353.82,55.71c1.14,1.37,2.14,3.84,2.57,6.06l0.03-0.01l0.03,0c0.09-2.25,0.53-4.91,1.09-6.67
				c0.37-1.1,0.8-1.67,1.22-1.59c0.42,0.08,0.77,0.82,1,2.08c0.46,2.61-0.11,6.59-1.18,8.71l-0.49,0.97
				c0.06,1.95,0.01,3.9-0.07,5.85l0.75-1.65c0.64-1.47,1.68-3.15,2.8-4.71c1.14-1.56,2.34-3.01,3.46-3.92
				c1.06-0.88,1.88-1.1,2.32-0.56c0.45,0.54,0.38,1.77-0.12,3.4c-0.28,0.84-0.67,1.72-1.14,2.58c-0.47,0.86-1.04,1.7-1.63,2.48
				c-1.2,1.55-2.57,2.83-3.78,3.52c-0.95,0.54-1.89,1.07-2.83,1.57c-0.11,1.37-0.23,2.74-0.4,4.1c1.26-0.96,2.48-1.95,3.71-2.99
				c1.53-1.31,3.65-2.53,5.81-3.48c2.16-0.94,4.39-1.59,6.18-1.61c1.74-0.02,2.81,0.58,3.02,1.69c0.22,1.11-0.52,2.56-2,4.02
				c-3.12,3.02-8.66,4.85-12.22,4.49l-4.7-0.46c-0.38,2.93-0.88,5.85-1.45,8.74c1.42-0.91,2.81-1.86,4.21-2.84
				c1.72-1.21,4.04-2.27,6.37-3.03c2.34-0.75,4.73-1.18,6.6-1.02c1.81,0.16,2.88,0.86,2.99,1.99c0.12,1.14-0.77,2.52-2.45,3.85
				c-3.5,2.75-9.41,4.19-13.11,3.54L355.47,90c-0.32,1.53-0.66,3.06-1.02,4.58l-1.14,4.55c1.54-0.89,3.09-1.8,4.64-2.74
				c1.9-1.13,4.35-2.06,6.85-2.65c2.49-0.59,5.01-0.83,6.94-0.52c1.88,0.3,2.94,1.09,2.98,2.23c0.04,1.14-0.95,2.46-2.79,3.67
				c-3.83,2.5-10.01,3.68-13.87,2.8l-5.19-1.17l-1.34,4.79l-1.46,4.75c1.68-0.86,3.37-1.75,5.07-2.66
				c4.03-2.15,10.51-3.39,14.53-2.54c1.94,0.42,3,1.29,2.98,2.46c-0.03,1.16-1.1,2.49-3.09,3.65c-4.12,2.42-10.65,3.33-14.61,2.2
				l-5.42-1.51c-1.09,3.33-2.28,6.62-3.52,9.89c1.85-0.8,3.66-1.65,5.51-2.52c2.18-1.01,4.94-1.75,7.7-2.1
				c2.76-0.35,5.51-0.32,7.57,0.24c2,0.54,3.05,1.5,2.97,2.72c-0.09,1.21-1.27,2.54-3.42,3.64c-2.21,1.14-5.02,1.88-7.79,2.14
				c-2.79,0.25-5.52,0.04-7.54-0.64l-5.61-1.9c-0.67,1.72-1.35,3.43-2.09,5.12c-0.72,1.7-1.44,3.39-2.22,5.06l3-1.13l2.96-1.2
				c4.62-1.84,11.74-2.45,15.97-1.08c2.04,0.67,3.08,1.73,2.93,3c-0.08,0.63-0.44,1.27-1.08,1.89c-0.65,0.61-1.56,1.19-2.7,1.71
				c-4.68,2.17-11.91,2.35-16.01,0.69l-5.78-2.32c-1.63,3.51-3.36,6.98-5.18,10.4c2.12-0.66,4.28-1.34,6.41-2.07
				c2.43-0.84,5.51-1.28,8.53-1.33c3.01-0.05,5.94,0.3,8.09,1.14c2.08,0.81,3.1,1.98,2.87,3.29c-0.25,1.3-1.74,2.56-4.15,3.51
				c-2.47,0.99-5.66,1.42-8.66,1.36c-3.01-0.06-5.9-0.62-7.99-1.6l-5.91-2.79c-1,1.77-1.95,3.56-2.99,5.31
				c-1.05,1.74-2.04,3.51-3.13,5.22c2.31-0.53,4.55-1.14,6.85-1.76c2.61-0.7,5.8-0.98,8.92-0.85c3.12,0.14,6.16,0.68,8.33,1.69
				c2.1,0.97,3.08,2.23,2.74,3.57c-0.35,1.33-1.92,2.58-4.52,3.4c-2.68,0.85-5.93,1.14-9.05,0.88c-3.14-0.26-6.1-1.03-8.19-2.18
				l-5.99-3.3c-2.25,3.6-4.65,7.11-7.11,10.57c2.4-0.42,4.85-0.86,7.28-1.37c2.7-0.57,6.06-0.63,9.29-0.29
				c3.21,0.33,6.3,1.09,8.48,2.26c2.11,1.14,3.04,2.51,2.61,3.88c-0.42,1.37-2.21,2.52-4.92,3.23c-2.78,0.74-6.24,0.78-9.44,0.32
				c-3.21-0.46-6.21-1.45-8.31-2.78l-6.02-3.85l-2.86,3.83l-2.42-1.85l2.82-3.78l-5.51-4.53c-1.9-1.56-3.85-4.06-5.48-6.76
				c-1.64-2.71-2.93-5.59-3.6-8.1c-0.64-2.43-0.49-4.09,0.37-4.81c0.87-0.71,2.44-0.34,4.4,1.04c2.02,1.43,4.13,3.74,5.88,6.39
				c1.72,2.63,3.06,5.59,3.62,8.24c0.48,2.36,0.91,4.72,1.32,7.14c2.43-3.41,4.79-6.86,7.01-10.42l-5.57-3.96
				c-1.95-1.38-3.98-3.64-5.71-6.13c-1.75-2.49-3.24-5.23-4.01-7.59c-0.74-2.29-0.78-3.95,0.04-4.68c0.81-0.74,2.35-0.48,4.33,0.72
				c2.04,1.24,4.21,3.33,6.06,5.76c1.84,2.43,3.36,5.21,4.03,7.71c0.6,2.21,1.22,4.47,1.74,6.72c1.08-1.68,2.06-3.43,3.09-5.15
				c1.02-1.72,1.96-3.49,2.94-5.23l-5.57-3.41c-1.96-1.2-4.07-3.25-5.92-5.54c-1.86-2.3-3.4-4.8-4.33-7.05
				c-0.89-2.17-0.97-3.75-0.23-4.52c0.72-0.77,2.21-0.63,4.19,0.4c2.03,1.07,4.29,2.96,6.21,5.18c1.91,2.22,3.52,4.79,4.37,7.17
				c0.72,2.07,1.4,4.15,2.07,6.27c1.79-3.37,3.5-6.79,5.1-10.25l-5.51-2.9c-3.93-2.08-8.57-7.29-10.61-11.48
				c-0.48-1.02-0.77-1.91-0.85-2.64c-0.09-0.74,0.02-1.32,0.35-1.71c0.66-0.79,2.1-0.74,4.06,0.13c4.05,1.79,9.05,6.76,10.9,11.23
				l1.21,2.9l1.14,2.92c0.77-1.64,1.48-3.32,2.19-4.99c0.73-1.66,1.4-3.35,2.06-5.04l-5.41-2.42c-1.95-0.87-4.11-2.5-6.06-4.39
				c-1.97-1.9-3.73-4.05-4.8-6.01c-1.02-1.89-1.33-3.37-0.73-4.16c0.59-0.79,1.99-0.84,3.92-0.11c1.99,0.75,4.26,2.23,6.28,4.06
				c2.03,1.83,3.82,4.02,4.83,6.09c0.87,1.77,1.76,3.57,2.58,5.38c1.22-3.22,2.4-6.47,3.47-9.75l-5.26-1.98
				c-3.81-1.45-8.72-5.73-11-9.35c-1.1-1.77-1.47-3.16-0.93-3.96c0.53-0.8,1.86-0.92,3.76-0.33c3.9,1.19,9.02,5.21,11.22,9.11
				c0.92,1.62,1.83,3.26,2.74,4.93l1.44-4.68l1.32-4.72l-5.08-1.58c-3.72-1.17-8.68-5-11.04-8.35c-1.16-1.63-1.55-2.93-1.1-3.71
				c0.45-0.78,1.72-0.96,3.57-0.51c1.91,0.47,4.14,1.56,6.19,3.01c2.04,1.44,3.91,3.25,5.06,5.04c0.95,1.47,1.9,2.97,2.84,4.49
				l1.12-4.48c0.35-1.5,0.69-3,1.01-4.51l-4.87-1.19c-3.64-0.91-8.55-4.25-11.07-7.17c-1.24-1.42-1.7-2.57-1.35-3.29
				c0.37-0.73,1.56-0.98,3.36-0.7c1.85,0.3,4.07,1.14,6.13,2.34c2.07,1.2,3.96,2.77,5.2,4.38c0.99,1.31,1.98,2.64,2.93,4.01
				c0.56-2.84,1.05-5.68,1.42-8.54l-4.66-0.74c-3.54-0.58-8.48-3.32-11.14-5.75c-1.32-1.18-1.86-2.17-1.59-2.85
				c0.28-0.68,1.39-1.02,3.12-0.93c1.79,0.09,3.98,0.65,6.06,1.57c2.09,0.92,4.02,2.21,5.35,3.62c1.03,1.12,2.07,2.27,3.06,3.46
				c0.17-1.32,0.27-2.65,0.38-3.98c-0.87-0.63-1.74-1.24-2.61-1.83c-1.13-0.77-2.38-2.01-3.52-3.33c-0.58-0.66-1.11-1.35-1.6-2.02
				c-0.49-0.67-0.92-1.33-1.23-1.95c-0.66-1.18-0.8-2.05-0.46-2.5c0.35-0.44,1.19-0.43,2.37,0.11c1.19,0.56,2.6,1.61,3.79,2.93
				c1.21,1.31,2.23,2.88,2.8,4.32l0.62,1.63c0.08-1.88,0.13-3.76,0.07-5.64l-0.53-0.9c-1.18-1.97-2.34-5.35-2.66-7.66
				c-0.17-1.12-0.05-1.85,0.32-2.06C352.55,54.51,353.13,54.85,353.82,55.71z"/>
		</g>
		<g>
			<g>
				<path class="st0" d="M446.21,214.83c-1.28,1.21-3.04,3.34-4.4,5.27l-0.01-0.01l-0.01,0c1.14-2.07,2.25-4.56,2.75-6.19
					c0.31-1.02,0.34-1.56,0.07-1.52c-0.26,0.04-0.78,0.64-1.45,1.71c-1.41,2.19-3,5.72-3.79,7.77l-0.33,0.95
					c-1.15,1.66-2.24,3.35-3.44,4.97c0.25-0.52,0.49-1.05,0.71-1.59c1.2-2.87,2.09-6.7,1.87-8.59c-0.11-0.92-0.41-1.24-0.85-0.9
					c-0.43,0.34-0.97,1.27-1.55,2.63c-1.18,2.79-1.98,6.67-1.96,8.53l0.08,2.2l-2.56,3.43l0.62-3.7c0.51-3.1-0.3-6.45-1.8-7.54
					c-0.72-0.53-1.43-0.42-2.09,0.24c-0.65,0.66-1.13,1.83-1.35,3.3c-0.23,1.52-0.15,3.13,0.15,4.51c0.31,1.38,0.8,2.5,1.52,3.07
					l1.86,1.49l-2.92,3.6l-1.46,1.8c-0.49,0.6-1.02,1.17-1.52,1.75l0.49-1.93l0.42-1.96c0.69-3.24,0.01-6.8-1.47-7.99
					c-0.71-0.58-1.5-0.53-2.21,0.13c-0.71,0.66-1.26,1.87-1.57,3.4c-0.16,0.79-0.24,1.61-0.24,2.42c-0.03,0.79,0.01,1.57,0.12,2.29
					c0.22,1.44,0.7,2.66,1.4,3.28l1.89,1.68l-3.26,3.7l-3.42,3.58l1.22-4.08c0.95-3.32,0.37-7.12-1.08-8.43
					c-0.71-0.64-1.53-0.63-2.3,0.03c-0.78,0.66-1.39,1.91-1.81,3.48c-0.9,3.21-0.55,7,0.85,8.4l1.9,1.88
					c-1.18,1.29-2.47,2.48-3.73,3.71l-3.78,3.66l1.51-4.29c0.59-1.7,0.83-3.53,0.73-5.11c-0.13-1.61-0.59-2.96-1.31-3.69
					c-0.7-0.71-1.55-0.73-2.38-0.07c-0.84,0.65-1.62,1.86-2.15,3.48c-0.55,1.66-0.78,3.49-0.71,5.1c0.06,1.59,0.4,2.95,1.09,3.71
					l1.87,2.09l-4.15,3.72c-1.37,1.25-2.86,2.39-4.28,3.6l1.94-4.38c1.41-3.52,1.35-7.62-0.07-9.2c-0.69-0.77-1.57-0.85-2.5-0.23
					c-0.92,0.62-1.77,1.87-2.41,3.53c-1.36,3.38-1.53,7.46-0.2,9.14l1.84,2.31c-0.76,0.62-1.5,1.27-2.28,1.86l-2.35,1.79
					c-1.57,1.19-3.11,2.41-4.72,3.57c0.81-1.49,1.55-3.04,2.31-4.54c0.87-1.76,1.39-3.68,1.48-5.4c0.08-1.74-0.23-3.24-0.92-4.11
					c-0.66-0.84-1.57-0.96-2.55-0.36c-0.97,0.62-1.99,1.81-2.77,3.48c-0.82,1.72-1.32,3.65-1.46,5.38c-0.17,1.7,0.02,3.2,0.65,4.1
					l1.76,2.52l-5.1,3.59l-5.25,3.41l2.78-4.58c1.06-1.73,1.65-3.78,1.88-5.55c0.21-1.78,0.01-3.34-0.64-4.27
					c-0.63-0.9-1.57-1.09-2.64-0.54c-1.08,0.55-2.15,1.79-3.07,3.48c-1.97,3.4-2.7,7.79-1.53,9.73l1.67,2.74
					c-1.86,1.16-3.76,2.26-5.64,3.39c-0.95,0.56-1.88,1.14-2.84,1.67l-2.9,1.58c1.11-1.54,2.24-3.02,3.27-4.61
					c2.37-3.56,3.27-7.99,2.01-10.03c-0.59-0.98-1.53-1.2-2.69-0.72c-1.16,0.49-2.38,1.68-3.47,3.36c-0.56,0.87-1.04,1.81-1.44,2.74
					c-0.41,0.92-0.73,1.85-0.95,2.75c-0.43,1.79-0.45,3.42,0.09,4.45l1.53,2.96l-3.04,1.65l-3.11,1.55l-3.11,1.55l-1.56,0.77
					l-1.59,0.72c1.32-1.48,2.54-3.08,3.78-4.61c1.37-1.74,2.41-3.71,2.9-5.58c0.49-1.87,0.5-3.56-0.05-4.63
					c-0.54-1.04-1.51-1.35-2.72-0.89c-1.2,0.49-2.58,1.59-3.84,3.24c-1.31,1.69-2.29,3.71-2.88,5.52c-0.59,1.8-0.75,3.47-0.27,4.57
					l1.36,3.17l-4.78,2.15l0.73,1.29l4.81-2.16l2.22,2.78c0.77,0.96,2.48,1.8,4.65,2.35c2.16,0.54,4.73,0.73,7.26,0.53
					c2.44-0.2,4.46-0.73,5.59-1.58c1.14-0.83,1.32-1.77,0.51-2.66c-0.84-0.92-2.61-1.63-4.76-2.07c-2.15-0.44-4.75-0.69-7.19-0.51
					c-2.19,0.14-4.34,0.32-6.55,0.36l1.6-0.72l1.57-0.78l3.13-1.56l3.13-1.56l3.06-1.66l2.28,2.55c0.8,0.89,2.48,1.6,4.58,2
					c1.05,0.2,2.2,0.33,3.4,0.37c1.18,0.02,2.39-0.06,3.59-0.23c2.31-0.34,4.18-1,5.24-1.83c1.07-0.82,1.16-1.78,0.33-2.59
					c-1.69-1.64-6.97-2.49-11.59-1.86c-2.03,0.3-4.14,0.48-6.19,0.69l2.92-1.59c0.97-0.54,1.9-1.12,2.86-1.68
					c1.89-1.14,3.81-2.24,5.68-3.41l2.31,2.32c1.62,1.64,6.6,2.34,11.18,1.48c2.18-0.46,3.9-1.21,4.86-2.09
					c0.95-0.88,1.01-1.77,0.17-2.52c-0.87-0.78-2.57-1.28-4.59-1.49c-2.03-0.22-4.33-0.08-6.57,0.3l-5.8,0.99l5.28-3.43l5.13-3.61
					l2.32,2.12c0.83,0.75,2.45,1.26,4.41,1.44c1.93,0.15,4.19-0.03,6.33-0.57c2.06-0.54,3.73-1.28,4.56-2.21
					c0.85-0.91,0.85-1.79,0-2.47c-0.87-0.71-2.51-1.11-4.43-1.2c-1.94-0.11-4.21,0.05-6.29,0.56c-1.81,0.43-3.57,0.88-5.38,1.26
					c1.61-1.16,3.16-2.4,4.74-3.59l2.36-1.81c0.79-0.6,1.53-1.25,2.3-1.87l2.3,1.92c1.64,1.37,6.27,1.61,10.29,0.37
					c1.92-0.62,3.41-1.47,4.18-2.37c0.77-0.9,0.74-1.74-0.11-2.37c-1.74-1.29-6.36-1.32-10.23-0.11l-5.04,1.4
					c1.43-1.21,2.92-2.36,4.3-3.62l4.18-3.74l2.27,1.74c0.82,0.63,2.35,0.97,4.12,0.96c1.76-0.02,3.79-0.38,5.66-1.07
					c1.81-0.67,3.22-1.52,3.9-2.43c0.67-0.92,0.58-1.74-0.25-2.31c-0.86-0.59-2.37-0.83-4.13-0.75c-1.78,0.05-3.8,0.4-5.64,1.05
					l-4.59,1.6l3.8-3.68c1.26-1.23,2.56-2.43,3.75-3.73l2.21,1.56c1.62,1.15,5.78,0.97,9.31-0.48c1.69-0.71,2.92-1.64,3.54-2.53
					c0.61-0.9,0.49-1.68-0.33-2.2c-1.71-1.08-5.81-0.69-9.23,0.69l-4.26,1.67l3.44-3.6l3.28-3.72l2.14,1.4
					c0.8,0.52,2.19,0.71,3.79,0.58c0.8-0.07,1.66-0.21,2.52-0.44c0.84-0.24,1.69-0.56,2.49-0.95c1.55-0.76,2.72-1.67,3.26-2.55
					c0.54-0.88,0.4-1.63-0.4-2.1c-1.65-0.97-5.6-0.5-8.75,0.99l-1.91,0.9l-1.96,0.85c0.51-0.59,1.04-1.16,1.53-1.76l1.47-1.81
					l2.93-3.62l2.05,1.25c0.77,0.47,2.13,0.62,3.61,0.42c1.49-0.2,3.16-0.72,4.65-1.52c1.45-0.77,2.52-1.68,3-2.54
					c0.49-0.86,0.28-1.6-0.49-2.02c-1.58-0.86-5.31-0.29-8.25,1.23l-3.49,1.8l2.57-3.45l2.24-0.69c1.97-0.57,5.33-2.96,7.64-5.24
					c1.12-1.1,1.8-2.01,1.9-2.57c0.11-0.55-0.32-0.66-1.22-0.31c-1.87,0.73-5.3,3.08-7.55,5.3c-0.42,0.42-0.85,0.83-1.3,1.22
					c1.21-1.63,2.31-3.34,3.47-5l0.78-0.68c1.76-1.46,4.17-4.6,5.56-6.84c0.67-1.09,0.99-1.82,0.89-2.06
					C447.5,213.78,447.01,214.07,446.21,214.83z"/>
			</g>
		</g>
		<path class="st1" d="M330.55,185.16c4.97-22.41,16.23-43.38,32.14-59.92c4.48-4.65,9.51-9.08,15.65-11.07
			c6.14-2,13.62-1.04,17.9,3.79c4.19,4.74,4.36,11.74,3.82,18.04c-1.9,22.24-9.89,43.93-22.88,62.08
			c-7.35,10.28-22.19,28.3-36.49,27.43C323.65,224.48,328.24,195.57,330.55,185.16z"/>
		<path class="st1" d="M106.19,359.99c-17.21-15.19-30.13-35.18-36.91-57.11c-1.91-6.17-3.35-12.71-2.13-19.05
			c1.22-6.34,5.67-12.43,11.97-13.83c6.17-1.38,12.38,1.86,17.64,5.38c18.55,12.41,33.67,29.9,43.28,50.05
			c5.44,11.41,14.04,33.11,6.37,45.21C137.27,385.05,114.18,367.05,106.19,359.99z"/>
		<path class="st2" d="M356.76,215.12c11.25-13.41,26.24-23.65,42.83-29.24c4.67-1.57,9.63-2.8,14.49-1.99
			c4.86,0.81,9.58,4.08,10.78,8.86c1.17,4.68-1.18,9.47-3.76,13.55c-9.11,14.38-22.15,26.24-37.32,33.96
			c-8.59,4.37-24.97,11.34-34.35,5.73C338.25,239.29,351.53,221.35,356.76,215.12z"/>
		<path class="st2" d="M92.58,344.38c17.46,1.31,34.52,7.51,48.74,17.72c4,2.87,7.89,6.19,10.07,10.6s2.28,10.17-0.91,13.92
			c-3.12,3.68-8.38,4.57-13.2,4.85c-16.99,1-34.24-2.67-49.35-10.49c-8.56-4.43-23.78-13.66-24.69-24.55
			C62.15,343.46,84.47,343.77,92.58,344.38z"/>
	</g>
</g>
<g id="OBJECTS">
	<g>
		<defs>
			<rect id="SVGID_1_" width="500" height="500"/>
		</defs>
		<clipPath id="SVGID_00000037655993708038293290000012187685138735996851_">
			<use xlink:href="#SVGID_1_"  style="overflow:visible;"/>
		</clipPath>
		<path style="clip-path:url(#SVGID_00000037655993708038293290000012187685138735996851_);fill:#0E0E0F;" d="M278.62,65.09H177.85
			c-1.44,0-2.6-1.16-2.6-2.6l0,0c0-1.44,1.16-2.6,2.6-2.6h100.77c1.44,0,2.6,1.16,2.6,2.6l0,0
			C281.22,63.92,280.05,65.09,278.62,65.09z"/>
		<g style="clip-path:url(#SVGID_00000037655993708038293290000012187685138735996851_);">
			<path class="st5" d="M134.1,221.78c0,0-26.21-32.8-34.66-45.69c-8.45-12.89-22.44-32.61-2.96-44.41
				c18.18-11.01,47.34,34.99,47.34,34.99L134.1,221.78z"/>
			<g>
				<path class="st5" d="M116,188.21c7.32-1.33,14.2-4.8,19.51-10.02c0.68-0.65,1.59-1.63,2.22-2.32c-0.28,0.46-0.58,0.91-0.88,1.35
					C132.12,183.82,124.14,188.13,116,188.21L116,188.21z"/>
			</g>
			<path class="st5" d="M278.02,432.69c0,0.88,123.91,153.54,123.91,153.54s41.77-7.87,79.54-36.52
				c37.76-28.65,62.84-65.49,62.84-65.49S391.83,350.44,384.28,332.55C352.96,341.22,277.74,375.94,278.02,432.69z"/>
			<path class="st6" d="M324.86,391.75H136.64c-3.01,0-5.44-2.44-5.44-5.44V69.76c0-3.01,2.44-5.44,5.44-5.44h188.22
				c3.01,0,5.44,2.44,5.44,5.44v316.55C330.3,389.32,327.87,391.75,324.86,391.75z"/>
			<path class="st5" d="M318.28,207.22c0,0.47,30.28,17.52,50.09,33.66c24.32,19.81,26.25,28.23,25.51,75.67
				c-0.6,38.91-12.84,81.16-53.1,80.23c-13.18,31.87-42.78,42.36-79.26,36.07c-60.65-10.46-111.35-75.51-130.32-93.95
				C148.71,250.42,318.28,207.22,318.28,207.22z"/>
			<path class="st7" d="M187.24,394.13c15.84-0.78,31.88,2.95,45.74,10.65c3.29,1.82,6.61,3.92,10.36,4.22
				c4.17,0.34,8.14-1.59,11.95-3.33c22.29-10.14,46.97-14.96,71.43-13.95c8.51-15.19,11.42-33.1,10.51-50.49
				c-0.91-17.39-5.57-34.39-11.62-50.71c0.24,0.16,0.47,0.31,0.71,0.47L187.24,394.13z"/>
			<path class="st5" d="M167.64,197.84c0,0-26.21-32.8-34.66-45.69c-8.45-12.89-15.8-35.54,0-39.44
				c15.8-3.9,44.81,35.93,44.81,35.93L167.64,197.84z"/>
			<path class="st5" d="M108.87,216.24c-14.26,9.23-10.9,30.62,0,44.46c10.9,13.84,28.52,33.55,28.52,33.55l22.23-46.97
				C159.61,247.27,123.13,207.01,108.87,216.24z"/>
			<path class="st5" d="M113.9,273.69c-14.26,9.23-10.9,30.62,0,44.46c10.9,13.84,28.52,33.55,28.52,33.55l22.23-46.97
				C164.65,304.73,128.16,264.47,113.9,273.69z"/>
			<path class="st8" d="M324.86,394.27H136.64c-3.01,0-5.44-2.44-5.44-5.44V72.28c0-3.01,2.44-5.44,5.44-5.44h188.22
				c3.01,0,5.44,2.44,5.44,5.44v316.55C330.3,391.83,327.87,394.27,324.86,394.27z"/>
			<rect x="143.82" y="82.67" class="st9" width="174.47" height="297.77"/>
			<rect x="148.91" y="119.96" class="st10" width="164.28" height="224.19"/>
			<path class="st11" d="M131.2,264.85c0,0,30.2-31.58,26.84-12.1s-26.84,20.84-26.84,20.84V264.85z"/>
			<path class="st11" d="M131.2,321.8c0,0,29.15-31.58,25.91-12.1c-3.24,19.48-25.91,20.84-25.91,20.84V321.8z"/>
			<rect x="153.04" y="124.88" class="st12" width="156.01" height="212.59"/>
			<g>
				<rect x="233.53" y="235.96" class="st10" width="78.53" height="53.93"/>
			</g>
			<path class="st11" d="M279.56,209.5c0,0-1.12,8.87,3.49,21.05c4.61,12.18,20.27,24.62,20.27,24.62l26.98,30.56
				c0,0-9.79-35.03-18.59-45.24C302.9,230.29,279.56,209.5,279.56,209.5z"/>
			<path class="st5" d="M340.61,219.23c0,0-18.72-9.28-30.89-21.94c-11.66-12.13-17.08-16.21-27.19-6.63
				c-10.11,9.58-1.95,32.2,12.08,44.76c14.03,12.56,35.72,40.77,37.72,47.68C358.21,280.59,372.54,251.97,340.61,219.23z"/>
			<path class="st5" d="M112.5,251.04c2.24,0.28,24.75,25.5,36.91,15.66c23.21-18.8-4.68-42.79-27.7-49.99
				C100.93,225.44,112.5,251.04,112.5,251.04z"/>
			<path class="st5" d="M109.29,296.9c0,0,23.39,35.59,37.6,26.99c21.95-13.28,3.63-29.79-3.08-37.05s-18.39-18.84-25.42-14.5
				C105.55,280.26,104.11,285.71,109.29,296.9z"/>
			<g>
				<path class="st5" d="M297.72,189.38c-4.04,0.42-7.64,2.82-9.38,6.16c-2.4,4.31-1.64,12.77,4.45,13c6.19-0.04,9.47-7,15.3-8.28
					c-3.74,1.74-5.86,5.26-9.23,7.83c-2.48,2-6.38,3.23-9.45,1.55c-5.03-2.98-5.23-10.44-2.42-14.88
					C289.27,191.05,293.66,188.95,297.72,189.38L297.72,189.38z"/>
			</g>
			<g>
				<g class="st13">
					<path class="st5" d="M313.89,222.65c1.9-2.58,4.63-4.5,7.7-5.39C319.17,219.38,316.7,221.1,313.89,222.65L313.89,222.65z"/>
				</g>
				<g class="st13">
					<path class="st5" d="M317.12,223.79c3.07-3.04,6.55-5.54,10.43-7.46C324.48,219.38,320.99,221.86,317.12,223.79L317.12,223.79z
						"/>
				</g>
				<g class="st13">
					<path class="st5" d="M317.32,227.51c2.59-3.47,6.12-6.24,10.11-7.92C324.16,222.45,320.87,225.02,317.32,227.51L317.32,227.51z
						"/>
				</g>
			</g>
			<g>
				<g>
					<path class="st5" d="M139.8,315.62c-3.24-2.52-6.5-5.24-8.39-8.98c-3.31-5.75-0.53-14.63,7.01-14.22
						c6.75,0.33,10.48,6.79,12.78,12.35c-2.75-5.08-6.4-11.18-12.82-11.44c-6.79-0.23-9.07,7.74-6.29,12.98
						C133.78,310.01,136.89,312.83,139.8,315.62L139.8,315.62z"/>
				</g>
				<g>
					<path class="st5" d="M138.25,257.33c-3.69-1.82-7.53-3.87-9.82-7.47c-4.17-6.09-0.14-13.67,7.01-14.39
						c6.5-0.76,12.16,3.73,15.74,8.71c-3.92-4.45-9.4-8.59-15.63-7.81c-6.51,0.86-10.07,7.35-6.47,13.09
						C131.13,253.02,134.85,255.19,138.25,257.33L138.25,257.33z"/>
				</g>
			</g>
			<path class="st14" d="M107.06,253.38c5.15,5.33,12.43,8.55,19.84,8.77"/>
			<path class="st14" d="M115.04,265.14c3.83,0.9,7.95,0.52,11.56-1.05"/>
			<path class="st14" d="M113.65,302.6c4.08,7.71,10.4,14.22,17.99,18.54"/>
			<path class="st14" d="M117.4,316.95c2.84,3.15,7.04,5.03,11.28,5.05"/>
			<g class="st13">
				<path class="st5" d="M332.33,283.1c3.05,11.45,7.61,22.5,13.83,32.6c0.77,1.27,1.93,3.07,2.72,4.3
					C340.21,309.5,334.44,296.54,332.33,283.1L332.33,283.1z"/>
			</g>
			<path class="st15" d="M387.87,349.22c-1.87,3.88-4.21,7.53-6.97,10.84c-8.05,9.64-19.63,16.26-32.01,18.3"/>
			<path class="st15" d="M346.27,389.51c-12.55,21.02-33.51,36.86-57.16,43.19"/>
			<rect x="143.82" y="82.67" class="st16" width="174.47" height="28.8"/>
			<rect x="143.82" y="351.7" class="st16" width="174.47" height="28.73"/>
			<g class="st13">
				<path class="st5" d="M345.37,305.79c2.13,7.7,5.63,14.99,10.49,21.34c0.6,0.8,1.51,1.92,2.13,2.7
					C351.05,323.74,346.42,314.96,345.37,305.79L345.37,305.79z"/>
			</g>
			<text transform="matrix(1 0 0 1 206.4996 101.1209)" class="st17 st18 st19">EVENTS</text>
			<g>
				<g>
					<path class="st16" d="M273.81,217.54l-95.87,16.66c-7.46,1.3-14.56-3.7-15.85-11.16v0c-1.3-7.46,3.7-14.56,11.16-15.85
						l95.87-16.66c7.46-1.3,14.56,3.7,15.85,11.16v0C286.26,209.14,281.27,216.24,273.81,217.54z"/>
				</g>
				<text transform="matrix(0.9852 -0.1714 0.1714 0.9852 175.5084 226.656)" class="st9 st20 st21">CANCELED</text>
			</g>
			<g>
				<circle class="st22" cx="227.32" cy="365.29" r="9.89"/>
				<path class="st23" d="M222.31,370.42c0,0,1.9-2.03,5.21-2.03c3.31,0,4.81,1.85,4.81,1.85"/>
				<path class="st24" d="M231.16,364.54c0,0.68-0.24,1.24-0.53,1.24s-0.53-0.55-0.53-1.24s0.24-1.24,0.53-1.24
					S231.16,363.86,231.16,364.54z"/>
				<path class="st24" d="M224.59,364.54c0,0.68-0.24,1.24-0.53,1.24c-0.29,0-0.53-0.55-0.53-1.24s0.24-1.24,0.53-1.24
					C224.35,363.31,224.59,363.86,224.59,364.54z"/>
				<path class="st23" d="M230.56,361.16c0.54,0.47,1.22,0.79,1.93,0.91"/>
				<path class="st23" d="M221.92,361.9c0.66-0.17,1.27-0.56,1.68-1.1"/>
			</g>
			<g>
				<circle class="st22" cx="253.52" cy="365.29" r="9.89"/>
				<path class="st23" d="M250.74,368.98c0.8-0.33,1.8-0.59,2.98-0.59c0.83,0,1.54,0.12,2.15,0.29"/>
				<path class="st24" d="M257.36,364.54c0,0.68-0.24,1.24-0.53,1.24c-0.29,0-0.53-0.55-0.53-1.24s0.24-1.24,0.53-1.24
					C257.12,363.31,257.36,363.86,257.36,364.54z"/>
				<path class="st24" d="M250.78,364.54c0,0.68-0.24,1.24-0.53,1.24s-0.53-0.55-0.53-1.24s0.24-1.24,0.53-1.24
					S250.78,363.86,250.78,364.54z"/>
				<path class="st23" d="M256.3,363.17c0.44-0.57,1.04-1.02,1.71-1.27"/>
				<path class="st23" d="M249.74,362.18c0.66,0.19,1.25,0.6,1.65,1.16"/>
			</g>
			<g>
				<circle class="st22" cx="199.95" cy="365.29" r="9.89"/>
				<path class="st23" d="M197.38,370.06c0.66-0.55,1.54-1.1,2.67-1.45c0.79-0.25,1.51-0.35,2.14-0.36"/>
				<path class="st24" d="M203.57,364.41c0,0.68-0.24,1.24-0.53,1.24s-0.53-0.55-0.53-1.24s0.24-1.24,0.53-1.24
					S203.57,363.73,203.57,364.41z"/>
				<path class="st24" d="M197.38,364.41c0,0.68-0.24,1.24-0.53,1.24s-0.53-0.55-0.53-1.24s0.24-1.24,0.53-1.24
					S197.38,363.73,197.38,364.41z"/>
			</g>
		</g>
	</g>
</g>
</svg>
