<?xml version="1.0" encoding="utf-8"?>
<!-- Generator: Adobe Illustrator 26.5.0, SVG Export Plug-In . SVG Version: 6.00 Build 0)  -->
<svg version="1.1" xmlns="http://www.w3.org/2000/svg" xmlns:xlink="http://www.w3.org/1999/xlink" x="0px" y="0px"
	 viewBox="0 0 500 500" style="enable-background:new 0 0 500 500;" xml:space="preserve">
<style type="text/css">
	.st0{fill:#EBEBEB;}
	.st1{fill:#263238;}
	.st2{fill:#FFFFFF;}
	.st3{fill:none;}
	.st4{fill:#C7C7C7;}
	.st5{fill:#FB8500;}
	.st6{opacity:0.9;fill:#FB8500;}
	.st7{opacity:0.8;fill:#FB8500;}
	.st8{opacity:0.7;fill:#FB8500;}
	.st9{opacity:0.6;fill:#FB8500;}
	.st10{opacity:0.5;fill:#FB8500;}
	.st11{opacity:0.4;fill:#FB8500;}
	.st12{opacity:0.3;fill:#FB8500;}
	.st13{opacity:0.2;fill:#FB8500;}
	.st14{opacity:0.1;fill:#FB8500;}
	.st15{opacity:0.05;fill:#FB8500;}
	.st16{opacity:0.01;fill:#FB8500;}
	.st17{fill:none;stroke:#FB8500;stroke-width:0.5;stroke-miterlimit:10;}
	.st18{fill:#F7A9A0;}
	.st19{fill:#37474F;}
	.st20{fill:#A6A6A6;}
	.st21{fill:#DBDBDB;}
	.st22{fill:#455A64;}
	.st23{opacity:0.1;}
	.st24{fill:#FF99BA;}
	.st25{opacity:0.2;}
</style>
<g id="Background_Complete">
	<g>
		<g>
			<path class="st0" d="M412.41,325.06l13.36-0.28l6.58-0.11c2.19-0.05,4.36-0.04,6.55-0.05l-0.45,0.45l-0.05-11.19l0.5,0.5
				l-13.24-0.06c-4.41,0-8.83-0.11-13.24-0.16l0.27-0.27c-0.02,1.83-0.09,3.67-0.13,5.54L412.41,325.06z M412.41,325.06l-0.14-5.54
				c-0.05-1.87-0.11-3.76-0.13-5.65l0-0.27l0.28,0c4.41-0.05,8.83-0.16,13.24-0.16l13.24-0.06l0.5,0l0,0.5l-0.05,11.19l0,0.45
				l-0.44,0c-2.23-0.02-4.47-0.01-6.69-0.05l-6.66-0.11L412.41,325.06z"/>
		</g>
		<g>
			<path class="st0" d="M427.18,339.17l13.36-0.28l6.58-0.11c2.19-0.05,4.36-0.04,6.55-0.05l-0.45,0.45l-0.05-11.19l0.5,0.5
				l-13.24-0.06c-4.41,0-8.83-0.11-13.24-0.16l0.27-0.27c-0.02,1.83-0.09,3.67-0.13,5.54L427.18,339.17z M427.18,339.17l-0.14-5.54
				c-0.05-1.87-0.11-3.76-0.13-5.65l0-0.27l0.28,0c4.41-0.05,8.83-0.16,13.24-0.16l13.24-0.06l0.5,0l0,0.5l-0.05,11.19l0,0.45
				l-0.44,0c-2.23-0.02-4.47-0.01-6.69-0.05l-6.66-0.11L427.18,339.17z"/>
		</g>
		<g>
			<path class="st0" d="M285.87,227.13l13.36-0.28l6.58-0.11c2.19-0.05,4.36-0.04,6.55-0.05l-0.45,0.45l-0.05-11.19l0.5,0.5
				l-13.24-0.06c-4.41,0-8.83-0.11-13.24-0.16l0.27-0.27c-0.02,1.83-0.09,3.67-0.13,5.54L285.87,227.13z M285.87,227.13l-0.14-5.54
				c-0.05-1.87-0.11-3.76-0.13-5.65l0-0.27l0.28,0c4.41-0.05,8.83-0.16,13.24-0.16l13.24-0.06l0.5,0l0,0.5l-0.05,11.19l0,0.45
				l-0.44,0c-2.23-0.02-4.47-0.01-6.69-0.05l-6.66-0.11L285.87,227.13z"/>
		</g>
		<g>
			<path class="st0" d="M300.64,241.24l13.36-0.28l6.58-0.11c2.19-0.05,4.36-0.04,6.55-0.06l-0.45,0.45l-0.05-11.19l0.5,0.5
				l-13.24-0.06c-4.41-0.01-8.83-0.11-13.24-0.16l0.27-0.27c-0.02,1.83-0.09,3.67-0.13,5.54L300.64,241.24z M300.64,241.24
				l-0.14-5.54c-0.05-1.87-0.11-3.76-0.13-5.65l0-0.27l0.28,0c4.41-0.05,8.83-0.16,13.24-0.16l13.24-0.06l0.5,0l0,0.5l-0.05,11.19
				l0,0.45l-0.44,0c-2.23-0.02-4.47-0.01-6.69-0.05l-6.66-0.11L300.64,241.24z"/>
		</g>
		<g>
			<path class="st0" d="M315.36,227.13l13.36-0.28l6.58-0.11c2.19-0.05,4.36-0.04,6.55-0.05l-0.45,0.45l-0.05-11.19l0.5,0.5
				l-13.24-0.06c-4.41,0-8.83-0.11-13.24-0.16l0.27-0.27c-0.02,1.83-0.09,3.67-0.13,5.54L315.36,227.13z M315.36,227.13l-0.14-5.54
				c-0.05-1.87-0.11-3.76-0.13-5.65l0-0.27l0.28,0c4.41-0.05,8.83-0.16,13.24-0.16l13.24-0.06l0.5,0l0,0.5l-0.05,11.19l0,0.45
				l-0.44,0c-2.23-0.02-4.47-0.01-6.69-0.05l-6.66-0.11L315.36,227.13z"/>
		</g>
		<g>
			<path class="st0" d="M46.34,339.17l13.36-0.28l6.58-0.11c2.19-0.05,4.36-0.04,6.55-0.05l-0.45,0.45l-0.05-11.19l0.5,0.5
				l-13.24-0.06c-4.41,0-8.83-0.11-13.24-0.16l0.27-0.27c-0.02,1.83-0.09,3.67-0.13,5.54L46.34,339.17z M46.34,339.17l-0.14-5.54
				c-0.05-1.87-0.11-3.76-0.13-5.65l0-0.27l0.28,0c4.41-0.05,8.83-0.16,13.24-0.16l13.24-0.06l0.5,0l0,0.5l-0.05,11.19l0,0.45
				l-0.44,0c-2.23-0.02-4.47-0.01-6.69-0.05l-6.66-0.11L46.34,339.17z"/>
		</g>
		<g>
			<path class="st0" d="M61.11,65.49l13.36-0.28l6.58-0.11c2.19-0.05,4.36-0.04,6.55-0.06l-0.45,0.45L87.09,54.3l0.5,0.5
				l-13.24-0.06c-4.41-0.01-8.83-0.11-13.24-0.16l0.27-0.27c-0.02,1.83-0.09,3.67-0.13,5.54L61.11,65.49z M61.11,65.49l-0.14-5.54
				c-0.05-1.87-0.11-3.75-0.13-5.65l0-0.27l0.28,0c4.41-0.05,8.83-0.16,13.24-0.16l13.24-0.06l0.5,0l0,0.5l-0.05,11.19l0,0.45
				l-0.44,0c-2.23-0.02-4.47-0.01-6.69-0.06l-6.66-0.11L61.11,65.49z"/>
		</g>
		<g>
			<path class="st0" d="M46.34,79.6l13.36-0.28l6.58-0.11c2.19-0.05,4.36-0.04,6.55-0.06l-0.45,0.45l-0.05-11.19l0.5,0.5
				l-13.24-0.06c-4.41,0-8.83-0.11-13.24-0.16l0.27-0.27c-0.02,1.83-0.09,3.67-0.13,5.54L46.34,79.6z M46.34,79.6l-0.14-5.54
				c-0.05-1.87-0.11-3.75-0.13-5.65l0-0.27l0.28,0c4.41-0.05,8.83-0.16,13.24-0.16l13.24-0.06l0.5,0l0,0.5L73.27,79.6l0,0.45
				l-0.44,0c-2.23-0.02-4.47-0.01-6.69-0.06l-6.66-0.11L46.34,79.6z"/>
		</g>
		<g>
			<path class="st0" d="M427.18,65.49l13.36-0.28l6.58-0.11c2.19-0.05,4.36-0.04,6.55-0.06l-0.45,0.45l-0.05-11.19l0.5,0.5
				l-13.24-0.06c-4.41-0.01-8.83-0.11-13.24-0.16l0.27-0.27c-0.02,1.83-0.09,3.67-0.13,5.54L427.18,65.49z M427.18,65.49l-0.14-5.54
				c-0.05-1.87-0.11-3.75-0.13-5.65l0-0.27l0.28,0c4.41-0.05,8.83-0.16,13.24-0.16l13.24-0.06l0.5,0l0,0.5l-0.05,11.19l0,0.45
				l-0.44,0c-2.23-0.02-4.47-0.01-6.69-0.06l-6.66-0.11L427.18,65.49z"/>
		</g>
	</g>
	<g>
		<path class="st0" d="M403.47,52.1l-5.89,9.49l2.91,1.8c0.85,0.53,1.32,1.5,1.23,2.5c-0.05,0.55-0.07,1.11-0.05,1.67
			c0.02,1-0.5,1.94-1.39,2.41l-3.01,1.62l5.28,9.84l3.01-1.62c0.88-0.47,1.95-0.39,2.77,0.18c0.46,0.32,0.93,0.61,1.42,0.88
			c0.88,0.48,1.43,1.4,1.4,2.41l-0.11,3.42l11.16,0.35l0.1-3.43c0.03-1.01,0.65-1.88,1.56-2.31c0.25-0.12,0.49-0.24,0.73-0.37
			c0.24-0.13,0.48-0.27,0.71-0.41c0.86-0.52,1.92-0.55,2.77-0.02l2.93,1.81l5.89-9.49l-2.91-1.81c-0.85-0.53-1.32-1.5-1.23-2.5
			c0.05-0.55,0.07-1.11,0.05-1.66c-0.02-1,0.5-1.93,1.39-2.41l3.01-1.62L431.93,53l-3.01,1.62c-0.88,0.47-1.95,0.39-2.77-0.18
			c-0.46-0.32-0.93-0.61-1.42-0.87c-0.88-0.48-1.43-1.4-1.4-2.41l0.11-3.42l-11.16-0.35l-0.11,3.43c-0.03,1-0.65,1.87-1.55,2.3
			c-0.25,0.12-0.49,0.24-0.74,0.37c-0.24,0.13-0.48,0.27-0.71,0.41c-0.86,0.52-1.93,0.55-2.79,0.02L403.47,52.1z M412.92,59.15
			c4.45-2.39,9.99-0.72,12.38,3.74c2.39,4.45,0.72,10-3.73,12.39c-4.45,2.39-10,0.71-12.39-3.74S408.47,61.54,412.92,59.15z"/>
		<path class="st0" d="M442.32,91.42l-6.78,3.91l1.2,2.07c0.35,0.61,0.32,1.36-0.07,1.95c-0.21,0.33-0.41,0.66-0.59,1.01
			c-0.32,0.63-0.95,1.03-1.65,1.03h-2.39v7.83h2.39c0.7,0,1.33,0.4,1.65,1.03c0.18,0.35,0.37,0.69,0.59,1.01
			c0.38,0.59,0.42,1.34,0.07,1.95l-1.2,2.07l6.78,3.91l1.2-2.08c0.35-0.61,1.02-0.95,1.73-0.91c0.19,0.01,0.38,0.01,0.58,0.01
			c0.19,0,0.38,0,0.58-0.01c0.7-0.04,1.37,0.3,1.72,0.91l1.21,2.09l6.78-3.91l-1.2-2.08c-0.35-0.61-0.32-1.36,0.07-1.95
			c0.21-0.32,0.41-0.66,0.58-1.01c0.32-0.63,0.95-1.03,1.65-1.03h2.4v-7.83h-2.4c-0.7,0-1.33-0.4-1.65-1.03
			c-0.18-0.35-0.37-0.68-0.58-1.01c-0.39-0.59-0.42-1.34-0.07-1.95l1.2-2.08l-6.78-3.91l-1.2,2.08c-0.35,0.61-1.02,0.94-1.72,0.91
			c-0.19-0.01-0.39-0.01-0.58-0.01c-0.19,0-0.38,0-0.58,0.01c-0.7,0.04-1.37-0.3-1.73-0.91L442.32,91.42z M445.82,98.9
			c3.54,0,6.4,2.87,6.4,6.4s-2.87,6.41-6.4,6.41c-3.54,0-6.41-2.87-6.41-6.41S442.28,98.9,445.82,98.9z"/>
		<path class="st0" d="M40.4,301.21l3.91,6.78l2.07-1.2c0.61-0.35,1.36-0.32,1.95,0.07c0.33,0.21,0.66,0.41,1.01,0.59
			c0.63,0.32,1.03,0.95,1.03,1.65v2.39h7.83v-2.39c0-0.7,0.4-1.33,1.03-1.65c0.35-0.18,0.69-0.37,1.01-0.59
			c0.59-0.38,1.34-0.42,1.95-0.07l2.07,1.2l3.91-6.78l-2.08-1.2c-0.61-0.35-0.95-1.02-0.91-1.73c0.01-0.19,0.01-0.38,0.01-0.58
			c0-0.19,0-0.38-0.01-0.58c-0.04-0.7,0.3-1.37,0.91-1.72l2.09-1.21l-3.91-6.78l-2.08,1.2c-0.61,0.35-1.36,0.32-1.95-0.07
			c-0.32-0.21-0.66-0.41-1.01-0.58c-0.63-0.32-1.03-0.95-1.03-1.65v-2.4h-7.83v2.4c0,0.7-0.4,1.33-1.03,1.65
			c-0.35,0.18-0.68,0.37-1.01,0.58c-0.59,0.39-1.34,0.42-1.95,0.07l-2.08-1.2l-3.91,6.78l2.08,1.2c0.61,0.35,0.94,1.02,0.91,1.72
			c-0.01,0.19-0.01,0.39-0.01,0.58c0,0.19,0,0.38,0.01,0.58c0.04,0.7-0.3,1.37-0.91,1.73L40.4,301.21z M47.88,297.71
			c0-3.54,2.87-6.4,6.4-6.4c3.54,0,6.41,2.87,6.41,6.4c0,3.54-2.87,6.41-6.41,6.41C50.75,304.12,47.88,301.25,47.88,297.71z"/>
	</g>
	<g>
		<polygon class="st0" points="367.55,288.32 359.54,288.32 359.54,397.12 332.69,397.12 332.69,288.32 324.7,288.32 346.12,264.8 
					"/>
		<polygon class="st0" points="416.75,250.17 408.74,250.17 408.74,397.12 381.89,397.12 381.89,250.17 373.9,250.17 395.32,226.65 
					"/>
		<polygon class="st0" points="322.18,330.28 314.17,330.28 314.17,397.12 287.32,397.12 287.32,330.28 279.33,330.28 
			300.76,306.76 		"/>
	</g>
</g>
<g id="Background_Simple">
</g>
<g id="Shadow">
	<ellipse class="st0" cx="250" cy="444.42" rx="204.99" ry="14.92"/>
</g>
<g id="Floor">
	<g>
		<polygon class="st1" points="40.29,397.19 92.72,396.94 145.14,396.85 250,396.69 354.86,396.85 407.28,396.94 459.71,397.19 
			407.28,397.43 354.86,397.52 250,397.68 145.14,397.52 92.72,397.43 		"/>
	</g>
</g>
<g id="Device">
	<g>
		<g>
			<path class="st1" d="M235.97,60.59H87.29c-8.3,0-15.04,6.85-15.04,15.32v306.07c0,8.45,6.74,15.32,15.04,15.32h148.68
				c8.31,0,15.06-6.87,15.06-15.32V75.91C251.03,67.44,244.28,60.59,235.97,60.59z M241.62,372.52c0,8.06-6.03,14.57-13.47,14.57
				H95.13c-7.46,0-13.49-6.52-13.49-14.57V87.51c0-16.41,6.03-17.21,13.49-17.21h26.64c1.55,0,2.81,1.76,2.81,3.94v0.94
				c0,5.11,2.8,5.13,6.24,5.13h61.62c3.47,0,6.24-0.02,6.24-5.13v-0.94c0-2.18,1.25-3.94,2.82-3.94h26.65
				c7.44,0,13.47,2.18,13.47,17.21V372.52z"/>
			<path class="st2" d="M170.04,73.92h-16.81c-0.57,0-1.04-0.46-1.04-1.04l0,0c0-0.57,0.46-1.04,1.04-1.04h16.81
				c0.57,0,1.04,0.46,1.04,1.04l0,0C171.08,73.46,170.61,73.92,170.04,73.92z"/>
			<line class="st3" x1="81.64" y1="354.45" x2="81.14" y2="354.45"/>
			<g>
				<path class="st2" d="M241.63,87.51v285.01c0,8.06-6.03,14.57-13.47,14.57H95.14c-7.46,0-13.49-6.52-13.49-14.57V87.51
					c0-16.41,6.03-17.21,13.49-17.21h26.64c1.55,0,2.81,1.76,2.81,3.94v0.94c0,5.11,2.8,5.13,6.24,5.13h61.62
					c3.47,0,6.24-0.02,6.24-5.13v-0.94c0-2.18,1.25-3.94,2.82-3.94h26.65C235.59,70.3,241.63,72.48,241.63,87.51z"/>
				<g>
					<g id="u5Zjqx_1_">
						<g>
							<path class="st4" d="M117.18,76.7c-0.09,0.09-0.17,0.17-0.26,0.26c-0.05,0.05-0.1,0.1-0.15,0.15
								c-0.69-0.67-1.52-1.03-2.48-1.03c-0.96,0-1.79,0.36-2.48,1.03c-0.05-0.05-0.09-0.1-0.14-0.15c-0.08-0.09-0.17-0.17-0.25-0.26
								c0,0-0.01,0-0.01,0c0,0,0,0,0-0.01c0.01-0.01,0.01-0.01,0.02-0.02c0.11-0.1,0.21-0.2,0.33-0.29
								c0.23-0.19,0.48-0.35,0.75-0.48c0.32-0.16,0.65-0.27,1-0.34c0.16-0.03,0.33-0.05,0.5-0.07c0.06-0.01,0.43-0.01,0.44-0.01
								c0.11,0.01,0.23,0.01,0.34,0.03c0.31,0.03,0.62,0.11,0.92,0.22c0.21,0.08,0.42,0.18,0.62,0.29c0.21,0.12,0.41,0.26,0.59,0.41
								C117,76.53,117.09,76.61,117.18,76.7C117.18,76.69,117.18,76.7,117.18,76.7z"/>
							<path class="st4" d="M112.63,77.91c-0.14-0.13-0.27-0.27-0.41-0.4c0.46-0.45,1.01-0.74,1.66-0.83
								c0.96-0.13,1.79,0.16,2.49,0.83c-0.14,0.14-0.27,0.27-0.41,0.41c-0.46-0.45-1.01-0.69-1.66-0.69
								C113.65,77.22,113.09,77.46,112.63,77.91z"/>
							<path class="st4" d="M115.55,78.32c-0.13,0.13-0.27,0.27-0.4,0.4c-0.23-0.23-0.52-0.35-0.85-0.35
								c-0.33,0-0.62,0.13-0.85,0.36c-0.14-0.14-0.27-0.27-0.4-0.4C113.68,77.64,114.84,77.59,115.55,78.32z"/>
						</g>
						<path class="st4" d="M114.66,79.09c0,0.2-0.16,0.37-0.37,0.37c-0.2,0-0.37-0.16-0.37-0.37c0-0.2,0.16-0.37,0.37-0.37
							C114.5,78.72,114.66,78.89,114.66,79.09z"/>
					</g>
					<g>
						<path class="st4" d="M92.08,77.48c0-0.59,0.47-1.06,1.06-1.06c0.59,0,1.06,0.47,1.06,1.06s-0.47,1.06-1.06,1.06
							C92.55,78.54,92.08,78.06,92.08,77.48z"/>
						<path class="st4" d="M95.42,77.48c0-0.59,0.47-1.06,1.06-1.06c0.59,0,1.06,0.47,1.06,1.06s-0.47,1.06-1.06,1.06
							C95.89,78.54,95.42,78.06,95.42,77.48z"/>
						<circle class="st4" cx="99.81" cy="77.48" r="1.06"/>
						<path class="st4" d="M102.09,77.48c0-0.59,0.47-1.06,1.06-1.06c0.59,0,1.06,0.47,1.06,1.06s-0.47,1.06-1.06,1.06
							C102.57,78.54,102.09,78.06,102.09,77.48z"/>
						<path class="st4" d="M105.43,77.48c0-0.59,0.47-1.06,1.06-1.06c0.59,0,1.06,0.47,1.06,1.06s-0.47,1.06-1.06,1.06
							C105.91,78.54,105.43,78.06,105.43,77.48z"/>
					</g>
					<g>
						<path class="st4" d="M229.63,79.8h-8.64v-4.01h8.64V79.8z M221.44,79.35h7.74v-3.11h-7.74V79.35z"/>
						<rect x="221.71" y="76.47" class="st4" width="5.56" height="2.64"/>
						<rect x="229.63" y="76.72" class="st4" width="0.77" height="2.14"/>
					</g>
				</g>
				<g>
					<g>
						<circle class="st5" cx="162.02" cy="174.91" r="3.64"/>
						<path class="st6" d="M140.92,179.62c0,1.91,1.55,3.46,3.46,3.46c1.91,0,3.46-1.55,3.46-3.46c0-1.91-1.55-3.46-3.46-3.46
							C142.47,176.16,140.92,177.71,140.92,179.62z"/>
						<path class="st7" d="M130.07,191.64c0,1.81,1.47,3.28,3.28,3.28c1.81,0,3.28-1.47,3.28-3.28c0-1.81-1.47-3.28-3.28-3.28
							C131.54,188.36,130.07,189.83,130.07,191.64z"/>
						<circle class="st8" cx="129.58" cy="207.8" r="3.1"/>
						<path class="st9" d="M130.14,223.04c0,1.62,1.31,2.93,2.93,2.93s2.93-1.31,2.93-2.93c0-1.62-1.31-2.93-2.93-2.93
							S130.14,221.42,130.14,223.04z"/>
						<path class="st10" d="M141.01,235.51c0,1.52,1.23,2.75,2.75,2.75c1.52,0,2.75-1.23,2.75-2.75c0-1.52-1.23-2.75-2.75-2.75
							C142.24,232.76,141.01,233.99,141.01,235.51z"/>
						<path class="st11" d="M159.57,240.72c0,1.42,1.15,2.57,2.57,2.57c1.42,0,2.57-1.15,2.57-2.57c0-1.42-1.15-2.57-2.57-2.57
							C160.72,238.15,159.57,239.3,159.57,240.72z"/>
						<path class="st12" d="M178.37,235.11c0,1.32,1.07,2.39,2.39,2.39s2.39-1.07,2.39-2.39c0-1.32-1.07-2.39-2.39-2.39
							S178.37,233.79,178.37,235.11z"/>
						<path class="st13" d="M189.16,222.03c0,1.22,0.99,2.21,2.21,2.21c1.22,0,2.21-0.99,2.21-2.21c0-1.22-0.99-2.21-2.21-2.21
							C190.15,219.82,189.16,220.81,189.16,222.03z"/>
						<path class="st14" d="M192.74,207.48c0,1.12,0.91,2.03,2.03,2.03c1.12,0,2.03-0.91,2.03-2.03c0-1.12-0.91-2.03-2.03-2.03
							C193.65,205.44,192.74,206.35,192.74,207.48z"/>
						<path class="st15" d="M187.66,188.73c0,1.02,0.83,1.85,1.85,1.85c1.02,0,1.85-0.83,1.85-1.85c0-1.02-0.83-1.85-1.85-1.85
							C188.49,186.88,187.66,187.71,187.66,188.73z"/>
						<circle class="st16" cx="176.91" cy="178.2" r="1.67"/>
					</g>
					<polygon class="st5" points="174.7,206.27 169.82,206.27 169.82,222.63 153.45,222.63 153.45,206.27 148.58,206.27 
						161.64,191.93 					"/>
				</g>
				<g>
					<rect x="114.62" y="260.86" class="st17" width="94.03" height="8.2"/>
					<rect x="116.18" y="262.42" class="st5" width="3.04" height="5.08"/>
					<rect x="120.37" y="262.42" class="st5" width="3.04" height="5.08"/>
					<rect x="124.56" y="262.42" class="st5" width="3.04" height="5.08"/>
					<rect x="128.76" y="262.42" class="st5" width="3.04" height="5.08"/>
					<rect x="132.95" y="262.42" class="st5" width="3.04" height="5.08"/>
					<rect x="137.14" y="262.42" class="st5" width="3.04" height="5.08"/>
					<rect x="141.34" y="262.42" class="st5" width="3.04" height="5.08"/>
					<rect x="145.53" y="262.42" class="st5" width="3.04" height="5.08"/>
					<rect x="149.73" y="262.42" class="st5" width="3.04" height="5.08"/>
					<rect x="153.92" y="262.42" class="st5" width="3.04" height="5.08"/>
					<rect x="158.11" y="262.42" class="st5" width="3.04" height="5.08"/>
					<rect x="162.31" y="262.42" class="st5" width="3.04" height="5.08"/>
				</g>
			</g>
		</g>
	</g>
</g>
<g id="Character">
	<g>
		<g>
			<g>
				<g>
					<path class="st18" d="M295.14,367.75c0,0-3.06,42.38-3.06,42.41c-0.04,8.3,0.07,15.58,0.48,19.34c0,0.02,0,0.04,0.01,0.06
						c0.15,1.42,0.35,2.32,0.6,2.57c0.02,0.02,0.03,0.04,0.05,0.05c2.46,1.69,68.78,3.96,71.12,3.26c2.35-0.69,0.53-7.42-1.97-9.56
						c-2.52-2.14-27.52-14.37-27.52-14.37l2.64-42.36L295.14,367.75z"/>
					<path class="st2" d="M292.08,401.25c0,0,0,8.88,0,8.91c-0.04,8.3,0.07,15.58,0.48,19.34c0,0.02,0,0.04,0.01,0.06
						c0.23,1.4,0.45,2.33,0.6,2.57c0.02,0.02,0.03,0.04,0.05,0.05c2.46,1.69,68.78,3.96,71.12,3.26c2.35-0.69,0.53-7.42-1.97-9.56
						c-2.52-2.14-27.52-14.37-27.52-14.37l0.12-9.04L292.08,401.25z"/>
					<g>
						<path class="st5" d="M364.34,435.44c-2.34,0.7-68.66-1.57-71.12-3.26c-0.95-0.63-1.18-10.31-1.13-22.01
							c0-0.12,0-0.24,0.01-0.37l42.8,0.99l-0.04,0.73c0,0,24.99,12.22,27.51,14.37C364.86,428.01,366.68,434.75,364.34,435.44z"/>
						<g>
							<path class="st1" d="M363.68,432.84c-11.17-0.66-56.28-2.25-67.37-2.05c-0.09,0-0.09,0.06,0,0.07
								c11.06,0.89,56.18,2.12,67.37,2.17C363.91,433.03,363.91,432.86,363.68,432.84z"/>
							<path class="st1" d="M338.44,411.76c-4.37-0.97-9.77-0.48-13.24,2.54c-0.13,0.12,0.03,0.31,0.18,0.27
								c4.39-1.22,8.47-1.96,13.03-2.25C338.72,412.3,338.75,411.83,338.44,411.76z"/>
							<path class="st1" d="M341.55,413.78c-4.37-0.97-9.77-0.48-13.24,2.54c-0.13,0.12,0.03,0.31,0.18,0.27
								c4.39-1.22,8.47-1.96,13.03-2.25C341.83,414.32,341.86,413.85,341.55,413.78z"/>
							<path class="st1" d="M344.66,415.81c-4.37-0.97-9.77-0.48-13.24,2.54c-0.13,0.12,0.03,0.31,0.18,0.27
								c4.39-1.22,8.47-1.96,13.03-2.25C344.94,416.34,344.97,415.88,344.66,415.81z"/>
						</g>
					</g>
				</g>
				<g>
					<path class="st19" d="M289.53,411.99l46.42-0.93c0,0,5.66-83.53,4.61-111.38c-1.15-30.25-14.14-120.26-14.14-120.26h-39.2
						c0,0,10.02,90.36,10.23,120.62C297.64,328.1,289.53,411.99,289.53,411.99z"/>
					<g>
						<path class="st1" d="M318.72,179.43l-23.55,81.48c-2.79-38.56-7.95-81.48-7.95-81.48H318.72z"/>
						<path class="st1" d="M294.66,183.86l2.49,26.87l2.31,26.88c1.48,17.93,2.88,35.86,3.94,53.83c0.26,4.49,0.42,9,0.36,13.52
							c-0.1,4.51-0.28,9-0.51,13.5c-0.46,8.99-1.04,17.97-1.73,26.93c-0.68,8.97-1.4,17.94-2.18,26.9l-2.5,26.87l2.01-26.91
							c0.67-8.97,1.31-17.94,1.89-26.91c0.57-8.97,1.17-17.95,1.59-26.92c0.21-4.49,0.38-8.98,0.46-13.47
							c0.05-4.48-0.13-8.96-0.4-13.45c-0.98-17.95-2.4-35.89-3.71-53.82L294.66,183.86z"/>
						<g>
							<g>
								<path class="st1" d="M334.01,403.32c-7.25-0.06-5.17-0.15-12.41-0.13c-3.55,0.01-26.85,0.09-30.16,0.68
									c-0.07,0.01-0.07,0.14,0,0.15c3.32,0.51,26.62,0.02,30.17-0.05c7.25-0.16,5.16-0.19,12.41-0.43
									C334.15,403.53,334.15,403.32,334.01,403.32z"/>
							</g>
						</g>
					</g>
				</g>
			</g>
			<g>
				<g>
					<path class="st18" d="M219.68,345.02c0,0-22.39,36.4-22.41,36.42c-3.64,7.46-6.69,14.07-7.95,17.63
						c-0.01,0.02-0.02,0.04-0.02,0.06c-0.48,1.34-0.69,2.25-0.57,2.57c0.01,0.03,0.01,0.05,0.02,0.07
						c1.49,2.59,60.26,33.39,62.67,33.77c2.42,0.4,3.7-6.46,2.37-9.47c-1.34-3.02-18.56-24.88-18.56-24.88l22.01-36.56
						L219.68,345.02z"/>
					<path class="st2" d="M188.73,401.71c0,0.02,0,0.04,0.01,0.06c1.49,2.59,60.26,33.39,62.68,33.78c2.41,0.4,3.69-6.46,2.37-9.48
						c-1.35-3.03-18.57-24.88-18.57-24.88l3.93-6.53c-9.61-5.12-27.07-14.11-37.91-19.68c-2.36,3.83-3.97,6.45-3.97,6.46
						c-3.64,7.46-6.7,14.06-7.95,17.62c-0.01,0.02-0.02,0.04-0.02,0.06C188.82,400.48,188.6,401.38,188.73,401.71z"/>
					<g>
						<path class="st5" d="M251.42,435.55c-2.42-0.38-61.18-31.18-62.67-33.78c-0.58-0.98,3.41-9.8,8.53-20.33
							c0.05-0.11,0.11-0.22,0.16-0.33l38.14,19.45l-0.35,0.64c0,0,17.22,21.85,18.56,24.88
							C255.11,429.09,253.83,435.94,251.42,435.55z"/>
						<g>
							<path class="st1" d="M251.95,432.92c-9.78-5.44-49.73-26.43-59.81-31.06c-0.08-0.04-0.11,0.02-0.03,0.06
								c9.58,5.6,49.7,26.27,59.76,31.16C252.08,433.19,252.16,433.04,251.95,432.92z"/>
							<path class="st1" d="M238.35,402.99c-3.52-2.77-8.6-4.67-13.03-3.45c-0.17,0.05-0.1,0.29,0.04,0.32
								c4.48,0.8,8.48,1.91,12.71,3.62C238.38,403.59,238.6,403.18,238.35,402.99z"/>
							<path class="st1" d="M240.28,406.16c-3.52-2.77-8.6-4.67-13.03-3.45c-0.17,0.05-0.1,0.29,0.04,0.32
								c4.48,0.8,8.48,1.91,12.71,3.62C240.3,406.76,240.53,406.35,240.28,406.16z"/>
							<path class="st1" d="M242.2,409.33c-3.52-2.77-8.6-4.67-13.03-3.45c-0.17,0.05-0.1,0.29,0.04,0.32
								c4.48,0.8,8.48,1.91,12.71,3.62C242.23,409.93,242.45,409.53,242.2,409.33z"/>
						</g>
					</g>
				</g>
				<g>
					<path class="st19" d="M322.41,179.39c0,0,0,0.01-0.01,0.04c-0.17,0.81-2.91,13.52-5.75,24.45c-2.07,7.98-4.19,15-5.41,15.72
						c-1.38,0.82-8.11,3.8-10.37,4.74c0,0-15.14,75.58-23.13,99.02c-7.38,21.63-37.9,79.43-37.9,79.43l-44.28-22.37
						c0,0,34.58-58.67,38.22-69.2c5.64-16.32,26.76-96,26.76-96s-0.16-24.95,8.24-35.84H322.41z"/>
					<g>
						<path class="st1" d="M239.18,394.16c-6.33-3.53-4.46-2.61-10.83-6.07c-3.12-1.7-23.6-12.82-26.78-13.89
							c-0.07-0.02-0.13,0.09-0.07,0.13c2.67,2.04,23.34,12.8,26.49,14.44c6.43,3.34,4.62,2.31,11.09,5.58
							C239.2,394.41,239.3,394.23,239.18,394.16z"/>
						<path class="st1" d="M271.88,208.29c1.21-0.31,2.51-0.41,3.75-0.61c1-0.16,1.99-0.33,2.98-0.55c1.86-0.41,3.74-1.03,5.26-2.22
							c1.71-1.33,2.58-3.36,3.41-5.3c0.49-1.15,1-2.3,1.51-3.45c0.25-0.56,0.5-1.11,0.76-1.66c0.3-0.65,0.71-1.32,0.93-1.99
							c0.03-0.1,0.19-0.05,0.15,0.05c-0.2,0.45-0.28,0.96-0.42,1.43c-0.17,0.56-0.33,1.12-0.5,1.67c-0.31,0.99-0.61,1.99-0.93,2.97
							c-0.59,1.77-1.11,3.62-2.11,5.21c-1.83,2.91-5.1,4.08-8.36,4.5c-0.94,0.12-1.88,0.18-2.82,0.24
							c-1.17,0.07-2.41,0.17-3.57,0.03C271.74,208.59,271.69,208.34,271.88,208.29z"/>
						<g>
							<path class="st1" d="M314.81,217.82c-4.81,1.65-9.44,4-13.88,6.46c-0.17,0.1-0.06,0.37,0.13,0.29
								c4.68-2.01,9.44-3.93,14-6.19C315.42,218.2,315.18,217.69,314.81,217.82z"/>
							<path class="st1" d="M316.22,185.8c-0.01-0.16-0.3-0.2-0.3-0.02c0.04,5.55-0.32,10.43-0.78,15.62
								c-0.22,2.41-2.15,15.72-6.33,14.75c-0.7-0.16-1.06-0.85-1.17-1.9c-0.13-1.27,0.34-2.82,0.55-4.08
								c0.46-2.79,0.84-5.58,1.07-8.4c0.45-5.25,0.47-10.51-0.17-15.74c-0.02-0.17-0.27-0.16-0.27,0.02
								c0.01,7.27-0.18,14.53-1.27,21.73c-0.52,3.46-2.27,8.67,1.35,9.21c3.69,0.54,6.07-8.19,6.52-10.57
								C316.7,199.73,316.75,192.54,316.22,185.8z"/>
							<path class="st1" d="M308.92,216.5c-0.38,0.89-0.68,1.82-0.94,2.76c-0.2,0.73-0.47,1.51-0.39,2.27
								c0.02,0.15,0.21,0.16,0.29,0.06c0.49-0.62,0.7-1.47,0.97-2.21c0.32-0.85,0.65-1.7,0.95-2.56
								C309.99,216.24,309.15,215.95,308.92,216.5z"/>
						</g>
						<path class="st1" d="M207.5,373.07c6.3-11.87,12.8-23.62,19.32-35.37c3.21-5.79,6.57-11.52,9.64-17.39
							c3.03-5.8,5.09-11.89,7.01-18.13c3.9-12.67,7.59-25.41,11.08-38.2c3.49-12.79,6.74-25.65,9.82-38.55
							c0.77-3.23,1.61-6.45,2.23-9.71c0.65-3.38,0.45-6.55-0.02-9.94c-0.43-3.1-0.55-6.15-0.07-9.26c0.47-3.07,1.24-6.08,2.16-9.04
							c0.49-1.56,1.02-3.1,1.55-4.65c0.06-0.17,0.33-0.09,0.27,0.08c-1.91,6.25-3.86,12.56-3.45,19.18c0.2,3.18,1.04,6.3,0.98,9.5
							c-0.05,3.18-0.89,6.31-1.61,9.39c-3.01,12.98-6.26,25.9-9.7,38.77c-3.44,12.87-7.1,25.68-10.96,38.43
							c-1.88,6.2-3.64,12.5-6.3,18.42c-2.67,5.93-6.05,11.53-9.24,17.19c-6.58,11.7-13.21,23.37-19.99,34.96
							c-0.86,1.47-1.73,2.93-2.59,4.4C207.59,373.26,207.45,373.17,207.5,373.07z"/>
					</g>
				</g>
			</g>
		</g>
		<g>
			<g>
				<g>
					<path class="st20" d="M363.9,79.86l-7.17,27.54c-0.3,0.81,0.1,1.47,0.9,1.47l14.24,0.11c0.79,0.01,1.69-0.64,1.99-1.45
						L381.02,80c0.3-0.81-0.1-1.47-0.89-1.47l-14.24-0.11C365.09,78.4,364.2,79.05,363.9,79.86z"/>
					<path class="st21" d="M365.59,79.86l-7.17,27.54c-0.3,0.81,0.1,1.47,0.9,1.47l14.24,0.11c0.79,0.01,1.69-0.64,1.99-1.45
						l7.17-27.54c0.3-0.81-0.1-1.47-0.9-1.47l-14.24-0.11C366.78,78.4,365.89,79.05,365.59,79.86z"/>
					<path class="st22" d="M369.48,81.15c-0.02,0.67-0.58,1.19-1.25,1.17c-0.67-0.02-1.19-0.58-1.17-1.25
						c0.02-0.67,0.58-1.19,1.25-1.17C368.98,79.92,369.5,80.48,369.48,81.15z"/>
				</g>
				<g>
					<path class="st18" d="M319.7,120.9c7.77,17.29,27.94,41.6,35.42,41.82c3.56,0.11,9.9,1.06,14.65-2.95
						c10.35-8.76,19.16-25.69,21.06-35.44c0.68-3.47-16.11-11.28-18.66-8.49c-5.96,6.53-12.98,19.43-14.01,19.33
						c-3.83-0.36-20.29-13.24-30.84-21.19C314.07,104,316.6,114.01,319.7,120.9z"/>
					<g>
						<path class="st18" d="M391.54,106.38c-1.67-7.09-3.19-8.65-1.42-15.38c1.16-4.42-1.16-7.05-4.37-3.55
							c-5.24,5.73-5.01,15.33-3.97,18.64L391.54,106.38z"/>
						<g>
							<path class="st18" d="M389.94,127.36c0,0,3.32-9.78,2.28-17.51c-0.71-5.35-3.57-16.8-18.39-23.07
								c-3.52-1.49-9.58-1.11-4.72,3.4c3.45,3.21,6.61,4.2,8.28,6.43c0,0-7.66,1.39-9.01,4.97c-0.6,1.6-2.15,6.01-2.87,9.61
								c0,0,0.74,0.37,1.75,0.7c0,0-0.95,3.46,1.5,8.35L389.94,127.36z"/>
						</g>
						<path class="st18" d="M390.73,104.85c-2.12-1.86-6.69-5.74-11.54-7.61c-5.38-2.08-16.3-4.63-17.79-0.65
							c-1.09,2.92,2.99,4.26,2.99,4.26s-4.74-0.1-5.15,2.75c-0.38,2.6,2.85,3.45,2.85,3.45s-2.88,0.43-2.76,3.01
							c0.15,3.1,6.17,1.69,9.03,4.7C369,115.44,390.73,104.85,390.73,104.85z"/>
						<g>
							<path class="st1" d="M377.95,103.28c-2.29-1.43-8.31-3.33-13.46-2.51c-0.12,0.02-0.17,0.12-0.06,0.12
								c5.87,0.3,11.25,1.7,13.5,2.44C377.96,103.35,377.97,103.3,377.95,103.28z"/>
						</g>
						<g>
							<path class="st1" d="M375.69,108.65c-2.1-1.03-8.39-2.72-13.59-1.7c-0.12,0.02-0.16,0.12-0.05,0.13
								c6.14,0.06,11.33,1.03,13.62,1.63C375.7,108.71,375.72,108.67,375.69,108.65z"/>
						</g>
					</g>
				</g>
				<g>
					<path class="st5" d="M345.02,125.5l-12.78,21.48c0,0-14.41-23.41-16.7-31.49c-2.58-9.09,2.63-8.43,10.52-4.12
						C333.94,115.68,345.02,125.5,345.02,125.5z"/>
					<path class="st23" d="M345.02,125.5l-12.78,21.48c0,0-14.41-23.41-16.7-31.49c-2.58-9.09,2.63-8.43,10.52-4.12
						C333.94,115.68,345.02,125.5,345.02,125.5z"/>
					<g>
						<path class="st1" d="M340.68,123.94c-2,2.52-6.93,10.9-7.75,12.28c-0.44,0.73-2.05,3.7-2.49,4.42
							c-0.06,0.09,0.1,0.16,0.15,0.07c0.84-1.38,1.83-2.67,2.68-4.04c0.87-1.4,6.18-9.72,7.51-12.67
							C340.82,123.95,340.73,123.89,340.68,123.94z"/>
					</g>
				</g>
			</g>
			<g>
				<g>
					<g>
						<path class="st5" d="M262.66,188.52c0-0.01,67.3,9.34,67.3,9.35c-0.19,1.32,3.56-53.24-9.49-87.45
							c-0.89-2.33-11.14-6.13-16.4-2.48C281.01,123.94,262.54,189.37,262.66,188.52z"/>
					</g>
				</g>
				<path class="st23" d="M302.79,108.88l18.08,2.67c0.05,0.1,0.09,0.21,0.12,0.31l-18.52-2.73
					C302.57,109.04,302.68,108.96,302.79,108.88z M297.14,114.3l25.88,3.8c-0.02-0.1-0.05-0.2-0.09-0.3l-25.56-3.77
					C297.29,114.12,297.21,114.21,297.14,114.3z M292.92,119.62l31.74,4.67c-0.02-0.1-0.04-0.2-0.07-0.3l-31.48-4.64
					C293.04,119.44,292.98,119.53,292.92,119.62z M289.3,125.03l36.7,5.41c-0.02-0.11-0.04-0.21-0.06-0.31l-36.48-5.37
					C289.41,124.85,289.35,124.94,289.3,125.03z M286.07,130.5l41.02,6.04c-0.01-0.1-0.03-0.2-0.05-0.3l-40.82-6.01
					C286.17,130.32,286.12,130.41,286.07,130.5z M283.12,136.02l44.86,6.6c-0.01-0.1-0.03-0.2-0.04-0.3l-44.68-6.58
					C283.21,135.83,283.16,135.93,283.12,136.02z M280.39,141.56l48.3,7.11c-0.01-0.1-0.02-0.2-0.03-0.3l-48.14-7.09
					C280.48,141.37,280.44,141.46,280.39,141.56z M277.83,147.13l51.43,7.57c-0.01-0.1-0.02-0.2-0.03-0.3l-51.27-7.55
					C277.92,146.95,277.88,147.04,277.83,147.13z M275.44,152.72l54.25,7.99c0-0.1-0.01-0.2-0.02-0.3l-54.12-7.97
					C275.51,152.54,275.47,152.63,275.44,152.72z M273.15,158.32l56.86,8.37c-0.01-0.1-0.01-0.19-0.02-0.29l-56.73-8.35
					C273.23,158.14,273.19,158.23,273.15,158.32z M270.99,163.95l59.21,8.72c0.01-0.1,0-0.19,0-0.29l-59.11-8.7
					C271.06,163.77,271.02,163.86,270.99,163.95z M268.92,169.59l61.38,9.04c0.01-0.09,0.01-0.19,0-0.29l-61.28-9.02
					C268.99,169.41,268.96,169.5,268.92,169.59z M266.95,175.25l63.36,9.32v-0.28l-63.27-9.32
					C267.01,175.06,266.98,175.16,266.95,175.25z M265.06,180.92l65.15,9.59c0-0.1,0-0.2,0.01-0.3l-65.07-9.58
					C265.12,180.73,265.09,180.83,265.06,180.92z M263.27,186.6l66.74,9.82c0-0.09,0.01-0.19,0.01-0.29l-66.67-9.81
					C263.32,186.41,263.29,186.51,263.27,186.6z"/>
			</g>
			<g>
				<g>
					<g>
						<path class="st18" d="M318.11,118.3c-3.28,0.54-9.74-3.74-11.72-8.52c-0.13-0.33,0.69-3.53,1.52-7.48
							c0.49-2.39,0.98-5.07,1.25-7.55c0.05-0.51,15.12,5.46,15.12,5.46s-2.09,5.02-2.53,9.34c-0.03,0.36-0.03,0.7,0,1.03
							c0,0.05,0.01,0.11,0,0.17C321.84,112.73,321.62,117.73,318.11,118.3z"/>
					</g>
					<path class="st1" d="M321.74,110.6c0,0.05,0,0.11,0,0.17c-0.49,0.01-1.02-0.02-1.6-0.09c-9.12-1.2-10.28-12.9-10.43-15.85
						c2.72,0.7,14.57,5.4,14.57,5.4s-2.09,5.03-2.54,9.35C321.71,109.93,321.7,110.27,321.74,110.6z"/>
				</g>
				<g>
					<g>
						<path class="st18" d="M308.37,75.18c-2.11,5.39-0.42,21.57,3.24,25.42c5.3,5.59,14.58,6.8,19.49,0.29
							c4.76-6.31,2.18-27.35-1.96-30.91C323.03,64.73,311.48,67.22,308.37,75.18z"/>
					</g>
					<g>
						<g>
							<path class="st1" d="M323.19,85.92c-0.01-0.04-0.08,0.06-0.07,0.1c0.14,1.09,0.12,2.35-0.83,2.81
								c-0.03,0.01-0.02,0.07,0.02,0.06C323.5,88.61,323.5,86.93,323.19,85.92z"/>
							<path class="st1" d="M322.11,84.88c-1.77,0.04-1.55,3.57,0.08,3.53C323.8,88.38,323.59,84.85,322.11,84.88z"/>
						</g>
						<g>
							<path class="st1" d="M329.53,85.72c0.01-0.04,0.09,0.05,0.09,0.09c0.03,1.1,0.25,2.34,1.26,2.65
								c0.03,0.01,0.03,0.06-0.01,0.06C329.66,88.42,329.39,86.76,329.53,85.72z"/>
							<path class="st1" d="M330.44,84.52c1.75-0.24,2.1,3.28,0.48,3.5C329.32,88.24,328.97,84.72,330.44,84.52z"/>
						</g>
						<path class="st1" d="M320.62,83.35c0.47-0.15,0.89-0.37,1.34-0.56c0.51-0.22,0.94-0.35,1.25-0.84
							c0.17-0.26,0.06-0.71-0.17-0.9c-0.56-0.44-1.25-0.32-1.88-0.08c-0.68,0.26-1.14,0.64-1.5,1.27
							C319.31,82.86,319.99,83.55,320.62,83.35z"/>
						<path class="st1" d="M331.7,82.66c-0.49-0.05-0.94-0.18-1.42-0.28c-0.55-0.11-0.99-0.15-1.4-0.56
							c-0.22-0.22-0.21-0.68-0.01-0.91c0.46-0.54,1.16-0.57,1.82-0.46c0.72,0.12,1.24,0.39,1.72,0.94
							C332.88,81.91,332.35,82.73,331.7,82.66z"/>
						<path class="st1" d="M322.8,96.13c0.28,0.24,0.56,0.58,0.96,0.59c0.38,0.01,0.82-0.19,1.16-0.35
							c0.03-0.02,0.07,0.02,0.05,0.05c-0.26,0.44-0.84,0.74-1.35,0.68c-0.5-0.06-0.77-0.47-0.92-0.92
							C322.67,96.12,322.76,96.1,322.8,96.13z"/>
						<g>
							<g>
								<path class="st1" d="M323.75,92.79c0.67,0.91,1.6,1.38,2.58,1.51c0.44,0.06,0.9,0.05,1.34-0.02
									c0.09-0.01,0.18-0.02,0.25-0.04c0.08-0.01,0.15-0.03,0.24-0.05c0.13-0.03,0.19-0.14,0.2-0.26l0-0.01
									c0-0.04-0.01-0.07-0.02-0.11c0,0,0,0,0-0.01l-0.01-0.1c-0.03-0.84-0.19-2.12-0.19-2.12c0.32,0.14,1.93,0.75,1.88,0.31
									c-0.44-3.63-0.92-7.66-2.12-11.18c-0.03-0.12-0.22-0.08-0.2,0.04c0.28,3.5,1.18,6.93,1.52,10.45
									c-0.51-0.16-1.35-0.46-1.79-0.43c-0.12,0.04,0.35,2.46,0.33,2.84c0,0,0,0.02,0,0.04c-1.4,0.27-2.5-0.1-3.93-0.96
									C323.76,92.63,323.68,92.71,323.75,92.79z"/>
							</g>
						</g>
						<g>
							<path class="st1" d="M327.15,93.88c0,0-0.69,1.05-1.69,1.48c-0.37,0.16-0.77,0.24-1.2,0.15c-0.89-0.18-0.96-0.98-0.84-1.67
								c0.1-0.57,0.33-1.07,0.33-1.07S325.1,93.88,327.15,93.88z"/>
							<path class="st24" d="M325.47,95.36c-0.37,0.16-0.77,0.24-1.2,0.15c-0.89-0.18-0.96-0.98-0.84-1.67
								C324.37,93.87,325.33,94.45,325.47,95.36z"/>
						</g>
					</g>
					<path class="st1" d="M331.78,75.2c-0.68-1.35-1.45-2.71-2.31-2.93c-0.85-0.23-1.28,1.84-3.17,2.08c-2.55,0.32-3.94-1.96-7.54-2
						c-5.17-0.05-7.19,4.38-6.88,11.7c0.27,6.54-3.64,7.38-3.64,7.38s-3.24-14.26,0.54-19.26c3.78-5.01,12.96-7.66,19.48-3.48
						C330.65,70.22,331.78,75.2,331.78,75.2z"/>
					<g>
						<path class="st18" d="M311.39,88.67c0,0-3.32-5.37-5.74-4.21c-2.42,1.16-0.12,8.8,2.57,9.98c2.69,1.18,3.83-1.29,3.83-1.29
							L311.39,88.67z"/>
						<path class="st1" d="M306.37,86.63c-0.04-0.01-0.06,0.06-0.02,0.07c1.89,0.89,2.8,2.74,3.41,4.63
							c-0.53-0.75-1.29-1.18-2.29-0.55c-0.05,0.03-0.01,0.11,0.05,0.11c0.8-0.12,1.36,0.04,1.86,0.71c0.35,0.47,0.58,1.05,0.82,1.58
							c0.08,0.18,0.4,0.1,0.34-0.1c0-0.01-0.01-0.03-0.01-0.05C310.71,90.58,308.99,87.03,306.37,86.63z"/>
					</g>
				</g>
			</g>
			<g>
				<polygon class="st22" points="428.78,105.7 420.78,105.7 420.78,172.53 393.93,172.53 393.93,105.7 385.94,105.7 407.36,82.18 
									"/>
				<polygon class="st22" points="383.41,121.36 375.41,121.36 375.41,188.2 348.56,188.2 348.56,121.36 340.57,121.36 
					361.99,97.84 				"/>
				<g>
					<rect x="325.26" y="130.44" class="st5" width="71.81" height="86.45"/>
					<rect x="325.26" y="130.44" class="st23" width="71.81" height="86.45"/>
					<rect x="397.07" y="130.44" class="st5" width="37.08" height="86.45"/>
					<polygon class="st2" points="367.26,149.12 365.74,149.12 364.6,149.12 363.94,147.68 363.03,149.12 361.79,146.16 
						360.62,149.12 357.25,149.12 355.72,149.12 355.17,147.15 354.64,149.12 353.65,149.12 353.65,130.44 367.26,130.44 					"/>
					<g class="st23">
						<path d="M431.59,210.94c-2.75-6.15-5.47-12.31-8.16-18.5l-8.04-18.59l-7.94-18.68c-2.63-6.24-5.24-12.49-7.82-18.77
							c2.75,6.15,5.47,12.31,8.16,18.5l8.04,18.59l7.94,18.68C426.41,198.4,429.01,204.66,431.59,210.94z"/>
						<path d="M431.59,136.4c-2.58,6.28-5.19,12.53-7.82,18.77l-7.94,18.68l-8.04,18.59c-2.69,6.19-5.42,12.35-8.16,18.5
							c2.58-6.28,5.19-12.53,7.82-18.77l7.94-18.68l8.04-18.59C426.12,148.71,428.85,142.54,431.59,136.4z"/>
					</g>
					<g>
						<g>
							<polygon class="st5" points="313.34,149.14 385.14,149.14 397.06,130.44 325.26,130.44 							"/>
						</g>
						<g class="st25">
							<polygon points="313.34,149.14 385.14,149.14 397.06,130.44 325.26,130.44 							"/>
						</g>
					</g>
					<g>
						<polygon class="st5" points="408.98,149.14 445.95,149.14 434.03,130.44 397.06,130.44 						"/>
						<polygon class="st23" points="408.98,149.14 445.95,149.14 434.03,130.44 397.06,130.44 						"/>
					</g>
				</g>
			</g>
			<g>
				<path class="st18" d="M293.93,124.49c-4.54,15.72-14.92,48.07-9.54,58.93c7.07,14.25,35.32,27.06,42.68,30.73
					c3.21,1.6,15.1-19.09,13.68-22.65c-1.41-3.56-31.71-21.27-33.52-23.49c-1.81-2.22,0.86-27.65-0.03-41.51
					C306.07,109.01,297.77,111.18,293.93,124.49z"/>
				<g>
					<path class="st18" d="M348.88,200.53c-1.02-1.52-0.23-2.06,2.86-1.07c3.13,1,14.49,7.56,16.44,3.4
						c1.97-4.18-14.25-13.2-19.53-14.47c-5.27-1.28-14.25-1.46-14.25-1.46C337.2,189.32,343.45,195.77,348.88,200.53z"/>
					<path class="st18" d="M319.17,209.37c8.14,6.44,17.88,14.96,29.48,16.57c2.28,0.32,3.74-0.64,3.74-0.64
						c5.19,0.81,7.13-1.39,7.13-1.39c5.06-0.72,6.74-3.25,6.74-3.25s6.1,0.89,7.25-2.71c1.3-4.03-7.52-4.49-12.22-7.71
						c-10.76-7.38-23.99-20.87-26.89-23.31L319.17,209.37z"/>
					<g>
						<path class="st1" d="M344.58,210.43c3.21,2.11,6.31,4.26,9.79,5.92c3.82,1.82,7.8,2.94,11.82,4.17
							c0.13,0.04,0.08,0.22-0.04,0.2c-7.64-1.08-15.86-5.09-21.66-10.15C344.34,210.46,344.42,210.33,344.58,210.43z"/>
						<path class="st1" d="M339.18,216.28c3.24,1.88,8.95,5.14,20.36,7.5c0.04,0.01,0.04,0.07-0.01,0.07
							c-7.61-0.55-14.24-3.09-20.44-7.42C338.9,216.3,338.97,216.16,339.18,216.28z"/>
						<path class="st1" d="M336.34,219.48c5.63,2.98,9.55,4.15,16.03,5.79c0.04,0.01,0.03,0.08-0.01,0.07
							c-7.56-1.09-10.17-2.34-16.15-5.68C336.01,219.54,336.12,219.36,336.34,219.48z"/>
					</g>
				</g>
				<g>
					<path class="st5" d="M308.75,145.5l-24.55,4.7c0,0,7.95-26.32,12.47-33.4c5.09-7.97,8.05-3.62,10.06,5.14
						C308.73,130.7,308.75,145.5,308.75,145.5z"/>
					<path class="st23" d="M308.75,145.5l-24.55,4.7c0,0,7.95-26.32,12.47-33.4c5.09-7.97,8.05-3.62,10.06,5.14
						C308.73,130.7,308.75,145.5,308.75,145.5z"/>
					<g>
						<path class="st1" d="M307.03,141.23c-3.21,0.17-12.75,2.06-14.33,2.35c-0.83,0.16-4.13,0.92-4.96,1.07
							c-0.11,0.02-0.06,0.18,0.05,0.16c1.59-0.28,3.21-0.4,4.8-0.67c1.63-0.28,11.37-1.83,14.46-2.79
							C307.12,141.33,307.1,141.22,307.03,141.23z"/>
						<path class="st1" d="M292.17,126.9c0.03-0.11-0.13-0.15-0.17-0.05c-0.92,2.15-1.79,4.32-2.63,6.5
							c0.15-1.22,0.45-2.39,0.82-3.58c0.02-0.05-0.06-0.07-0.08-0.02c-0.51,1.31-0.78,2.73-0.94,4.13
							c-0.58,1.52-1.14,3.05-1.69,4.59c-1.39,3.9-2.83,7.8-3.99,11.78c-0.06,0.21,0.13,0.4,0.34,0.36c0.85-0.19,1.69-0.4,2.52-0.65
							c0.09-0.03,0.08-0.17-0.02-0.17c-0.72,0.05-1.43,0.13-2.14,0.22c1.44-3.73,2.7-7.54,4.03-11.32
							C289.59,134.78,290.94,130.86,292.17,126.9z"/>
						<path class="st1" d="M308.76,134.77c0.08-1.32,0.17-2.63,0.21-3.95c0-0.03-0.04-0.03-0.04,0c-0.1,0.97-0.18,1.93-0.25,2.9
							c-0.17-1.93-0.37-3.86-0.66-5.76c0-0.03-0.05-0.02-0.05,0.01c0.01,2.93,0.18,5.86,0.26,8.79c0.08,2.88,0.2,5.75,0.33,8.62
							c-0.54,0.19-1.09,0.38-1.64,0.55c-0.1,0.03-0.06,0.18,0.04,0.16c0.62-0.09,1.25-0.18,1.88-0.24c0.15-0.01,0.28-0.11,0.28-0.27
							C309.15,141.99,309.04,138.37,308.76,134.77z"/>
					</g>
				</g>
			</g>
		</g>
	</g>
</g>
<g id="Plant">
	<g>
		<g>
			<path class="st5" d="M405.25,289.13c0.8,5.45,0.5,11.07-0.83,16.4c-0.62,2.5-1.48,4.91-2.51,7.25c-1.3,3-2.67,5.93-2.34,9.22
				c0.32,0.21-0.77,0.18-0.81-0.14c-8.78-5-20.03-5.91-26.78-14.08c-3.2-3.87-4.81-8.77-5.58-13.68
				c-0.83-5.34-1.06-11.25,0.32-16.52c1.16-4.45,3.76-8.75,7.95-10.93c4.32-2.25,9.97-2.06,14.52-0.65
				C398.98,269.06,403.86,279.64,405.25,289.13z"/>
			<g>
				<path class="st1" d="M409.75,354.1c-1.2-3.99-2.39-7.98-3.62-11.97c-2.41-7.8-4.91-15.57-7.68-23.25
					c-1.66-4.6-3.41-9.16-5.25-13.67c0.31-2.83,0.44-5.66,1.05-8.48c0.73-3.4,1.8-6.69,2.79-10.02c0.06-0.2-0.27-0.31-0.35-0.12
					c-1.97,4.59-4.54,10.46-4.61,15.89c-2.14-5.1-4.43-10.14-6.9-15.1c-0.14-4.23-0.29-8.32,0.39-12.57
					c0.03-0.19-0.26-0.25-0.3-0.06c-0.66,3.57-1.12,7.4-0.86,11.1c-1.89-3.72-3.87-7.4-5.99-11.03c-0.19-0.33-0.64,0.01-0.47,0.33
					c3.3,6.35,6.36,12.83,9.23,19.4c-3.98-3.53-8.79-6.19-13.76-7.97c-0.22-0.08-0.38,0.24-0.16,0.33
					c5.66,2.36,10.4,5.71,14.88,9.85c2.06,4.81,4.03,9.66,5.9,14.55c-5.49-5.38-13.01-8.92-20.27-10.82
					c-0.25-0.06-0.31,0.31-0.08,0.39c8.41,2.53,14.95,7.3,21.34,13.03c0.74,1.98,1.47,3.96,2.19,5.94
					c2.71,7.52,5.28,15.09,7.74,22.7c1.18,3.65,2.34,7.3,3.48,10.96c1.23,3.94,2.19,8.09,3.78,11.89c0.15,0.36,0.8,0.28,0.72-0.15
					C412.23,361.48,410.86,357.77,409.75,354.1z"/>
				<path class="st1" d="M395.2,281.45c-1.57,2.41-2.62,5.06-3.16,7.88c-0.01,0.07,0.1,0.12,0.13,0.04
					c0.98-2.65,2.13-5.22,3.43-7.73C395.72,281.38,395.34,281.22,395.2,281.45z"/>
				<path class="st1" d="M379.54,299.73c-2.27-1.29-5.29-2.31-7.88-2.65c-0.07-0.01-0.12,0.1-0.04,0.13
					c1.27,0.53,2.6,0.89,3.88,1.38c1.29,0.49,2.54,1.09,3.84,1.55C379.61,300.24,379.8,299.88,379.54,299.73z"/>
				<path class="st1" d="M375.13,277.74c-0.8-0.53-1.65-1.21-2.53-1.56c-0.14-0.06-0.26,0.12-0.15,0.22c0.7,0.65,1.68,1.13,2.5,1.62
					C375.11,278.11,375.29,277.84,375.13,277.74z"/>
			</g>
		</g>
		<g>
			<path class="st5" d="M434.83,318.94c-6.32,1.88-12.67,3.61-18.99,5.47c-0.55,0.16-11.23-20.31-7.37-30.86
				c3.57-9.76,11.74-17.07,21.48-20.39c4.51-1.53,10.06-2.82,14.83-1.77c4.24,0.94,7.23,4.41,8.61,8.39
				c1.88,5.42,1.25,11.88,0.23,17.41c-0.95,5.13-2.83,10.18-6.22,14.21C444.04,315.4,439.76,317.48,434.83,318.94z"/>
			<g>
				<path class="st1" d="M444,299.48c-4.02,2.03-8.1,3.5-12.39,4.88c-2.69,0.86-5.7,1.64-8.27,3c2.67-5.95,5.6-11.78,8.71-17.55
					c4.08-1.18,8.38-3.02,11.46-5.91c0.17-0.16-0.05-0.39-0.23-0.27c-3.37,2.38-7.08,3.81-10.81,5.42c0.84-1.55,1.69-3.11,2.55-4.65
					c0.24-0.43-0.35-0.86-0.64-0.44c-3.31,4.78-6.29,9.85-8.98,15.08c-0.67-4.62-0.91-9.12-0.65-13.82
					c0.01-0.12-0.17-0.13-0.18-0.01c-0.78,4.97-0.74,10.23,0.16,15.19c-2.22,4.42-4.24,8.96-6.05,13.55
					c-0.72-2.76-1.66-5.47-2.28-8.25c-0.9-4-1.32-8.08-0.91-12.17c0.01-0.12-0.16-0.13-0.18-0.01c-1.23,7.25-0.11,15.44,2.65,22.34
					c-1.06,2.76-2.06,5.54-2.99,8.31c-4.72,14.22-7.63,28.88-8.39,43.85c-0.02,0.35,0.49,0.38,0.53,0.04
					c1.72-14.68,4.75-29.3,9.42-43.34c1.83-5.51,3.94-10.86,6.26-16.11c3.73-1.1,7.45-2.6,11.12-3.87
					c3.58-1.24,7.24-2.67,10.25-5.02C444.26,299.6,444.13,299.41,444,299.48z"/>
				<path class="st1" d="M449.89,293.53c-3.87,1.37-7.53,3.3-11.39,4.69c-0.18,0.07-0.08,0.35,0.11,0.31
					c4.09-0.84,8.14-2.11,11.43-4.79C450.16,293.65,450.02,293.48,449.89,293.53z"/>
				<path class="st1" d="M418.33,285.19c0.05-0.2-0.25-0.32-0.32-0.11c-1.06,3.56-1.79,7.34-0.76,10.99
					c0.04,0.14,0.26,0.15,0.27-0.02C417.71,292.38,417.5,288.81,418.33,285.19z"/>
				<path class="st1" d="M434.3,276.96c-1.3,1.65-1.76,4-1.68,6.06c0.01,0.14,0.22,0.21,0.26,0.05c0.47-2.04,1.26-3.9,1.88-5.88
					C434.86,276.91,434.48,276.73,434.3,276.96z"/>
			</g>
		</g>
		<g>
			<path class="st5" d="M359.65,327.97c1.85,5.88,6.26,14.01,13.23,14.08c4.52,0.04,9.07-0.49,13.6-0.56
				c4.85-0.07,9.72-0.06,14.56,0.22c0.4,0.02-0.58-14.53-12.24-21.62c-3.27-1.99-7.26-2.61-10.97-3.42
				c-4.24-0.92-8.61-1.54-12.96-1.35c-2.68,0.11-4.91,0.67-5.86,3.42C358.01,321.62,358.76,325.17,359.65,327.97z"/>
			<g>
				<path class="st1" d="M364.67,320.61c2.83,0.73,5.69,1.57,8.54,2.47c-0.76-0.79-1.5-1.59-2.35-2.29
					c-1.22-1.02-2.57-1.83-3.88-2.72c-0.11-0.07-0.04-0.28,0.1-0.23c2.59,1.02,5.28,3.14,6.88,5.47c3.54,1.15,7.06,2.41,10.43,3.8
					c2.4,0.98,4.61,2.16,6.68,3.52c-0.74-1.44-1.42-2.92-2.42-4.21c-1.55-2.01-3.64-3.12-5.67-4.55c-0.19-0.13-0.03-0.4,0.18-0.31
					c4.58,2.03,7.36,5.33,9.09,9.86c2.39,1.71,4.58,3.7,6.62,6.01c7.72,8.76,13.79,20.43,13.81,32.32c0,0.28-0.45,0.36-0.51,0.07
					c-2.19-11.82-6.86-22.43-14.71-31.61c-0.55-0.64-1.12-1.26-1.7-1.85c-2.12-0.22-4.22-0.51-6.37-0.47
					c-2.48,0.04-4.95,0.36-7.42,0.57c-4.07,0.33-8.57,0.38-12.25-1.67c-0.16-0.09-0.05-0.37,0.13-0.31
					c8.19,2.98,16.77-0.8,24.98,0.98c-3.5-3.36-7.48-5.89-12.1-7.81c-0.25-0.1-0.5-0.2-0.75-0.3c-5.25,0.63-10.8,2-15.92,0.29
					c-0.15-0.05-0.09-0.28,0.07-0.24c4.94,1.24,9.69-0.32,14.56-0.57c-5.31-2.07-10.73-3.71-16.06-5.77
					C364.19,320.9,364.18,320.49,364.67,320.61z"/>
				<path class="st1" d="M362.35,325.78c2.56,0.42,5.07,0.44,7.65,0.58c0.06,0,0.08,0.09,0.01,0.11c-2.51,0.57-5.27,0.22-7.72-0.49
					C362.17,325.94,362.22,325.76,362.35,325.78z"/>
				<path class="st1" d="M379.62,320.74c1.39,0.48,2.69,1.67,3.79,2.63c0.13,0.12-0.05,0.36-0.19,0.25
					c-0.64-0.47-1.3-0.91-1.97-1.34c-0.61-0.39-1.29-0.71-1.84-1.17C379.23,320.97,379.41,320.67,379.62,320.74z"/>
			</g>
		</g>
		<g>
			<path class="st5" d="M420.8,339.67c-0.09,0.19,0.19,0.37,0.3,0.17c0.01,0,0.01,0,0.01-0.01c0.04,0.05,0.1,0.11,0.18,0.12
				c4.71,1.02,9.45,2.06,14.25,2.49c3.86,0.34,8.3,0.56,11.68-1.68c4.57-3.03,7.58-11.14,5.11-16.29
				c-2.92-6.12-11.74-2.8-16.16-0.62C429.36,327.16,423.9,332.78,420.8,339.67z"/>
			<g>
				<path class="st1" d="M417.38,342.5c2.59-2.54,5.46-4.65,8.51-6.48c2.09-3.54,5.29-6.48,8.63-8.79c0.17-0.12,0.31,0.15,0.16,0.27
					c-2.88,2.22-5.13,4.82-7.27,7.65c3.4-1.9,7-3.46,10.67-4.85c1.28-2.34,3.36-4.54,5.73-5.74c0.05-0.02,0.11,0.04,0.06,0.08
					c-2.07,1.62-3.73,3.3-5.18,5.43c2.17-0.81,4.36-1.56,6.55-2.29c0.2-0.07,0.27,0.23,0.08,0.31c-3.9,1.52-7.88,3.13-11.74,4.98
					c4.87,0.65,9.26,0.81,14.22-0.04c0.13-0.02,0.19,0.16,0.06,0.2c-4.78,1.37-10.27,1.62-15.09,0.23
					c-2.46,1.21-4.87,2.53-7.16,4.01c1.92-0.25,3.84,0.09,5.78,0.47c3.39,0.67,6.7,1.27,10.16,1.15c0.13,0,0.16,0.21,0.03,0.23
					c-5.9,1.01-11.47-1.67-17.32-0.97c-2.16,1.49-4.21,3.13-6.09,4.97c-3.67,3.6-6.61,7.91-8.88,12.52
					c-2.46,5.01-3.79,10.31-5.78,15.49c-0.09,0.23-0.4,0.14-0.36-0.1C404.87,361.02,409.95,349.77,417.38,342.5z"/>
				<path class="st1" d="M435.16,328.51c0.34-0.7,0.95-1.3,1.51-1.83c0.49-0.46,1.1-1.06,1.74-1.3c0.06-0.02,0.09,0.06,0.06,0.1
					c-0.48,0.55-1.16,0.95-1.68,1.48c-0.53,0.53-0.96,1.15-1.49,1.67C435.23,328.69,435.12,328.6,435.16,328.51z"/>
				<path class="st1" d="M444.89,331.68c0.87-0.22,1.8-0.2,2.69-0.38c0.9-0.18,1.74-0.5,2.61-0.78c0.11-0.04,0.18,0.13,0.08,0.19
					c-1.44,0.85-3.7,1.58-5.38,1.25C444.75,331.93,444.76,331.71,444.89,331.68z"/>
			</g>
		</g>
		<g>
			<g>
				<polygon class="st22" points="393.08,358.65 393.86,367.44 396.48,397.12 419.73,397.12 423.01,367.44 423.98,358.65 				"/>
				<polygon class="st1" points="393.08,358.65 393.86,367.44 423.01,367.44 423.98,358.65 				"/>
			</g>
			
				<rect x="390.78" y="356.26" transform="matrix(-1 -1.224647e-16 1.224647e-16 -1 817.0605 719.6418)" class="st22" width="35.49" height="7.13"/>
		</g>
	</g>
</g>
<g id="Box_2">
	<g>
		<rect x="152.42" y="367.75" class="st5" width="66.84" height="74.02"/>
		<rect x="152.42" y="367.75" class="st23" width="66.84" height="74.02"/>
		<rect x="219.26" y="367.76" class="st5" width="34.51" height="74.02"/>
		<polygon class="st2" points="191.52,383.75 190.1,383.75 189.04,383.75 188.43,382.52 187.58,383.75 186.43,381.22 185.33,383.75 
			182.2,383.75 180.77,383.75 180.26,382.06 179.77,383.75 178.84,383.75 178.84,367.76 191.52,367.76 		"/>
		<g class="st23">
			<path d="M251.4,436.68c-2.56-5.26-5.09-10.54-7.6-15.84l-7.49-15.92l-7.39-15.99c-2.45-5.34-4.88-10.7-7.28-16.07
				c2.56,5.26,5.09,10.54,7.6,15.84l7.49,15.92l7.39,15.99C246.57,425.95,249,431.31,251.4,436.68z"/>
			<path d="M251.4,372.86c-2.4,5.37-4.83,10.73-7.28,16.07l-7.39,15.99l-7.49,15.92c-2.51,5.3-5.04,10.58-7.6,15.84
				c2.4-5.37,4.83-10.73,7.28-16.07l7.39-15.99l7.49-15.92C246.31,383.4,248.85,378.12,251.4,372.86z"/>
		</g>
		<g>
			<g>
				<polygon class="st5" points="141.33,383.77 208.16,383.77 219.26,367.75 152.42,367.75 				"/>
			</g>
			<g class="st25">
				<polygon points="141.33,383.77 208.16,383.77 219.26,367.75 152.42,367.75 				"/>
			</g>
		</g>
		<g>
			<polygon class="st5" points="230.35,383.77 264.76,383.77 253.67,367.76 219.26,367.76 			"/>
			<polygon class="st23" points="230.35,383.77 264.76,383.77 253.67,367.76 219.26,367.76 			"/>
		</g>
	</g>
</g>
<g id="Box_1">
	<g>
		<rect x="55.56" y="385.04" class="st5" width="51.24" height="56.74"/>
		<rect x="55.56" y="385.04" class="st23" width="51.24" height="56.74"/>
		<rect x="106.79" y="385.04" class="st5" width="26.46" height="56.74"/>
		<polygon class="st2" points="85.52,397.3 84.44,397.3 83.62,397.3 83.16,396.36 82.5,397.3 81.62,395.36 80.78,397.3 78.38,397.3 
			77.29,397.3 76.89,396.01 76.52,397.3 75.81,397.3 75.81,385.04 85.52,385.04 		"/>
		<g class="st23">
			<path d="M131.42,437.87c-1.96-4.03-3.9-8.08-5.82-12.14l-5.74-12.2l-5.67-12.26c-1.88-4.09-3.74-8.2-5.58-12.32
				c1.96,4.03,3.9,8.08,5.82,12.14l5.74,12.2l5.67,12.26C127.72,429.65,129.58,433.75,131.42,437.87z"/>
			<path d="M131.42,388.95c-1.84,4.12-3.7,8.23-5.58,12.32l-5.67,12.26l-5.74,12.2c-1.92,4.06-3.87,8.11-5.82,12.14
				c1.84-4.12,3.7-8.23,5.58-12.32l5.67-12.26l5.74-12.2C127.52,397.03,129.46,392.99,131.42,388.95z"/>
		</g>
		<g>
			<g>
				<polygon class="st5" points="47.05,397.31 98.28,397.31 106.78,385.04 55.56,385.04 				"/>
			</g>
			<g class="st25">
				<polygon points="47.05,397.31 98.28,397.31 106.78,385.04 55.56,385.04 				"/>
			</g>
		</g>
		<g>
			<polygon class="st5" points="115.29,397.32 141.67,397.32 133.16,385.04 106.78,385.04 			"/>
			<polygon class="st23" points="115.29,397.32 141.67,397.32 133.16,385.04 106.78,385.04 			"/>
		</g>
	</g>
</g>
<g id="Speech_Bubble">
	<g>
		<g>
			<path class="st2" d="M378.11,54.19c-1.12,10.73-10.74,18.53-21.47,17.41c-4.34-0.45-8.19-2.3-11.18-5.04l-9.78,1.44l4.89-8.45
				c-1.19-2.89-1.69-6.1-1.34-9.41c1.12-10.73,10.74-18.53,21.47-17.41C371.44,33.84,379.24,43.46,378.11,54.19z"/>
			<path class="st1" d="M378.11,54.19c-0.41,3.57-1.71,7.07-3.94,9.91c-0.51,0.74-1.17,1.37-1.77,2.04
				c-0.68,0.59-1.31,1.24-2.06,1.75c-1.43,1.1-3.04,1.96-4.71,2.62c-1.67,0.7-3.47,1.04-5.26,1.25c-0.9,0.05-1.81,0.13-2.72,0.05
				c-0.91-0.02-1.81-0.12-2.7-0.28c-3.58-0.65-6.96-2.32-9.67-4.77l0.23,0.07l-9.77,1.5l-0.71,0.11l0.36-0.62l4.86-8.47l-0.02,0.33
				c-2.37-5.58-1.84-12.22,1.2-17.42c1.51-2.6,3.63-4.85,6.12-6.52c2.49-1.68,5.38-2.73,8.34-3.13c2.96-0.39,6.01-0.12,8.84,0.82
				c2.82,0.95,5.41,2.55,7.54,4.62C376.58,42.15,378.75,48.31,378.11,54.19z M378.11,54.19c0.59-5.89-1.62-12.01-5.93-16.05
				c-2.14-2.02-4.74-3.56-7.54-4.45c-2.8-0.88-5.8-1.09-8.69-0.65c-2.89,0.44-5.68,1.52-8.07,3.19c-2.38,1.67-4.39,3.86-5.85,6.38
				c-1.48,2.51-2.25,5.38-2.48,8.27c-0.18,2.9,0.29,5.83,1.38,8.51l0.07,0.17l-0.09,0.16l-4.92,8.44l-0.35-0.52l9.79-1.37l0.14-0.02
				l0.1,0.09c2.59,2.43,5.86,4.12,9.36,4.82c0.87,0.18,1.76,0.29,2.65,0.32c0.89,0.09,1.78,0.03,2.67,0
				c1.77-0.18,3.55-0.48,5.22-1.15c1.67-0.63,3.29-1.45,4.71-2.54c0.75-0.5,1.38-1.14,2.06-1.72c0.6-0.67,1.26-1.28,1.78-2.02
				C376.35,61.24,377.68,57.76,378.11,54.19z"/>
		</g>
		<polygon class="st5" points="356.39,63.3 348.04,54.85 350.84,52.08 355.72,57.02 365.85,41.14 369.17,43.26 		"/>
	</g>
</g>
</svg>
