<svg xmlns="http://www.w3.org/2000/svg" xmlns:xlink="http://www.w3.org/1999/xlink" viewBox="0 0 2765.17 2774.21"><defs><style>.cls-1{isolation:isolate;}.cls-2{fill:#eff4f2;}.cls-3{fill:#91faad;}.cls-4{fill:#bdfbe6;}.cls-5{fill:url(#linear-gradient);}.cls-6{fill:url(#linear-gradient-2);}.cls-7{fill:url(#linear-gradient-3);}.cls-8{fill:url(#linear-gradient-4);}.cls-9{fill:url(#linear-gradient-5);}.cls-10{fill:url(#linear-gradient-6);}.cls-11,.cls-13,.cls-15{fill:#fff;}.cls-11,.cls-12{opacity:0.57;}.cls-14{fill:url(#linear-gradient-7);}.cls-15{opacity:0.2;}.cls-16{fill:url(#linear-gradient-8);}.cls-17{fill:url(#linear-gradient-9);}.cls-18{fill:url(#linear-gradient-10);}.cls-19{fill:url(#linear-gradient-11);}.cls-20{fill:url(#linear-gradient-12);}.cls-21{fill:url(#linear-gradient-13);}.cls-22{fill:url(#linear-gradient-14);}.cls-23{fill:url(#linear-gradient-15);}.cls-24{fill:url(#linear-gradient-16);}.cls-25{fill:url(#linear-gradient-17);}.cls-26{fill:url(#linear-gradient-18);}.cls-27,.cls-28,.cls-29{opacity:0.63;}.cls-27{fill:url(#linear-gradient-19);}.cls-28{fill:url(#linear-gradient-20);}.cls-29{fill:url(#linear-gradient-21);}.cls-30{fill:url(#linear-gradient-22);}.cls-31{fill:url(#linear-gradient-23);}.cls-32{fill:url(#linear-gradient-24);}.cls-33{fill:url(#linear-gradient-25);}.cls-34{fill:#151918;}.cls-35{fill:url(#linear-gradient-26);}.cls-36{fill:url(#linear-gradient-27);}.cls-37{fill:url(#linear-gradient-28);}.cls-38{fill:url(#linear-gradient-29);}.cls-39{fill:url(#linear-gradient-30);}.cls-40{fill:url(#linear-gradient-31);}.cls-41{fill:url(#linear-gradient-32);}.cls-42{fill:url(#linear-gradient-33);}.cls-43{fill:url(#linear-gradient-34);}.cls-44{fill:url(#linear-gradient-35);}.cls-45{fill:url(#linear-gradient-36);}.cls-46{fill:url(#linear-gradient-37);}.cls-47{fill:url(#linear-gradient-38);}.cls-48{fill:url(#linear-gradient-39);}.cls-49{fill:url(#linear-gradient-40);}.cls-50{fill:url(#linear-gradient-41);}.cls-51{fill:url(#linear-gradient-42);}.cls-52,.cls-58,.cls-64,.cls-70{opacity:0.3;mix-blend-mode:multiply;}.cls-52{fill:url(#linear-gradient-43);}.cls-53{fill:url(#linear-gradient-44);}.cls-54{fill:url(#linear-gradient-45);}.cls-55{fill:url(#linear-gradient-46);}.cls-56{fill:url(#linear-gradient-47);}.cls-57{fill:url(#linear-gradient-48);}.cls-58{fill:url(#linear-gradient-49);}.cls-59{fill:url(#linear-gradient-50);}.cls-60{fill:url(#linear-gradient-51);}.cls-61{fill:url(#linear-gradient-52);}.cls-62{fill:url(#linear-gradient-53);}.cls-63{fill:url(#linear-gradient-54);}.cls-64{fill:url(#linear-gradient-55);}.cls-65{fill:url(#linear-gradient-56);}.cls-66{fill:url(#linear-gradient-57);}.cls-67{fill:url(#linear-gradient-58);}.cls-68{fill:url(#linear-gradient-59);}.cls-69{fill:url(#linear-gradient-60);}.cls-70{fill:url(#linear-gradient-61);}</style><linearGradient id="linear-gradient" x1="-3120.6" y1="463.73" x2="-4412.09" y2="1467.64" gradientTransform="matrix(-0.96, -0.28, -0.28, 0.96, -2247.19, -185.54)" gradientUnits="userSpaceOnUse"><stop offset="0" stop-color="#dae3fe"/><stop offset="1" stop-color="#e9effd"/></linearGradient><linearGradient id="linear-gradient-2" x1="2147.8" y1="953.77" x2="262.35" y2="3964.41" gradientTransform="translate(163.01 9.18) rotate(2.03)" gradientUnits="userSpaceOnUse"><stop offset="0" stop-color="#139167"/><stop offset="1" stop-color="#00bf86"/></linearGradient><linearGradient id="linear-gradient-3" x1="2618.77" y1="498.49" x2="-280.16" y2="4696.93" gradientUnits="userSpaceOnUse"><stop offset="0" stop-color="#4fffdc"/><stop offset="1" stop-color="#40e296"/></linearGradient><linearGradient id="linear-gradient-4" x1="1288.97" y1="3265.56" x2="647.26" y2="4109.72" gradientTransform="translate(686.72 -2962.68) rotate(1.52)" xlink:href="#linear-gradient-2"/><linearGradient id="linear-gradient-5" x1="1359.36" y1="3319.06" x2="717.65" y2="4163.23" gradientTransform="translate(686.72 -2962.68) rotate(1.52)" xlink:href="#linear-gradient-2"/><linearGradient id="linear-gradient-6" x1="1278.5" y1="3370.7" x2="835.4" y2="4184.31" gradientTransform="translate(686.72 -2962.68) rotate(1.52)" xlink:href="#linear-gradient-2"/><linearGradient id="linear-gradient-7" x1="1881.29" y1="2527.63" x2="3067.13" y2="2527.63" gradientTransform="matrix(1, 0, 0, 1, 0, 0)" xlink:href="#linear-gradient-2"/><linearGradient id="linear-gradient-8" x1="1776.35" y1="2731.81" x2="2571.5" y2="1966.29" xlink:href="#linear-gradient-3"/><linearGradient id="linear-gradient-9" x1="1907.64" y1="2868.18" x2="2702.79" y2="2102.66" xlink:href="#linear-gradient-3"/><linearGradient id="linear-gradient-10" x1="2033.88" y1="2999.3" x2="2829.03" y2="2233.78" xlink:href="#linear-gradient-3"/><linearGradient id="linear-gradient-11" x1="3498.55" y1="1766.73" x2="2985.46" y2="2333.13" gradientUnits="userSpaceOnUse"><stop offset="0" stop-color="#ff928e"/><stop offset="1" stop-color="#fe7062"/></linearGradient><linearGradient id="linear-gradient-12" x1="1870.76" y1="2829.87" x2="2665.91" y2="2064.36" xlink:href="#linear-gradient-3"/><linearGradient id="linear-gradient-13" x1="2002.05" y1="2966.24" x2="2797.2" y2="2200.72" xlink:href="#linear-gradient-3"/><linearGradient id="linear-gradient-14" x1="2128.29" y1="3097.36" x2="2923.44" y2="2331.85" xlink:href="#linear-gradient-3"/><linearGradient id="linear-gradient-15" x1="2259.57" y1="3233.73" x2="3054.72" y2="2468.22" xlink:href="#linear-gradient-3"/><linearGradient id="linear-gradient-16" x1="1954.37" y1="2916.72" x2="2749.53" y2="2151.2" xlink:href="#linear-gradient-3"/><linearGradient id="linear-gradient-17" x1="2085.66" y1="3053.09" x2="2880.81" y2="2287.57" xlink:href="#linear-gradient-3"/><linearGradient id="linear-gradient-18" x1="2211.9" y1="3184.21" x2="3007.05" y2="2418.7" xlink:href="#linear-gradient-3"/><linearGradient id="linear-gradient-19" x1="2046.16" y1="3012.06" x2="2841.31" y2="2246.54" xlink:href="#linear-gradient-3"/><linearGradient id="linear-gradient-20" x1="2177.45" y1="3148.43" x2="2972.6" y2="2382.91" xlink:href="#linear-gradient-3"/><linearGradient id="linear-gradient-21" x1="2303.68" y1="3279.55" x2="3098.84" y2="2514.04" xlink:href="#linear-gradient-3"/><linearGradient id="linear-gradient-22" x1="7929.76" y1="3078.59" x2="7363.37" y2="3694.66" gradientTransform="translate(-6555.24)" xlink:href="#linear-gradient-2"/><linearGradient id="linear-gradient-23" x1="7745.92" y1="3124.34" x2="7796.23" y2="3124.34" gradientTransform="translate(-6555.24)" gradientUnits="userSpaceOnUse"><stop offset="0" stop-color="#febbba"/><stop offset="1" stop-color="#ff928e"/></linearGradient><linearGradient id="linear-gradient-24" x1="7802.7" y1="2961.77" x2="7236.31" y2="3577.84" gradientTransform="translate(-6555.24)" xlink:href="#linear-gradient-2"/><linearGradient id="linear-gradient-25" x1="7564.6" y1="3121.76" x2="7608.04" y2="3121.76" xlink:href="#linear-gradient-23"/><linearGradient id="linear-gradient-26" x1="1251.9" y1="2000.03" x2="1736.65" y2="1685.19" gradientTransform="matrix(1, 0, 0, 1, 0, 0)" xlink:href="#linear-gradient-23"/><linearGradient id="linear-gradient-27" x1="1279.47" y1="1818.26" x2="1749.25" y2="1568.38" gradientTransform="matrix(1, 0, 0, 1, 0, 0)" xlink:href="#linear-gradient-23"/><linearGradient id="linear-gradient-28" x1="-3202.72" y1="1700.97" x2="-3269.58" y2="1566.09" gradientTransform="matrix(-1, 0, 0, 1, -1579.96, 0)" xlink:href="#linear-gradient-23"/><linearGradient id="linear-gradient-29" x1="7390.52" y1="2175.9" x2="7715.79" y2="2175.9" xlink:href="#linear-gradient-23"/><linearGradient id="linear-gradient-30" x1="7814.19" y1="1944.65" x2="7993.04" y2="2689.86" gradientTransform="translate(-6555.24)" xlink:href="#linear-gradient-2"/><linearGradient id="linear-gradient-31" x1="-109.97" y1="13296.7" x2="21.03" y2="13111.13" gradientTransform="translate(-6555.24)" gradientUnits="userSpaceOnUse"><stop offset="0" stop-color="#53ff87"/><stop offset="1" stop-color="#38f7bf"/></linearGradient><linearGradient id="linear-gradient-32" x1="-101.08" y1="13302.99" x2="29.92" y2="13117.41" xlink:href="#linear-gradient-31"/><linearGradient id="linear-gradient-33" x1="7691.64" y1="2141.8" x2="7792.97" y2="2141.8" xlink:href="#linear-gradient-23"/><linearGradient id="linear-gradient-34" x1="1054.73" y1="2061.1" x2="1174.67" y2="1787.89" gradientTransform="matrix(1, 0, 0, 1, 0, 0)" xlink:href="#linear-gradient-23"/><linearGradient id="linear-gradient-35" x1="296.43" y1="3682.22" x2="248.38" y2="3523.72" gradientTransform="matrix(0.75, -0.67, 0.67, 0.75, -1428.91, -803.17)" xlink:href="#linear-gradient-23"/><linearGradient id="linear-gradient-36" x1="253.08" y1="3406.06" x2="293.27" y2="3635.34" gradientTransform="matrix(0.75, -0.67, 0.67, 0.75, -1428.91, -803.17)" xlink:href="#linear-gradient-2"/><linearGradient id="linear-gradient-37" x1="247.31" y1="3681.48" x2="204.07" y2="3538.88" gradientTransform="matrix(0.75, -0.67, 0.67, 0.75, -1428.91, -803.17)" xlink:href="#linear-gradient-23"/><linearGradient id="linear-gradient-38" x1="2797.94" y1="1654.42" x2="2525.29" y2="1741.92" gradientUnits="userSpaceOnUse"><stop offset="0" stop-color="#fcb148"/><stop offset="0.05" stop-color="#fdba46"/><stop offset="0.14" stop-color="#ffc244"/><stop offset="0.32" stop-color="#ffc444"/><stop offset="0.48" stop-color="#fdb946"/><stop offset="0.78" stop-color="#f99c4d"/><stop offset="0.87" stop-color="#f8924f"/><stop offset="1" stop-color="#f8924f"/></linearGradient><linearGradient id="linear-gradient-39" x1="3018.5" y1="1383.03" x2="2775.09" y2="1920.03" gradientUnits="userSpaceOnUse"><stop offset="0" stop-color="#ffdb44"/><stop offset="1" stop-color="#feef06"/></linearGradient><linearGradient id="linear-gradient-40" x1="2973.72" y1="1950.04" x2="2926.76" y2="1693.47" xlink:href="#linear-gradient-38"/><linearGradient id="linear-gradient-41" x1="2874.15" y1="1534.75" x2="3067.7" y2="1945.62" xlink:href="#linear-gradient-38"/><linearGradient id="linear-gradient-42" x1="2866.44" y1="1446.33" x2="2963.76" y2="1811.09" xlink:href="#linear-gradient-39"/><linearGradient id="linear-gradient-43" x1="2817.2" y1="1561.34" x2="3010.37" y2="1971.38" xlink:href="#linear-gradient-38"/><linearGradient id="linear-gradient-44" x1="2538.42" y1="1660.75" x2="2265.77" y2="1748.25" xlink:href="#linear-gradient-38"/><linearGradient id="linear-gradient-45" x1="2758.98" y1="1389.35" x2="2515.57" y2="1926.36" xlink:href="#linear-gradient-39"/><linearGradient id="linear-gradient-46" x1="2714.21" y1="1956.37" x2="2667.24" y2="1699.8" xlink:href="#linear-gradient-38"/><linearGradient id="linear-gradient-47" x1="2614.63" y1="1541.08" x2="2808.18" y2="1951.95" xlink:href="#linear-gradient-38"/><linearGradient id="linear-gradient-48" x1="2606.92" y1="1452.66" x2="2704.24" y2="1817.42" xlink:href="#linear-gradient-39"/><linearGradient id="linear-gradient-49" x1="2557.69" y1="1567.67" x2="2750.85" y2="1977.71" xlink:href="#linear-gradient-38"/><linearGradient id="linear-gradient-50" x1="2272.58" y1="1657.59" x2="1999.92" y2="1745.09" xlink:href="#linear-gradient-38"/><linearGradient id="linear-gradient-51" x1="2493.14" y1="1386.19" x2="2249.73" y2="1923.19" xlink:href="#linear-gradient-39"/><linearGradient id="linear-gradient-52" x1="2448.36" y1="1953.2" x2="2401.39" y2="1696.63" xlink:href="#linear-gradient-38"/><linearGradient id="linear-gradient-53" x1="2348.78" y1="1537.91" x2="2542.34" y2="1948.79" xlink:href="#linear-gradient-38"/><linearGradient id="linear-gradient-54" x1="2341.07" y1="1449.5" x2="2438.4" y2="1814.25" xlink:href="#linear-gradient-39"/><linearGradient id="linear-gradient-55" x1="2291.84" y1="1564.5" x2="2485" y2="1974.55" xlink:href="#linear-gradient-38"/><linearGradient id="linear-gradient-56" x1="1921.33" y1="1603.51" x2="1567" y2="1717.23" xlink:href="#linear-gradient-38"/><linearGradient id="linear-gradient-57" x1="2207.96" y1="1250.82" x2="1891.64" y2="1948.68" xlink:href="#linear-gradient-39"/><linearGradient id="linear-gradient-58" x1="2149.77" y1="1987.68" x2="2088.74" y2="1654.25" xlink:href="#linear-gradient-38"/><linearGradient id="linear-gradient-59" x1="2020.37" y1="1447.99" x2="2271.9" y2="1981.94" xlink:href="#linear-gradient-38"/><linearGradient id="linear-gradient-60" x1="2010.35" y1="1333.09" x2="2136.82" y2="1807.11" xlink:href="#linear-gradient-39"/><linearGradient id="linear-gradient-61" x1="1946.37" y1="1482.54" x2="2197.39" y2="2015.42" xlink:href="#linear-gradient-38"/></defs><title>red</title><g class="cls-1"><g id="Illustration"><path class="cls-2" d="M3121.65,2336c-280.12,654.75-1019.56,936-1598.91,888-158.19-13.09-476.47-39.43-725-274.44C320.5,2498.21,394,1554.82,850.87,999.4,909.71,927.87,1317,448.65,1951.58,455.06c464.64,4.7,790.76,267.17,830.41,299.87,50.1,41.3,160.59,139.46,260.17,295.18C3276.13,1416,3296.7,1926.79,3121.65,2336Z" transform="translate(-472.41 -455)"/><path class="cls-3" d="M1043,1629.4s6-252.59-110.33-320.19S595.09,1199.34,586.8,836.64C581.94,624.31,576.69,531.47,573.17,491a23.91,23.91,0,0,1,28.23-25.61c110.19,20.76,468.13,106.2,543.17,350.51C1233.54,1105.52,1043,1629.4,1043,1629.4Z" transform="translate(-472.41 -455)"/><path class="cls-4" d="M686.62,566.3C807.56,674.17,947.42,865.07,1022,1056c9.57,31.46,37.56,98.37,49.71,217.25,10.86,99.14,5.46,203.91-7.7,273.26a8.08,8.08,0,0,1-9.44,6.44c-7.54-1.43-6.54-9.54-6.47-9.29,15-118.49,8.79-266-25.66-399-44-163.4-142.17-321.81-243.69-456.17l-10.45-13.23c-78.66-101-95.22-101.76-87.87-108.8A4.6,4.6,0,0,1,686.62,566.3Z" transform="translate(-472.41 -455)"/><path class="cls-4" d="M912.18,2119.1c12.93,11.83-87-233.29-45.09-560.08,19.74-154,73.41-338.45,10.39-434C825,1045.42,576.69,1013.26,494.86,1004.7a12.14,12.14,0,0,0-11.39,18.8c28.09,42.19,86.18,139.31,85.17,219.76-1.33,106,73.61,195.66,152.11,237s120.11,71.26,121.69,216.59S875.41,2085.49,912.18,2119.1Z" transform="translate(-472.41 -455)"/><path class="cls-5" d="M592,1078.1c97.89,33.17,191,109.52,220.2,210.13l2.73,9.58c6.21,22.42,33.42,176.83,37.73,299.49a2.77,2.77,0,0,1-2.67,2.87,2.82,2.82,0,0,1-2.86-2.57c-7.32-70.72-20.94-161.66-32.93-230.19-12.53-74.62-21.73-125.36-81.54-188.89-67-69.19-142.43-96.37-142.21-96.25a2.23,2.23,0,0,1,1.55-4.17Z" transform="translate(-472.41 -455)"/><path class="cls-6" d="M936.48,795l1394.71,37a144.54,144.54,0,0,1,140.67,141l49.38,2024.8A106.58,106.58,0,0,1,2413.79,3107l-1599.28-13.3a101.17,101.17,0,0,1-100.3-103.85L768.13,954.71A164.07,164.07,0,0,1,936.48,795Z" transform="translate(-472.41 -455)"/><path class="cls-4" d="M1049.15,3065H1049l-178.8-7.06c-59.52-2.34-106.66-52.7-105.09-112.24l7.16-270.06a3.33,3.33,0,0,1,3.33-3.24h.09a3.33,3.33,0,0,1,3.24,3.42l-7.15,270c-1.49,55.92,42.78,103.21,98.68,105.42l178.8,7.05a3.33,3.33,0,0,1-.12,6.66Z" transform="translate(-472.41 -455)"/><path class="cls-4" d="M777.83,2595.39h-.09a3.34,3.34,0,0,1-3.25-3.42l1.16-43.73a3.37,3.37,0,0,1,3.42-3.24,3.34,3.34,0,0,1,3.25,3.42l-1.16,43.73A3.33,3.33,0,0,1,777.83,2595.39Z" transform="translate(-472.41 -455)"/><path class="cls-7" d="M941.2,778.77C1131,809.64,1783.81,906.88,2326.41,879.66a44.06,44.06,0,0,1,46.34,42.8l54.13,2034a50.7,50.7,0,0,1-49,52.05c-228.1,7.44-1167.4,34.69-1501-9.21a40.18,40.18,0,0,1-34.88-40.7l44-2133.7A47.65,47.65,0,0,1,941.2,778.77Z" transform="translate(-472.41 -455)"/><path class="cls-4" d="M994,885.07c177,28.79,785.74,119.46,1291.72,94.08a41.1,41.1,0,0,1,43.21,39.91l50.48,1896.67a47.29,47.29,0,0,1-45.73,48.54c-212.71,6.94-1088.61,32.35-1399.71-8.59a37.45,37.45,0,0,1-32.53-37.95L942.42,928A44.44,44.44,0,0,1,994,885.07Z" transform="translate(-472.41 -455)"/><path class="cls-8" d="M1727.64,540.11c-49.45-36.38-93.27-36.84-124.35-28.56a61.53,61.53,0,0,0-45.4,63.51l9.45,145.5,157.88,18.24S1824.62,611.47,1727.64,540.11ZM1655,655.37a39.47,39.47,0,1,1,40.5-38.41A39.46,39.46,0,0,1,1655,655.37Z" transform="translate(-472.41 -455)"/><path class="cls-4" d="M1582,663.39a7.83,7.83,0,0,1-4.94-6.78l-1.5-23.18a7.84,7.84,0,0,1,15.64-1l1.51,23.18a7.83,7.83,0,0,1-7.32,8.32A7.68,7.68,0,0,1,1582,663.39ZM1579,618a7.82,7.82,0,0,1-4.94-6.78L1573,593.6A62.76,62.76,0,0,1,1619.19,529a122.32,122.32,0,0,1,59.85-.87,7.84,7.84,0,1,1-3.56,15.27,106.8,106.8,0,0,0-52.25.75,47,47,0,0,0-34.62,48.48l1.14,17.6a7.83,7.83,0,0,1-7.31,8.32A7.7,7.7,0,0,1,1579,618Z" transform="translate(-472.41 -455)"/><path class="cls-9" d="M1348.88,808.64l1.93-73a44.55,44.55,0,0,1,47.24-43.29L1900.75,723a43.32,43.32,0,0,1,40.67,41.8l2.35,70.23Z" transform="translate(-472.41 -455)"/><path class="cls-4" d="M1517.34,719.24l21.64.57Z" transform="translate(-472.41 -455)"/><path class="cls-4" d="M1373.93,789.92a7.84,7.84,0,0,1-4.94-7.5l.78-29.52a45.41,45.41,0,0,1,46.59-44.19l79.55,2.11a7.85,7.85,0,0,1-.42,15.69l-79.55-2.12a29.77,29.77,0,0,0-30.5,28.93l-.78,29.52a7.84,7.84,0,0,1-8.05,7.63A8,8,0,0,1,1373.93,789.92Z" transform="translate(-472.41 -455)"/><path class="cls-10" d="M1191.93,777.76l879.86,23.29a65.06,65.06,0,0,1,62.66,55.63l.63,4.33a55.87,55.87,0,0,1-56.77,63.91L1175.63,901a36.34,36.34,0,0,1-35.27-39l3-40.35A47.42,47.42,0,0,1,1191.93,777.76Z" transform="translate(-472.41 -455)"/><path class="cls-11" d="M2280.09,2721.45c-.15,15-10.39,27.22-22.9,27.27l-1229.58,4.69c-13.75.05-24.89-12.68-24.87-28.45v-2.38c0-15.77,11.2-28.57,25-28.6l1230-1.95c12.5,0,22.52,12.14,22.37,27.15Z" transform="translate(-472.41 -455)"/><path class="cls-11" d="M2280.09,2849.2c-.15,15-10.39,27.22-22.9,27.27l-1229.58,4.69c-13.75.05-24.89-12.68-24.87-28.45v-2.38c0-15.77,11.2-28.57,25-28.6l1230-1.95c12.5,0,22.52,12.14,22.37,27.15Z" transform="translate(-472.41 -455)"/><path class="cls-11" d="M2284.8,1802.72c-.15,15-10.39,27.22-22.9,27.27l-1229.58,4.69c-13.75,0-24.89-12.69-24.87-28.45v-2.39c0-15.76,11.2-28.57,25-28.59l1230-2c12.5,0,22.51,12.14,22.37,27.16Z" transform="translate(-472.41 -455)"/><path class="cls-11" d="M2284.8,1930.47c-.15,15-10.39,27.22-22.9,27.27l-1229.58,4.68c-13.75.06-24.89-12.68-24.87-28.44v-2.39c0-15.77,11.2-28.57,25-28.59l1230-2c12.5,0,22.51,12.14,22.37,27.16Z" transform="translate(-472.41 -455)"/><path class="cls-11" d="M2258.57,2248.22c-.15,15-5,27.27-10.89,27.39l-577.5,11c-6.46.13-11.62-12.55-11.53-28.31v-2.39c.09-15.76,5.41-28.62,11.87-28.72l577.69-8.31c5.88-.08,10.52,12,10.37,27Z" transform="translate(-472.41 -455)"/><path class="cls-11" d="M2259.56,2374.59c-.15,15-5,27.28-10.89,27.39l-577.5,11c-6.46.12-11.62-12.56-11.53-28.32v-2.39c.09-15.76,5.41-28.62,11.87-28.72l577.69-8.31c5.88-.08,10.52,12,10.37,27Z" transform="translate(-472.41 -455)"/><path class="cls-11" d="M2258.9,2492.48c-.15,15-5,27.27-10.89,27.38l-577.5,11c-6.46.12-11.62-12.55-11.53-28.32v-2.38c.09-15.77,5.41-28.63,11.87-28.72l577.69-8.31c5.88-.09,10.52,12,10.37,27Z" transform="translate(-472.41 -455)"/><g class="cls-12"><rect class="cls-13" x="767.63" y="1008.28" width="56.87" height="158.98"/><rect class="cls-13" x="862.66" y="802.54" width="56.87" height="364.72"/><rect class="cls-13" x="957.68" y="1079.64" width="56.87" height="87.62"/><rect class="cls-13" x="1052.71" y="851.3" width="56.87" height="315.96"/><rect class="cls-13" x="1147.73" y="906" width="56.87" height="261.25"/><rect class="cls-13" x="1242.76" y="965.47" width="56.87" height="201.79"/><rect class="cls-13" x="1337.78" y="728.8" width="56.87" height="438.46"/><rect class="cls-13" x="1432.81" y="775.18" width="56.87" height="392.08"/><rect class="cls-13" x="1527.83" y="845.35" width="56.87" height="321.91"/><rect class="cls-13" x="1622.86" y="1087.77" width="56.87" height="79.49"/><rect class="cls-13" x="1717.88" y="933.36" width="56.87" height="233.9"/></g><rect class="cls-11" x="543.98" y="1642.21" width="563.24" height="485.13" rx="17"/><rect class="cls-11" x="531.61" y="695.91" width="178.35" height="477.92" rx="10.21"/><path class="cls-14" d="M1900.69,1899.25c-6.24,223-26.49,992.06-16.83,1264.6,1,28.88,27.17,52.05,59.78,53,161.3,4.67,752.61,16.51,1016.44,6.71,55-2,98.65-41.44,99.79-90.13,5.49-234,17.58-892.27-11.17-1193.81-3.44-36.13-35.47-64.9-76.22-68.51-175.67-15.55-769.52-53.58-997.45-40.49C1933.92,1833,1901.71,1862.79,1900.69,1899.25Z" transform="translate(-472.41 -455)"/><rect class="cls-3" x="1474.6" y="1476.95" width="1034" height="320.17" rx="65.61"/><path class="cls-15" d="M2935,1996.48a43.19,43.19,0,0,0-30.39-13.18l-844.75-13.42a43.25,43.25,0,0,0-43.75,39.21l-17.55,187.41c-1.44,15.34,23.81,28.26,56,28.65L2885,2235.22c32.13.39,58.7-11.87,59-27.21l3.13-180.72A43.23,43.23,0,0,0,2935,1996.48Z" transform="translate(-472.41 -455)"/><path class="cls-16" d="M2172.71,2443.7a60.35,60.35,0,0,1-60.36,60.36h-73.48a60.35,60.35,0,0,1-60.36-60.36h0a60.36,60.36,0,0,1,60.36-60.36h73.48a60.36,60.36,0,0,1,60.36,60.36Z" transform="translate(-472.41 -455)"/><path class="cls-17" d="M2445.65,2443.7a60.36,60.36,0,0,1-60.36,60.36H2311.8a60.36,60.36,0,0,1-60.36-60.36h0a60.37,60.37,0,0,1,60.36-60.36h73.49a60.37,60.37,0,0,1,60.36,60.36Z" transform="translate(-472.41 -455)"/><path class="cls-18" d="M2708.09,2443.7a60.36,60.36,0,0,1-60.37,60.36h-73.48a60.36,60.36,0,0,1-60.36-60.36h0a60.37,60.37,0,0,1,60.36-60.36h73.48a60.37,60.37,0,0,1,60.37,60.36Z" transform="translate(-472.41 -455)"/><path class="cls-19" d="M2974.12,2452.56a61.34,61.34,0,0,1-61.34,61.34h-71a61.34,61.34,0,0,1-61.34-61.34h0a61.33,61.33,0,0,1,61.34-61.33h71a61.33,61.33,0,0,1,61.34,61.33Z" transform="translate(-472.41 -455)"/><path class="cls-20" d="M2172.71,2632.66a60.36,60.36,0,0,1-60.36,60.36h-73.48a60.36,60.36,0,0,1-60.36-60.36h0a60.35,60.35,0,0,1,60.36-60.36h73.48a60.35,60.35,0,0,1,60.36,60.36Z" transform="translate(-472.41 -455)"/><path class="cls-21" d="M2445.65,2632.66a60.37,60.37,0,0,1-60.36,60.36H2311.8a60.37,60.37,0,0,1-60.36-60.36h0a60.36,60.36,0,0,1,60.36-60.36h73.49a60.36,60.36,0,0,1,60.36,60.36Z" transform="translate(-472.41 -455)"/><path class="cls-22" d="M2708.09,2632.66a60.37,60.37,0,0,1-60.37,60.36h-73.48a60.37,60.37,0,0,1-60.36-60.36h0a60.36,60.36,0,0,1,60.36-60.36h73.48a60.36,60.36,0,0,1,60.37,60.36Z" transform="translate(-472.41 -455)"/><path class="cls-23" d="M2981,2632.66a60.36,60.36,0,0,1-60.36,60.36h-73.48a60.36,60.36,0,0,1-60.36-60.36h0a60.35,60.35,0,0,1,60.36-60.36h73.48a60.35,60.35,0,0,1,60.36,60.36Z" transform="translate(-472.41 -455)"/><path class="cls-24" d="M2172.71,2800a60.35,60.35,0,0,1-60.36,60.36h-73.48a60.35,60.35,0,0,1-60.36-60.36h0a60.36,60.36,0,0,1,60.36-60.36h73.48a60.36,60.36,0,0,1,60.36,60.36Z" transform="translate(-472.41 -455)"/><path class="cls-25" d="M2445.65,2800a60.36,60.36,0,0,1-60.36,60.36H2311.8a60.36,60.36,0,0,1-60.36-60.36h0a60.37,60.37,0,0,1,60.36-60.36h73.49a60.37,60.37,0,0,1,60.36,60.36Z" transform="translate(-472.41 -455)"/><path class="cls-26" d="M2708.09,2800a60.36,60.36,0,0,1-60.37,60.36h-73.48a60.36,60.36,0,0,1-60.36-60.36h0a60.37,60.37,0,0,1,60.36-60.36h73.48a60.37,60.37,0,0,1,60.37,60.36Z" transform="translate(-472.41 -455)"/><path class="cls-27" d="M2172.71,2983.71a60.35,60.35,0,0,1-60.36,60.36h-73.48a60.35,60.35,0,0,1-60.36-60.36h0a60.35,60.35,0,0,1,60.36-60.36h73.48a60.35,60.35,0,0,1,60.36,60.36Z" transform="translate(-472.41 -455)"/><path class="cls-28" d="M2445.65,2983.71a60.36,60.36,0,0,1-60.36,60.36H2311.8a60.36,60.36,0,0,1-60.36-60.36h0a60.36,60.36,0,0,1,60.36-60.36h73.49a60.36,60.36,0,0,1,60.36,60.36Z" transform="translate(-472.41 -455)"/><path class="cls-29" d="M2708.09,2983.71a60.36,60.36,0,0,1-60.37,60.36h-73.48a60.36,60.36,0,0,1-60.36-60.36h0a60.36,60.36,0,0,1,60.36-60.36h73.48a60.36,60.36,0,0,1,60.37,60.36Z" transform="translate(-472.41 -455)"/><rect class="cls-3" x="2324.9" y="2301" width="157.46" height="299.18" rx="76.4"/><path class="cls-30" d="M1195.48,3124.48s-5.87,33.21-8.74,66.08a22.65,22.65,0,0,0,21.66,24.54c43.78,1.82,137.41,5.36,171,3.86a7.36,7.36,0,0,0,6.48-10.09,16.45,16.45,0,0,0-8.43-8.89l-154.67-71.08Z" transform="translate(-472.41 -455)"/><path class="cls-31" d="M1190.67,3105l4.72,39.72s27.09,12.61,45.59-1.59l-11.22-44.26Z" transform="translate(-472.41 -455)"/><path class="cls-13" d="M1194.21,2358.24c-2,10.37-10.92,517.61,43.3,744.91a7.73,7.73,0,0,1-4.53,9,134.1,134.1,0,0,1-44.16,9,13.28,13.28,0,0,1-13.18-9.53c-15.5-52.74-89.76-317-99.45-569.4-10.83-282.06,0-9.61,0-9.61l6.35-174.34Z" transform="translate(-472.41 -455)"/><path class="cls-32" d="M1017.56,3141.8s-9.34,16.77-18.38,61.31a13.82,13.82,0,0,0,12.16,16.55c14.46,1.42,36.71,3.25,54.53,3.13a13.78,13.78,0,0,0,13.64-15.37c-2-16.26-8.12-42.94-27.13-63.73Z" transform="translate(-472.41 -455)"/><path class="cls-33" d="M1009.36,3090.72l11,60.06s10.89,8.1,32.43,2.23l-5.26-64.63Z" transform="translate(-472.41 -455)"/><path class="cls-13" d="M979.61,2373.8c-44.34,267.62,9.62,661.45,27.82,738.53a12,12,0,0,0,9.71,9.13c8.12,1.35,21.5,2.45,34.68-1.38a11,11,0,0,0,7.92-10.15c2.44-62.32-2-444.89,39.37-596.08a34.31,34.31,0,0,1,13.24-18.95l80.2-57,6.15-92.16Z" transform="translate(-472.41 -455)"/><path class="cls-34" d="M1262.18,1866.71c-132.9-2.19-279.53,34.89-279.53,34.89-39.61,231.14-6.92,497.74-6.92,497.74,102.88,27,218.93-16.49,218.93-16.49,17.1-96.61,96.89-368.51,96.89-368.51,64.93-8,118.41-26.79,162.46-51.55-33.6-39-49.44-88.51-56.32-117.8C1350.71,1859.59,1303.16,1867.39,1262.18,1866.71Z" transform="translate(-472.41 -455)"/><path class="cls-35" d="M1654.71,1671c-13-15.77-29.57-8.31-29.57-8.31-19.56,82.61-122.1,149.59-227.45,182.33,6.88,29.29,22.72,78.85,56.32,117.8C1628.84,1864.48,1654.71,1671,1654.71,1671Z" transform="translate(-472.41 -455)"/><path class="cls-36" d="M1651.55,1675c1.36,4.34-14.46,11-23.77-6.81-.33-8.51-5.5-45-.42-51.91C1654.45,1579.33,1707,1533,1707,1533c8.88,8.76,1.57,17.36,1.57,17.36l-25.48,26.55c5.33,9.63,11.83,17.76,14.88,29.4a35.78,35.78,0,0,1-3.56,26.28c-4.48,8.06-10.58,18.53-16.35,26.73C1667.11,1674.86,1651.55,1675,1651.55,1675Z" transform="translate(-472.41 -455)"/><path class="cls-37" d="M1671.92,1594.16l-23.22,19.68-7.29,19.6,20.7,23s7-38.88,12.13-47.3S1676.73,1596.62,1671.92,1594.16Z" transform="translate(-472.41 -455)"/><path class="cls-34" d="M1033.62,2030.28l-51-128.68s-124.13,84.34-144.54,191.28c23.45,1.73,66.13,7.83,107.91,28.92C955.2,2071.31,1033.62,2030.28,1033.62,2030.28Z" transform="translate(-472.41 -455)"/><path class="cls-38" d="M1142.1,2151.37s-139.37,78.76-186.39,11.5c-9.76-14-12.1-27.84-9.69-41.07-41.78-21.09-84.46-27.19-107.91-28.92-6.15,32.24-2.9,66.52,16,101.17,82.37,150.68,306.39-8.32,306.39-8.32Z" transform="translate(-472.41 -455)"/><path class="cls-39" d="M1125.35,2251l76.06-265.62a7.75,7.75,0,0,1,6.56-5.58c13.78-1.61,53.71-6.12,99.81-10,55.54-4.7,120-8.5,158.57-5.27a7.77,7.77,0,0,1,6.35,11.19c-21.91,44.34-112.06,224.69-157.2,283.77a7.8,7.8,0,0,1-6.27,3.08l-176.48-1.64A7.78,7.78,0,0,1,1125.35,2251Z" transform="translate(-472.41 -455)"/><path class="cls-40" d="M1315.67,1946.76l55.15-9.19a4,4,0,0,1,4.41,5.15l-5.46,16.54a4,4,0,0,1-3.24,2.68l-53.06,7.09a4,4,0,0,1-4.38-4.82l3.38-14.45A4,4,0,0,1,1315.67,1946.76Z" transform="translate(-472.41 -455)"/><path class="cls-41" d="M1274.38,1993.45l4.54-23.67a5.49,5.49,0,0,1,4.82-4.41l111.38-11.3a5.47,5.47,0,0,1,5.87,6.72l-7.08,29.49a5.45,5.45,0,0,1-5,4.18L1280,1999.94A5.47,5.47,0,0,1,1274.38,1993.45Z" transform="translate(-472.41 -455)"/><path class="cls-42" d="M1143.73,2186.83s-10.59-43.56-6.32-59,12.55-35.33,40.15-30.91,60.17,16,60.17,16-1.65,20.13-22.63,13.64l13,10.06s-1.86,16.12-19.58,7.51l12.1,13.35s-7.61,13.24-20.64,4.75S1180.7,2192.08,1143.73,2186.83Z" transform="translate(-472.41 -455)"/><path class="cls-43" d="M1127.57,1758.82l-42.29,122.29a4.39,4.39,0,0,0,2,5.3c11.53,6.38,53,24.8,103.1-6.93a20.76,20.76,0,0,0,9.55-14.82l13.69-105.84Z" transform="translate(-472.41 -455)"/><path class="cls-44" d="M1219.57,1645.59s46.43,87.4,40.48,122.71-63.5,32.77-113.75,4.09L1111.19,1678Z" transform="translate(-472.41 -455)"/><path class="cls-45" d="M1148.52,1726.05a3.61,3.61,0,0,0,1.58-5.28c-3.72-5.68-10.7-17.27-12.92-27.42,0,0-8.35-5.35,21.24-12.43s73.73-18.08,83-43.27c9-24.56-14.72-86.32-52.63-37.11a3.59,3.59,0,0,1-5.7,0c-6.22-8.09-22.56-24.88-45.24-14.7-21.23,9.53-23.62,25.08-23.33,32.92a3.58,3.58,0,0,1-4.24,3.67c-10.73-2-36.49-3.81-48.51,22.61-9.9,21.77-3.47,34.09,2.4,40.11a3.59,3.59,0,0,1-1.54,6c-7.05,2.16-16.16,8.14-15.25,24.67,1.26,22.85,26.8,20.83,34.07,19.79a3.6,3.6,0,0,1,3.2,1.13c6.24,6.9,34.33,36.2,64.74,39.73a3.63,3.63,0,0,0,3.81-4.8L1140,1733.42a3.61,3.61,0,0,1,2-4.48Z" transform="translate(-472.41 -455)"/><path class="cls-46" d="M1153.81,1731.48s-33.06-22.69-35.47-3.59,29.77,27.67,45.71,20.55Z" transform="translate(-472.41 -455)"/><path class="cls-47" d="M3111.82,1644.53c0,126.49-98.91,226-225.32,222.1C2755,1862.6,2644.3,1749,2644.3,1613s110.65-234.66,242.2-221C3012.91,1405.21,3111.82,1518,3111.82,1644.53Z" transform="translate(-472.41 -455)"/><path class="cls-48" d="M3146,1633.62c0,126.49-98.91,226-225.32,222.11-131.56-4-242.2-117.66-242.2-253.63s110.64-234.66,242.2-221C3047.07,1394.3,3146,1507.14,3146,1633.62Z" transform="translate(-472.41 -455)"/><path class="cls-49" d="M3136.06,1633c0,120.92-94.64,215.88-215.4,212-125.45-4.06-230.77-112.5-230.77-242S2795.21,1379.1,2920.66,1392C3041.42,1404.32,3136.06,1512,3136.06,1633Z" transform="translate(-472.41 -455)"/><path class="cls-50" d="M3129,1632.48c0,116.92-91.57,208.64-208.29,204.72-121.09-4.07-222.63-108.79-222.63-233.78s101.54-216,222.63-203.75C3037.38,1411.49,3129,1515.55,3129,1632.48Z" transform="translate(-472.41 -455)"/><path class="cls-51" d="M2919.47,1439.45h0a12.72,12.72,0,0,1,11.23,12.49v21.53a314.81,314.81,0,0,1,37.32,6.47q13.77,3.24,27.36,7.7a12.58,12.58,0,0,1,8.57,12.92l-2.64,27a10.12,10.12,0,0,1-14.45,8.39,154.16,154.16,0,0,0-18.35-6.83,166.62,166.62,0,0,0-34.63-6.47l-3.18-.27V1584c32.41,9.06,56.2,21.26,71.58,36.6s22.93,34.29,22.93,57.13q0,37.05-25.36,59.39-25.53,22.48-71.73,25.25v23.77a10.8,10.8,0,0,1-11.25,11h-.19a12,12,0,0,1-11.29-11.92v-23.44l-5-.22a330.68,330.68,0,0,1-41.55-4.43,270.71,270.71,0,0,1-28.72-6.61,12.38,12.38,0,0,1-9-12.79l3.11-34.7c.68-7.51,8.21-11.87,15.35-9.06a223.64,223.64,0,0,0,25.25,8.29,220.87,220.87,0,0,0,40.38,6.75l.2-68.58c-31.1-7.7-54.39-19.1-69.69-34.2s-23.08-34.58-23.08-58.18q0-36.64,25-56.52c16.57-13.16,40.14-19.71,70.54-19.7v-22A10.17,10.17,0,0,1,2919.47,1439.45Zm-11.28,82.3q-14.42,1.05-22.47,7.92t-8.07,18.51a24.85,24.85,0,0,0,7.46,18.39q7.45,7.37,23.08,11.77Zm19.93,124.18v62.9q15.68,0,24.06-7.48t8.37-21.17q0-12.48-7.78-20.7T2928.12,1645.93Z" transform="translate(-472.41 -455)"/><path class="cls-52" d="M2883,1661.11c7-69.51,70.91-98.93,62.58-162.86-5.14-39.41-35-72.62-68.32-98.55C2776.17,1410.3,2698,1494,2698,1603.42c0,125,101.54,229.71,222.63,233.78a211.15,211.15,0,0,0,34.41-1.68C2907,1787.66,2876.92,1720.82,2883,1661.11Z" transform="translate(-472.41 -455)"/><path class="cls-53" d="M2852.3,1650.86c0,126.49-98.9,226-225.31,222.1-131.56-4-242.2-117.65-242.2-253.62s110.64-234.66,242.2-221C2753.4,1411.54,2852.3,1524.37,2852.3,1650.86Z" transform="translate(-472.41 -455)"/><path class="cls-54" d="M2886.46,1640c0,126.49-98.9,226-225.32,222.11-131.55-4-242.2-117.66-242.2-253.63s110.65-234.66,242.2-221C2787.56,1400.63,2886.46,1513.47,2886.46,1640Z" transform="translate(-472.41 -455)"/><path class="cls-55" d="M2876.54,1639.28c0,120.92-94.63,215.88-215.4,212-125.44-4.06-230.77-112.5-230.77-242s105.33-223.78,230.77-210.92C2781.91,1410.65,2876.54,1518.37,2876.54,1639.28Z" transform="translate(-472.41 -455)"/><path class="cls-56" d="M2869.43,1638.81c0,116.92-91.57,208.64-208.29,204.72-121.09-4.07-222.63-108.8-222.63-233.78s101.54-216,222.63-203.75C2777.86,1417.82,2869.43,1521.88,2869.43,1638.81Z" transform="translate(-472.41 -455)"/><path class="cls-57" d="M2660,1445.78h0a12.73,12.73,0,0,1,11.24,12.49v21.53a314.65,314.65,0,0,1,37.31,6.47q13.77,3.24,27.36,7.7a12.6,12.6,0,0,1,8.58,12.92l-2.65,27a10.11,10.11,0,0,1-14.44,8.39,155,155,0,0,0-18.36-6.83,166.37,166.37,0,0,0-34.63-6.47l-3.17-.27v61.66c32.4,9.06,56.19,21.26,71.57,36.6s22.93,34.29,22.93,57.13q0,37.05-25.36,59.39-25.51,22.48-71.72,25.25v23.77a10.81,10.81,0,0,1-11.25,11h-.2a12,12,0,0,1-11.29-11.92v-23.44l-5-.22a330.88,330.88,0,0,1-41.55-4.43,271.1,271.1,0,0,1-28.71-6.61,12.37,12.37,0,0,1-9-12.79l3.11-34.7c.67-7.51,8.21-11.87,15.34-9.06a222.92,222.92,0,0,0,65.63,15l.2-68.58q-46.65-11.55-69.68-34.2t-23.08-58.18q0-36.65,25-56.52,24.87-19.74,70.54-19.7v-22A10.17,10.17,0,0,1,2660,1445.78Zm-11.28,82.3q-14.41,1-22.47,7.92t-8.06,18.51a24.81,24.81,0,0,0,7.46,18.39q7.44,7.36,23.07,11.77Zm19.94,124.18v62.89q15.66,0,24-7.47t8.37-21.17q0-12.48-7.78-20.7T2668.61,1652.26Z" transform="translate(-472.41 -455)"/><path class="cls-58" d="M2623.45,1667.44c7-69.51,70.92-98.93,62.58-162.86-5.14-39.41-35-72.62-68.32-98.55-101.06,10.6-179.2,94.28-179.2,203.72,0,125,101.54,229.71,222.63,233.78a211.15,211.15,0,0,0,34.41-1.68C2647.46,1794,2617.41,1727.15,2623.45,1667.44Z" transform="translate(-472.41 -455)"/><path class="cls-59" d="M2586.46,1647.69c0,126.49-98.91,226-225.32,222.11-131.56-4-242.2-117.66-242.2-253.62s110.64-234.67,242.2-221C2487.55,1408.37,2586.46,1521.21,2586.46,1647.69Z" transform="translate(-472.41 -455)"/><path class="cls-60" d="M2620.61,1636.79c0,126.48-98.9,226-225.31,222.1-131.56-4-242.2-117.66-242.2-253.62s110.64-234.67,242.2-221C2521.71,1397.47,2620.61,1510.3,2620.61,1636.79Z" transform="translate(-472.41 -455)"/><path class="cls-61" d="M2610.69,1636.12c0,120.92-94.63,215.87-215.39,212-125.45-4.06-230.77-112.49-230.77-242s105.32-223.78,230.77-210.93C2516.06,1407.48,2610.69,1515.2,2610.69,1636.12Z" transform="translate(-472.41 -455)"/><path class="cls-62" d="M2603.59,1635.64c0,116.93-91.57,208.64-208.29,204.72-121.09-4.06-222.64-108.79-222.64-233.77s101.55-216,222.64-203.76C2512,1414.65,2603.59,1518.71,2603.59,1635.64Z" transform="translate(-472.41 -455)"/><path class="cls-63" d="M2394.1,1442.61h0a12.72,12.72,0,0,1,11.24,12.49v21.53a318.41,318.41,0,0,1,37.31,6.47q13.79,3.24,27.37,7.71a12.57,12.57,0,0,1,8.57,12.92l-2.64,27a10.12,10.12,0,0,1-14.45,8.4,156.79,156.79,0,0,0-18.36-6.84,166.4,166.4,0,0,0-34.62-6.47l-3.18-.26v61.65q48.6,13.6,71.58,36.6t22.92,57.13q0,37-25.35,59.39-25.53,22.5-71.73,25.26v23.76a10.81,10.81,0,0,1-11.25,11h-.2A11.94,11.94,0,0,1,2380,1788.4V1765l-5-.23a329.19,329.19,0,0,1-41.56-4.43,268.63,268.63,0,0,1-28.71-6.6,12.38,12.38,0,0,1-9-12.8l3.11-34.7c.67-7.5,8.21-11.87,15.34-9a226.51,226.51,0,0,0,25.26,8.29,220.85,220.85,0,0,0,40.38,6.74l.2-68.58q-46.67-11.53-69.69-34.19t-23.08-58.19q0-36.63,25-56.51,24.87-19.76,70.55-19.7v-22A10.16,10.16,0,0,1,2394.1,1442.61Zm-11.27,82.3q-14.43,1-22.48,7.92t-8.06,18.51a24.83,24.83,0,0,0,7.46,18.39q7.44,7.38,23.08,11.78Zm19.93,124.19V1712q15.67,0,24-7.48t8.38-21.17q0-12.46-7.78-20.7T2402.76,1649.1Z" transform="translate(-472.41 -455)"/><path class="cls-64" d="M2357.61,1664.27c7-69.5,70.91-98.93,62.58-162.86-5.14-39.4-35-72.61-68.33-98.54-101.05,10.6-179.2,94.27-179.2,203.72,0,125,101.55,229.71,222.64,233.77a208.76,208.76,0,0,0,34.4-1.68C2381.61,1790.83,2351.56,1724,2357.61,1664.27Z" transform="translate(-472.41 -455)"/><path class="cls-65" d="M2329.24,1590.66c0,164.37-128.54,293.68-292.82,288.63-171-5.25-314.75-152.9-314.75-329.59s143.79-305,314.75-287.16C2200.7,1279.64,2329.24,1426.28,2329.24,1590.66Z" transform="translate(-472.41 -455)"/><path class="cls-66" d="M2373.63,1576.48c0,164.38-128.54,293.69-292.81,288.64-171-5.25-314.76-152.9-314.76-329.6s143.79-305,314.76-287.16C2245.09,1265.47,2373.63,1412.11,2373.63,1576.48Z" transform="translate(-472.41 -455)"/><path class="cls-67" d="M2360.73,1575.61c0,157.14-123,280.55-279.91,275.46-163-5.28-299.91-146.19-299.91-314.55s136.88-290.81,299.91-274.11C2237.75,1278.49,2360.73,1418.48,2360.73,1575.61Z" transform="translate(-472.41 -455)"/><path class="cls-68" d="M2351.5,1575c0,152-119,271.14-270.68,266-157.37-5.28-289.33-141.38-289.33-303.8s132-280.73,289.33-264.79C2232.5,1287.81,2351.5,1423,2351.5,1575Z" transform="translate(-472.41 -455)"/><path class="cls-69" d="M2079.26,1324.14h0a16.55,16.55,0,0,1,14.61,16.23v28a411.31,411.31,0,0,1,48.48,8.41q17.91,4.2,35.57,10a16.37,16.37,0,0,1,11.14,16.79l-3.44,35.09a13.15,13.15,0,0,1-18.77,10.91,203.34,203.34,0,0,0-23.86-8.89,216.46,216.46,0,0,0-45-8.41l-4.12-.34V1512q63.15,17.67,93,47.57,29.84,29.75,29.8,74.24,0,48.15-33,77.18-33.16,29.23-93.21,32.82v30.88a14.05,14.05,0,0,1-14.62,14.27h-.25a15.52,15.52,0,0,1-14.67-15.48v-30.46l-6.51-.3a428.17,428.17,0,0,1-54-5.75,351.51,351.51,0,0,1-37.32-8.59,16.08,16.08,0,0,1-11.71-16.62l4-45.1c.87-9.75,10.66-15.42,19.93-11.77a291.94,291.94,0,0,0,32.82,10.78,287.18,287.18,0,0,0,52.48,8.76l.26-89.12q-60.63-15-90.56-44.44t-30-75.61q0-47.62,32.52-73.45c21.54-17.11,52.17-25.62,91.68-25.6v-28.6A13.21,13.21,0,0,1,2079.26,1324.14Zm-14.65,106.95q-18.74,1.37-29.21,10.3t-10.48,24q0,14.3,9.7,23.9t30,15.3Zm25.9,161.39v81.73q20.37,0,31.26-9.71t10.88-27.52q0-16.21-10.11-26.9T2090.51,1592.48Z" transform="translate(-472.41 -455)"/><path class="cls-70" d="M2031.83,1612.2c9.15-90.32,92.16-128.56,81.33-211.65-6.68-51.21-45.49-94.36-88.79-128.06C1893,1286.26,1791.49,1395,1791.49,1537.24c0,162.42,132,298.52,289.32,303.8a273.76,273.76,0,0,0,44.72-2.18C2063,1776.67,2024,1689.8,2031.83,1612.2Z" transform="translate(-472.41 -455)"/></g></g></svg>