<svg xmlns="http://www.w3.org/2000/svg" xmlns:xlink="http://www.w3.org/1999/xlink" viewBox="0 0 2835.25 2800"><defs><style>.cls-1{fill:url(#linear-gradient);}.cls-2{fill:#d8dee8;}.cls-3{fill:none;}.cls-4{isolation:isolate;}.cls-5{fill:#f4f7fa;}.cls-6{clip-path:url(#clip-path);}.cls-7{opacity:0.7;mix-blend-mode:soft-light;}.cls-8{fill:#fff;}.cls-9{clip-path:url(#clip-path-2);}.cls-10{clip-path:url(#clip-path-3);}.cls-11{fill:url(#linear-gradient-3);}.cls-12{fill:url(#linear-gradient-4);}.cls-13{fill:url(#linear-gradient-5);}.cls-14{fill:url(#linear-gradient-6);}.cls-15{fill:url(#linear-gradient-7);}.cls-16{fill:url(#linear-gradient-8);}.cls-17,.cls-30{opacity:0.2;}.cls-17,.cls-19,.cls-30,.cls-36,.cls-42,.cls-51{mix-blend-mode:multiply;}.cls-17{fill:url(#linear-gradient-9);}.cls-18,.cls-19{fill:#bfc8d6;}.cls-19{opacity:0.4;}.cls-20{fill:url(#linear-gradient-10);}.cls-21{fill:url(#linear-gradient-11);}.cls-22{fill:url(#linear-gradient-12);}.cls-23{clip-path:url(#clip-path-4);}.cls-24{fill:url(#linear-gradient-13);}.cls-25{fill:url(#linear-gradient-14);}.cls-26{fill:url(#linear-gradient-15);}.cls-27{fill:url(#linear-gradient-16);}.cls-28{fill:url(#linear-gradient-17);}.cls-29{fill:url(#linear-gradient-18);}.cls-30{fill:url(#linear-gradient-19);}.cls-31{fill:url(#linear-gradient-20);}.cls-32{fill:url(#linear-gradient-21);}.cls-33{fill:url(#linear-gradient-22);}.cls-34{fill:url(#linear-gradient-23);}.cls-35{fill:url(#linear-gradient-24);}.cls-36,.cls-42,.cls-51{opacity:0.3;}.cls-36{fill:url(#linear-gradient-25);}.cls-37{fill:url(#linear-gradient-26);}.cls-38{fill:url(#linear-gradient-27);}.cls-39{fill:url(#linear-gradient-28);}.cls-40{fill:url(#linear-gradient-29);}.cls-41{fill:url(#linear-gradient-30);}.cls-42{fill:url(#linear-gradient-31);}.cls-43{fill:url(#linear-gradient-32);}.cls-44{fill:url(#linear-gradient-33);}.cls-45{fill:url(#linear-gradient-34);}.cls-46{fill:url(#linear-gradient-35);}.cls-47{fill:url(#linear-gradient-36);}.cls-48{fill:url(#linear-gradient-37);}.cls-49{fill:url(#linear-gradient-38);}.cls-50{fill:url(#linear-gradient-39);}.cls-51{fill:url(#linear-gradient-40);}.cls-52{fill:url(#linear-gradient-41);}.cls-53{fill:url(#linear-gradient-42);}.cls-54{fill:url(#linear-gradient-43);}.cls-55{fill:url(#linear-gradient-44);}.cls-56{fill:url(#linear-gradient-45);}.cls-57{fill:url(#linear-gradient-46);}.cls-58{fill:url(#linear-gradient-47);}</style><linearGradient id="linear-gradient" x1="2209.14" y1="1344.73" x2="4373.05" y2="-469.46" gradientUnits="userSpaceOnUse"><stop offset="0" stop-color="#d8ced8"/><stop offset="1" stop-color="#71f6cf"/></linearGradient><clipPath id="clip-path" transform="translate(-434.84 -455)"><path class="cls-1" d="M2352,2198.66c208.25-105.33,282.88-391.95,206.39-485.38-39.78-48.59-104-24.81-138.25-80.83-38-62.08,22.08-122,39.57-272.63,9-77.85,25.43-219-47.89-282.27-72.71-62.73-161.15,13.71-243.11-49.45-77.51-59.73-27.88-150.77-116.85-257.7-8.28-9.95-102.75-120.73-196.82-98.75-95.57,22.34-157,173.82-127.53,280.79,26.76,97.18,120.65,129,106.06,181-16.07,57.27-135.36,37.33-157.52,94.57-32,82.74,193.82,184.77,176.23,321.15-10.34,80.19-93.08,80.86-128,178.41-45.1,125.9,37.34,279.36,117.57,362.66C1958.12,2211,2171.54,2290,2352,2198.66Z"/></clipPath><clipPath id="clip-path-2" transform="translate(-434.84 -455)"><path class="cls-2" d="M2397,2604.23c-233.22-115.3-319.32-434.06-235-539,43.86-54.57,115.67-28.71,153.3-91.52,41.69-69.58-25.86-135.72-46.89-303.51-10.87-86.69-30.57-243.9,50.52-315.16,80.42-70.66,179.79,13.66,270.51-57.59,85.79-67.37,29.55-168.36,127.64-288.47,9.13-11.17,113.31-135.63,218.41-112.08,106.77,23.93,176.76,192.18,145,311.72-28.84,108.6-133.19,145.08-116.4,202.87,18.5,63.67,151.28,40.23,176.57,103.82,36.55,91.91-214.19,208-193.2,359.8,12.35,89.29,126.65,96.71,109.71,211-27.32,184.19-64.07,228.35-152.66,322C2776.14,2543.86,2599.15,2704.18,2397,2604.23Z"/></clipPath><clipPath id="clip-path-3" transform="translate(-434.84 -455)"><rect class="cls-3" x="1428.13" y="1331.8" width="1465.42" height="1592.25" transform="translate(-859.17 2405.03) rotate(-49.8)"/></clipPath><linearGradient id="linear-gradient-3" x1="3842.21" y1="-890.4" x2="4788.58" y2="2252.59" gradientTransform="translate(-878.58 -1019.8) rotate(39.31)" gradientUnits="userSpaceOnUse"><stop offset="0" stop-color="#00f9b2"/><stop offset="1" stop-color="#00d797"/></linearGradient><linearGradient id="linear-gradient-4" x1="2700.99" y1="-642.24" x2="3832.36" y2="3115.17" xlink:href="#linear-gradient-3"/><linearGradient id="linear-gradient-5" x1="2360.38" y1="-806.94" x2="3551.21" y2="3147.94" xlink:href="#linear-gradient-3"/><linearGradient id="linear-gradient-6" x1="4532.45" y1="-1459.87" x2="5717.51" y2="2475.83" xlink:href="#linear-gradient-3"/><linearGradient id="linear-gradient-7" x1="4235.73" y1="-1481.61" x2="5373.18" y2="2296" xlink:href="#linear-gradient-3"/><linearGradient id="linear-gradient-8" x1="3843.02" y1="183.67" x2="4030.17" y2="805.24" xlink:href="#linear-gradient-3"/><linearGradient id="linear-gradient-9" x1="2796.45" y1="562.06" x2="5076.7" y2="562.06" xlink:href="#linear-gradient-3"/><linearGradient id="linear-gradient-10" x1="54.63" y1="63.73" x2="-95.37" y2="3747.92" gradientTransform="matrix(1, 0.02, -0.02, 1, 1687.83, 2384.11)" gradientUnits="userSpaceOnUse"><stop offset="0" stop-color="#009c6d"/><stop offset="1" stop-color="#004f38"/></linearGradient><linearGradient id="linear-gradient-11" x1="-698.48" y1="52.45" x2="-852.54" y2="3836.48" xlink:href="#linear-gradient-10"/><linearGradient id="linear-gradient-12" x1="678.36" y1="824.88" x2="2815.93" y2="3179.47" gradientTransform="matrix(1, 0, 0, 1, 0, 0)" xlink:href="#linear-gradient-3"/><clipPath id="clip-path-4" transform="translate(-434.84 -455)"><rect class="cls-3" x="523.26" y="889.04" width="1461.61" height="777.35" transform="translate(-533.3 1175.01) rotate(-42.25)"/></clipPath><linearGradient id="linear-gradient-13" x1="3852.16" y1="-923.02" x2="4798.59" y2="2220.16" gradientTransform="translate(-852.41 -1499.06) rotate(46.87)" xlink:href="#linear-gradient-3"/><linearGradient id="linear-gradient-14" x1="3007.06" y1="-764.03" x2="4138.51" y2="2993.65" gradientTransform="translate(-852.41 -1499.06) rotate(46.87)" xlink:href="#linear-gradient-3"/><linearGradient id="linear-gradient-15" x1="2666.44" y1="-928.72" x2="3857.35" y2="3026.41" gradientTransform="translate(-852.41 -1499.06) rotate(46.87)" xlink:href="#linear-gradient-3"/><linearGradient id="linear-gradient-16" x1="4838.65" y1="-1581.73" x2="6023.79" y2="2354.23" gradientTransform="translate(-852.41 -1499.06) rotate(46.87)" xlink:href="#linear-gradient-3"/><linearGradient id="linear-gradient-17" x1="4541.92" y1="-1603.48" x2="5679.45" y2="2174.39" gradientTransform="translate(-852.41 -1499.06) rotate(46.87)" xlink:href="#linear-gradient-3"/><linearGradient id="linear-gradient-18" x1="4149.17" y1="61.93" x2="4336.34" y2="683.54" gradientTransform="translate(-852.41 -1499.06) rotate(46.87)" xlink:href="#linear-gradient-3"/><linearGradient id="linear-gradient-19" x1="3102.54" y1="440.36" x2="5382.96" y2="440.36" gradientTransform="translate(-852.41 -1499.06) rotate(46.87)" xlink:href="#linear-gradient-3"/><linearGradient id="linear-gradient-20" x1="2229.95" y1="892.23" x2="1890.63" y2="1001.13" gradientUnits="userSpaceOnUse"><stop offset="0" stop-color="#fcb148"/><stop offset="0.05" stop-color="#fdba46"/><stop offset="0.14" stop-color="#ffc244"/><stop offset="0.32" stop-color="#ffc444"/><stop offset="0.48" stop-color="#fdb946"/><stop offset="0.78" stop-color="#f99c4d"/><stop offset="0.87" stop-color="#f8924f"/><stop offset="1" stop-color="#f8924f"/></linearGradient><linearGradient id="linear-gradient-21" x1="2504.45" y1="554.47" x2="2201.52" y2="1222.78" gradientUnits="userSpaceOnUse"><stop offset="0" stop-color="#ffdb44"/><stop offset="1" stop-color="#feef06"/></linearGradient><linearGradient id="linear-gradient-22" x1="2448.73" y1="1260.13" x2="2390.27" y2="940.82" xlink:href="#linear-gradient-20"/><linearGradient id="linear-gradient-23" x1="2324.8" y1="743.29" x2="2565.68" y2="1254.64" xlink:href="#linear-gradient-20"/><linearGradient id="linear-gradient-24" x1="2315.2" y1="633.25" x2="2436.33" y2="1087.21" xlink:href="#linear-gradient-21"/><linearGradient id="linear-gradient-25" x1="2253.93" y1="776.38" x2="2494.33" y2="1286.7" xlink:href="#linear-gradient-20"/><linearGradient id="linear-gradient-26" x1="2685.68" y1="1382.69" x2="2426.22" y2="1465.96" xlink:href="#linear-gradient-20"/><linearGradient id="linear-gradient-27" x1="2895.56" y1="1124.43" x2="2663.93" y2="1635.44" xlink:href="#linear-gradient-21"/><linearGradient id="linear-gradient-28" x1="2852.95" y1="1664" x2="2808.26" y2="1419.85" xlink:href="#linear-gradient-20"/><linearGradient id="linear-gradient-29" x1="2758.2" y1="1268.81" x2="2942.38" y2="1659.8" xlink:href="#linear-gradient-20"/><linearGradient id="linear-gradient-30" x1="2750.86" y1="1184.68" x2="2843.47" y2="1531.78" xlink:href="#linear-gradient-21"/><linearGradient id="linear-gradient-31" x1="2704.01" y1="1294.11" x2="2887.82" y2="1684.32" xlink:href="#linear-gradient-20"/><linearGradient id="linear-gradient-32" x1="-525.57" y1="2717.66" x2="-497.8" y2="2934.69" gradientTransform="matrix(-1, 0, 0, 1, 1932.39, 0)" gradientUnits="userSpaceOnUse"><stop offset="0" stop-color="#ffc444"/><stop offset="0.1" stop-color="#febc46"/><stop offset="1" stop-color="#f36f56"/></linearGradient><linearGradient id="linear-gradient-33" x1="-2311.71" y1="2744.39" x2="-2481.43" y2="3213.94" gradientTransform="matrix(-0.8, 0.6, 0.6, 0.8, -1104.67, 1196.06)" xlink:href="#linear-gradient-10"/><linearGradient id="linear-gradient-34" x1="-795.16" y1="2859.76" x2="-802.33" y2="3001.21" gradientTransform="matrix(-1, 0, 0, 1, 1497.55, -455)" gradientUnits="userSpaceOnUse"><stop offset="0" stop-color="#e0d7de"/><stop offset="1" stop-color="#888091"/></linearGradient><linearGradient id="linear-gradient-35" x1="3920.84" y1="2765.28" x2="3958.55" y2="3059.99" gradientTransform="translate(-1236.87)" gradientUnits="userSpaceOnUse"><stop offset="0" stop-color="#ffc444"/><stop offset="1" stop-color="#f36f56"/></linearGradient><linearGradient id="linear-gradient-36" x1="4118.39" y1="2745.84" x2="4156" y2="3039.8" gradientTransform="translate(-1236.87)" xlink:href="#linear-gradient-32"/><linearGradient id="linear-gradient-37" x1="-757.44" y1="2260.16" x2="-753.65" y2="2440.02" gradientTransform="matrix(-1, 0, 0, 1, 1932.39, 0)" gradientUnits="userSpaceOnUse"><stop offset="0" stop-color="#888091"/><stop offset="1" stop-color="#d3c5d3"/></linearGradient><linearGradient id="linear-gradient-38" x1="4202.34" y1="708.24" x2="4000.26" y2="958.7" gradientTransform="translate(-1077.09 501.83) rotate(13.27)" xlink:href="#linear-gradient-37"/><linearGradient id="linear-gradient-39" x1="-745.85" y1="2986.65" x2="-327.24" y2="2986.65" gradientTransform="matrix(-1, 0, 0, 1, 1932.39, 0)" xlink:href="#linear-gradient-34"/><linearGradient id="linear-gradient-40" x1="-745.85" y1="2987.62" x2="-327.24" y2="2987.62" gradientTransform="matrix(-1, 0, 0, 1, 1932.39, 0)" xlink:href="#linear-gradient-34"/><linearGradient id="linear-gradient-41" x1="-627.31" y1="3149.53" x2="-707.87" y2="3049.27" gradientTransform="matrix(-1, 0, 0, 1, 1932.39, 0)" xlink:href="#linear-gradient-3"/><linearGradient id="linear-gradient-42" x1="-676.77" y1="3125.72" x2="-787.78" y2="2986.07" gradientTransform="matrix(-1, 0, 0, 1, 1932.39, 0)" xlink:href="#linear-gradient-35"/><linearGradient id="linear-gradient-43" x1="-915.76" y1="2981.97" x2="-1007.99" y2="3173.82" gradientTransform="matrix(-1, 0, 0, 1, 1932.39, 0)" xlink:href="#linear-gradient-34"/><linearGradient id="linear-gradient-44" x1="-797.16" y1="2966.66" x2="-676.82" y2="2352.64" gradientTransform="matrix(-1, 0, 0, 1, 1497.55, -455)" gradientUnits="userSpaceOnUse"><stop offset="0" stop-color="#ff9085"/><stop offset="1" stop-color="#adaabc"/></linearGradient><linearGradient id="linear-gradient-45" x1="-456.68" y1="2545.72" x2="-565.99" y2="2609.66" xlink:href="#linear-gradient-44"/><linearGradient id="linear-gradient-46" x1="3716.65" y1="2726.67" x2="3759.39" y2="2508.55" gradientTransform="translate(-1236.87)" xlink:href="#linear-gradient-37"/><linearGradient id="linear-gradient-47" x1="5352.54" y1="4514.12" x2="5395.29" y2="4295.97" gradientTransform="matrix(-1, -0.09, -0.09, 1, 8515.06, -1239.32)" xlink:href="#linear-gradient-37"/></defs><title>red</title><g class="cls-4"><g id="Illustration"><path class="cls-5" d="M2987.83,1047.81c-592.45-732.66-1995-773.61-2407.46-192.5-227.24,320.19-132.28,798.82-85.43,1035C581.16,2324.88,793.77,2604.66,840.2,2664c112.65,144,386.27,493.79,798,573.74C2341.6,3374.36,3219.33,2678.78,3268,1894,3296,1441.57,3039.05,1111.15,2987.83,1047.81Z" transform="translate(-434.84 -455)"/><path class="cls-1" d="M2352,2198.66c208.25-105.33,282.88-391.95,206.39-485.38-39.78-48.59-104-24.81-138.25-80.83-38-62.08,22.08-122,39.57-272.63,9-77.85,25.43-219-47.89-282.27-72.71-62.73-161.15,13.71-243.11-49.45-77.51-59.73-27.88-150.77-116.85-257.7-8.28-9.95-102.75-120.73-196.82-98.75-95.57,22.34-157,173.82-127.53,280.79,26.76,97.18,120.65,129,106.06,181-16.07,57.27-135.36,37.33-157.52,94.57-32,82.74,193.82,184.77,176.23,321.15-10.34,80.19-93.08,80.86-128,178.41-45.1,125.9,37.34,279.36,117.57,362.66C1958.12,2211,2171.54,2290,2352,2198.66Z" transform="translate(-434.84 -455)"/><g class="cls-6"><g class="cls-7"><path class="cls-8" d="M2235.82,2309.17l7.37-.66c-25.45-285.29-65.44-552.74-118.88-794.94-42.75-193.8-94.16-372-152.8-529.54C1871.59,715.5,1784,598.24,1783.15,597.09l-5.89,4.46c.86,1.15,87.94,117.85,187.5,385.56C2056.66,1234.22,2178.29,1664.17,2235.82,2309.17Z" transform="translate(-434.84 -455)"/><path class="cls-8" d="M1980.18,1010.11c76.69-216.06,33.43-409.51,33-411.44l-7.21,1.67c.44,1.9,43.19,193.36-32.75,407.3Z" transform="translate(-434.84 -455)"/><path class="cls-8" d="M2132.67,1548.14c152.62-197.69,211.93-345.88,234.8-435.39,24.92-97.49,13.63-147.43,13.14-149.5l-7.2,1.7c.11.49,11.36,50.77-13.31,146.77-22.79,88.7-81.76,235.64-233.28,431.9Z" transform="translate(-434.84 -455)"/><path class="cls-8" d="M2215.92,2066.94c337.68-276.8,389.6-529,390.09-531.47l-7.27-1.4c-.12.63-13.77,66-70.71,165.46-50.13,87.63-145.79,221.51-316.79,361.69Z" transform="translate(-434.84 -455)"/><path class="cls-8" d="M2036.36,1459.83a677.42,677.42,0,0,0,75.22,21.08l1.58-7.22c-169.31-36.93-303.68-137.77-386.57-215.86-89.86-84.66-140.21-161.46-140.7-162.22l-6.21,4c.51.77,51.34,78.31,141.84,163.57C1792.43,1330,1900.73,1413.34,2036.36,1459.83Z" transform="translate(-434.84 -455)"/><path class="cls-8" d="M2159.31,1959.74q19.62,6.73,40.26,12.22l1.9-7.15c-174.66-46.23-292.58-164.64-360.75-255.83-73.92-98.88-106.86-187.84-107.19-188.73l-7,2.54c.33.9,33.65,90.87,108.21,190.62C1898.3,1798.36,2004.6,1906.71,2159.31,1959.74Z" transform="translate(-434.84 -455)"/></g></g><path class="cls-2" d="M2397,2604.23c-233.22-115.3-319.32-434.06-235-539,43.86-54.57,115.67-28.71,153.3-91.52,41.69-69.58-25.86-135.72-46.89-303.51-10.87-86.69-30.57-243.9,50.52-315.16,80.42-70.66,179.79,13.66,270.51-57.59,85.79-67.37,29.55-168.36,127.64-288.47,9.13-11.17,113.31-135.63,218.41-112.08,106.77,23.93,176.76,192.18,145,311.72-28.84,108.6-133.19,145.08-116.4,202.87,18.5,63.67,151.28,40.23,176.57,103.82,36.55,91.91-214.19,208-193.2,359.8,12.35,89.29,126.65,96.71,109.71,211-27.32,184.19-64.07,228.35-152.66,322C2776.14,2543.86,2599.15,2704.18,2397,2604.23Z" transform="translate(-434.84 -455)"/><g class="cls-9"><g class="cls-7"><path class="cls-8" d="M2527.68,2726.24l-8.22-.66c25.47-318.29,67.34-616.84,124.44-887.38,45.7-216.48,101.2-415.62,165-591.88,108.66-300.36,205.08-432,206-433.26l6.62,4.92c-1,1.29-96.84,132.26-205.11,431.71C2716.47,1526.09,2585.26,2006.63,2527.68,2726.24Z" transform="translate(-434.84 -455)"/><path class="cls-8" d="M2799.46,1275.49c-87.69-240.07-41.43-456.17-41-458.33l8.05,1.79c-.47,2.13-46.17,216,40.65,453.71Z" transform="translate(-434.84 -455)"/><path class="cls-8" d="M2634.93,1876.82c-172.14-218.83-239.76-383.42-266.17-483-28.77-108.42-16.69-164.21-16.16-166.53l8,1.82c-.12.56-12.15,56.72,16.32,163.49,26.32,98.65,93.55,261.84,264.46,479.09Z" transform="translate(-434.84 -455)"/><path class="cls-8" d="M2547.4,2456c-379.24-305.14-439.69-585.7-440.25-588.5l8.08-1.64c.14.71,16,73.38,80.51,183.74,56.78,97.17,164.77,245.44,356.83,400Z" transform="translate(-434.84 -455)"/><path class="cls-8" d="M2741.4,1777.4a753.94,753.94,0,0,1-83.64,24.26l-1.83-8c188.37-42.89,337.13-156.67,428.74-244.56,99.31-95.29,154.66-181.41,155.2-182.27l7,4.43c-.55.87-56.43,87.83-156.45,183.79C3012,1630.2,2892.12,1724.19,2741.4,1777.4Z" transform="translate(-434.84 -455)"/><path class="cls-8" d="M2609.43,2335.94q-21.81,7.7-44.77,14l-2.18-7.95C2756.71,2288.7,2887,2155.5,2962,2053.15c81.4-111,117.22-210.49,117.57-211.48l7.77,2.76c-.36,1-36.58,101.65-118.69,213.6C2898.75,2153.38,2781.35,2275.24,2609.43,2335.94Z" transform="translate(-434.84 -455)"/></g></g><g class="cls-10"><path class="cls-11" d="M1827.42,1201.54a391.38,391.38,0,0,1-28.73,51.38,1093.72,1093.72,0,0,1-117.56,147.18q-8.73,9.15-17.86,17.78a230.61,230.61,0,0,1,29.65,23.1c32.87,30.17,52.33,82.51,52.33,126.33a134.51,134.51,0,0,1-15.39,68.84,132.9,132.9,0,0,1-30.94,51.57c-15.21,22.46-29.26,45.69-44.44,68.18-27.93,41.37-59.43,81.1-94.2,117-51.85,53.51-111.29,98.75-168.46,146.27a178.53,178.53,0,0,1-78.84,46l-47.5,6.38c-42.67,1.92-83-16.58-115.44-43-25.71,23.41-55.21,44.36-86.91,59.48,455.68,288.25,1054.9,401.25,1302.46,943.63l738.92-902.24C2861.51,1597,2279.73,1478.33,1827.42,1201.54Z" transform="translate(-434.84 -455)"/><path class="cls-8" d="M2377.43,2880.17C2004.6,2227.1,1072.41,2257,699.58,1604l628.9-767.91c372.84,653.06,1305,623.14,1677.86,1276.2Z" transform="translate(-434.84 -455)"/><path class="cls-12" d="M1438.11,971.28c-2.77,3.38-5.39,6.35-8.31,9.42-.26.27-.49.52-.75.78-33.33,35-75.64,51.63-116.22,47.82-35.47-3.27-69.46-22.29-94.66-58.57a186,186,0,0,1-10.38-17c-12.39-22.71-20.68-48.79-25.28-76.46q78.9-96.36,157.81-192.7a1029.63,1029.63,0,0,0,134.46,218.37C1468.1,926.27,1454.71,951,1438.11,971.28Z" transform="translate(-434.84 -455)"/><path class="cls-13" d="M794.54,1757.1c-17.28,21.11-36.33,35.22-59.49,47.06A1029.49,1029.49,0,0,1,601.4,1586.81l161.48-197.17c14.91,15.09,28.91,34.22,41.29,56.91q4.92,9,9.27,18.38c43.28,93,43.91,207.27-12.43,283.82-.2.29-.43.58-.66.9C798.52,1752.16,796.47,1754.75,794.54,1757.1Z" transform="translate(-434.84 -455)"/><path class="cls-14" d="M3104.51,2129.4l-157.82,192.69c-14.9-15.09-28.9-34.21-41.28-56.91-3.28-6-6.37-12.15-9.27-18.37-42.83-92-44.12-204.64,10.49-281.18,2.52-3.58,4.72-6.5,7.49-9.88,16.59-20.26,36.94-36.69,55.92-44.72A1029.66,1029.66,0,0,1,3104.51,2129.4Z" transform="translate(-434.84 -455)"/><path class="cls-15" d="M2527.07,2834.47l-161.48,197.17a1029.49,1029.49,0,0,0-133.65-217.35c9.85-28.45,21.31-51.6,38.61-72.71,1.93-2.35,4.06-4.86,6.11-7.1.26-.27.49-.56.73-.81,31.14-34.13,70.64-51.81,109.4-51.37,38.93.47,76.93,19.42,104.39,59a184.23,184.23,0,0,1,10.5,16.87C2514.06,2780.84,2522.47,2806.8,2527.07,2834.47Z" transform="translate(-434.84 -455)"/><path class="cls-16" d="M2163.83,2012.88c-117.95,144-349.64,187.68-524.48,106s-214.44-272.52-95.44-417.84c118-144,349.64-187.67,524.49-106S2282.84,1867.57,2163.83,2012.88Z" transform="translate(-434.84 -455)"/><path class="cls-8" d="M1955.11,1909c-6.06-25.2-23.35-51.2-58.66-81.17l52.46-64,4.39,2.47a212.68,212.68,0,0,1,38,27.53,180.23,180.23,0,0,1,17.2,18.18c5.77,7.1,18.2,7,25.18,0l26.3-26.43c5.48-5.54,5.6-13.47.35-18.57-8.72-8.58-18.51-17-28.11-24.74a389.74,389.74,0,0,0-41.66-29.29q9.17-11.19,18.34-22.39c5.35-6.53,4.46-15.06-2.79-19.36s-16.94-2.24-22.32,4.35L1965,1698.42c-37.65-18-72.83-25.4-104.59-21.74q-48,5.57-79.13,43.58-30.15,36.79-20.88,74.42,9.21,37.39,57.69,77.26-29.3,35.57-58.6,71.14a284.07,284.07,0,0,1-44.6-31.12,257.1,257.1,0,0,1-24.36-23.79c-6.48-7.21-19.53-7.25-26.74.14l-33.39,34.19c-5.55,5.69-5.33,13.63.28,18.75a324.89,324.89,0,0,0,30.1,24.13,444.06,444.06,0,0,0,48.37,29.62l6.44,3.39-20,24.36c-5.39,6.58-4.56,15,3.21,18.72l.24.12a19,19,0,0,0,22.63-5l20.22-24.69c28,11.51,54.69,17.83,79.62,18.67a163.08,163.08,0,0,0,31.78-1.72c33.72-5.28,60.74-20.8,81.76-46.47C1954.57,1958.64,1961.11,1934.11,1955.11,1909Zm-114-18.15c10.44,10.09,17.78,20.14,19.58,29s-.66,17.61-7.72,26.23a45.93,45.93,0,0,1-28.72,16.88c-11.24,1.85-23.23-.27-36.66-6.71Zm14.57-107.77c-2-8.06.13-15.93,6.36-23.54a39.65,39.65,0,0,1,25.78-14.43c10.6-1.56,23.4.76,34.76,5.16l-48.17,58.81C1863.47,1799.59,1857.7,1791.16,1855.67,1783.08Z" transform="translate(-434.84 -455)"/><path class="cls-17" d="M2368,3028.71l-2.4,2.93C2014,2261.31,953,2357.14,601.4,1586.81l723.3-883.16a1124.83,1124.83,0,0,1,7.14,138.24,1052.46,1052.46,0,0,1-19,187.41c-14.48,75.45-38.46,158-76.57,249.61-189,452.41-27,581.2,245.79,657.9,72.32,21.08,151.9,39.19,232.82,61.22,35.59,9.71,71.46,20.58,107.09,32.7,69.75,23.8,138.59,52.52,202.56,87.31,218.74,113.72,367.47,314.67,362.27,564.26a701.55,701.55,0,0,1-15.38,139.17,361.58,361.58,0,0,0-5.85,38.44C2360.58,2908.52,2363,2965,2368,3028.71Z" transform="translate(-434.84 -455)"/></g><path class="cls-18" d="M1575.55,2345.57l-22.4,18.1L1472,2429.24c-25.16-51.2-70.51-63.51-98.26-66a118.59,118.59,0,0,0-23.72.05l-110.73-171.07L849.75,1590.45a103.18,103.18,0,0,1-16.23-57.83l2.4-158.47a8.15,8.15,0,0,1,14.83-5Z" transform="translate(-434.84 -455)"/><path class="cls-19" d="M1553.15,2363.67,1472,2429.24c-25.16-51.2-70.51-63.51-98.26-66l-134.45-171L849.75,1590.45a103.18,103.18,0,0,1-16.23-57.83l1.77-116.76c21.21,76.82,68.51,217.77,137,250.92,95.43,46.15,192.54,134.81,232.59,291.91s137.34,221.17,246.79,305.55C1504.61,2305,1535.41,2339.21,1553.15,2363.67Z" transform="translate(-434.84 -455)"/><path class="cls-20" d="M1986.37,2651.25c-24.88-57.9-63-107.38-110.25-143.09-47.83-36.16-101.38-55.71-154.86-56.52-22.64-.34-41.12-2.87-62.25,3.53l-98.93-132.69-110.41,76.14,45.16,65.48a148.11,148.11,0,0,1,16.6,136.31q-4.86,12.81-8.57,26.5c-19.14,70.7-12.27,150.17,19.35,223.76,24.87,57.9,63,107.38,110.24,143.1,47.83,36.16,101.39,55.7,154.87,56.51a213.53,213.53,0,0,0,88.15-17.26c63.83-27.43,110.08-83.54,130.24-158C2024.86,2804.31,2018,2724.84,1986.37,2651.25Zm-67,200.4c-12.88,47.56-41,82.8-79.23,99.21a124.86,124.86,0,0,1-51.51,10c-73.32-1.11-147.39-59.59-184.31-145.5-23.69-55.15-29.09-113.78-15.19-165.1,12.88-47.57,41-82.8,79.23-99.22a124.65,124.65,0,0,1,51.5-10c73.33,1.11,147.4,59.58,184.31,145.5C1927.91,2741.69,1933.3,2800.32,1919.41,2851.65Z" transform="translate(-434.84 -455)"/><path class="cls-2" d="M1915.46,1390.51l-2.4,158.46a103.37,103.37,0,0,1-18.37,57.31l-523.8,757.33s-83.63-13.9-123.9,62.22l-84.53-72.64-17.78-15.29,755.51-952.83a8.55,8.55,0,0,1,15.27,5.44Z" transform="translate(-434.84 -455)"/><path class="cls-19" d="M1915.46,1390.51l-753,962.68-17.78-15.29,755.51-952.83a8.55,8.55,0,0,1,15.27,5.44Z" transform="translate(-434.84 -455)"/><path class="cls-21" d="M1061.44,2451.77a215.08,215.08,0,0,0-65.5-11.12c-53.49-.81-107.61,17.1-156.51,51.8-48.31,34.27-87.91,82.57-114.53,139.69-33.83,72.6-43.11,151.82-26.11,223.07,17.89,75.05,62.42,132.54,125.39,161.88A213.61,213.61,0,0,0,911.77,3037c53.48.81,107.6-17.1,156.51-51.8,48.3-34.27,87.91-82.57,114.52-139.69,33.84-72.6,43.11-151.82,26.12-223.08q-3.29-13.77-7.76-26.74A147.86,147.86,0,0,1,1221.89,2460l47.12-64.08L1161,2316.43Zm40.32,356c-39.5,84.76-115.31,141-188.64,139.85A124.58,124.58,0,0,1,862,2936c-37.7-17.56-64.76-53.64-76.19-101.57-12.34-51.72-5.17-110.16,20.19-164.56,39.5-84.76,115.3-141,188.63-139.85a124.66,124.66,0,0,1,51.18,11.57c37.7,17.56,64.75,53.64,76.18,101.57C1134.28,2694.92,1127.11,2753.36,1101.76,2807.76Z" transform="translate(-434.84 -455)"/><circle class="cls-18" cx="1353.66" cy="2221.76" r="40.98" transform="translate(-1263.08 349.74) rotate(-25.65)"/><path class="cls-2" d="M1359.44,2233.77a6.71,6.71,0,0,1-6.81,6.61h0a6.71,6.71,0,0,1-6.6-6.81l.44-29.05a6.71,6.71,0,0,1,6.81-6.61h0a6.71,6.71,0,0,1,6.6,6.81Z" transform="translate(-434.84 -455)"/><polygon class="cls-22" points="579.84 1566.23 631.72 1577.98 1231.6 1025.57 1426.61 799.23 1382.21 777.87 579.84 1566.23"/><g class="cls-23"><path class="cls-24" d="M2979.87,2286.61l-851.15,797.24C1881.47,2274,817.11,2229.45,569.86,1419.57L1421,622.34C1668.26,1432.21,2732.62,1476.74,2979.87,2286.61Z" transform="translate(-434.84 -455)"/><path class="cls-8" d="M2160.38,2935.25C1876.66,2238.83,948.64,2145.9,664.92,1449.48l724.43-678.54c283.72,696.42,1211.74,789.35,1495.46,1485.77Z" transform="translate(-434.84 -455)"/><path class="cls-25" d="M1480.25,919.41c-3.19,3-6.19,5.59-9.48,8.25l-.85.68c-37.65,30.35-81.77,41.23-121.5,32.12-34.73-7.91-65.93-31.24-86.13-70.51a185.3,185.3,0,0,1-8.06-18.23c-9.29-24.13-14.09-51.08-15-79.12L1421,622.34a1029.06,1029.06,0,0,0,104.58,234.15C1515.9,878.73,1499.37,901.51,1480.25,919.41Z" transform="translate(-434.84 -455)"/><path class="cls-26" d="M738.92,1613.78c-19.9,18.65-40.64,30.13-65.16,38.83a1029.34,1029.34,0,0,1-103.9-233l186-174.22c12.79,16.91,24.15,37.72,33.44,61.85q3.69,9.57,6.77,19.43c30.68,97.86,16.27,211.24-49.65,279.72-.23.26-.5.52-.77.8C743.52,1609.4,741.14,1611.7,738.92,1613.78Z" transform="translate(-434.84 -455)"/><path class="cls-27" d="M2979.87,2286.61l-181.78,170.27c-12.79-16.92-24.16-37.72-33.45-61.85q-3.67-9.57-6.77-19.43c-30.35-96.86-16.83-208.66,47.38-277.36,3-3.22,5.53-5.82,8.72-8.8,19.11-17.9,41.45-31.52,61.32-37A1029.06,1029.06,0,0,1,2979.87,2286.61Z" transform="translate(-434.84 -455)"/><path class="cls-28" d="M2314.73,2909.63l-186,174.22a1029.34,1029.34,0,0,0-103.9-233c13.5-26.91,27.91-48.35,47.83-67,2.22-2.07,4.66-4.28,7-6.23.29-.23.56-.49.83-.7,35.36-29.74,76.84-42.07,115.21-36.54,38.53,5.59,73.71,29.37,95.73,72.19a183.2,183.2,0,0,1,8.19,18.1C2308.88,2854.75,2313.81,2881.59,2314.73,2909.63Z" transform="translate(-434.84 -455)"/><path class="cls-29" d="M2062.69,2047.4c-135.87,127.26-371.29,140.07-533.88,36.16s-176.74-298.36-39.66-426.76c135.87-127.25,371.29-140.06,533.88-36.15S2199.77,1919,2062.69,2047.4Z" transform="translate(-434.84 -455)"/><path class="cls-8" d="M1869.44,1917c-2.7-25.78-16.42-53.83-47.48-88.18q30.22-28.29,60.43-56.6l4,3a212.67,212.67,0,0,1,34,32.28,178.31,178.31,0,0,1,14.66,20.29c4.8,7.8,17.13,9.36,25,3.34l29.55-22.75c6.16-4.77,7.32-12.61,2.79-18.36-7.52-9.65-16.11-19.29-24.61-28.22a390.24,390.24,0,0,0-37.45-34.51l21.12-19.79c6.17-5.77,6.4-14.34-.21-19.56s-16.5-4.44-22.71,1.38l-21.56,20.2c-35-22.77-68.85-34.75-100.82-35.3q-48.3-.8-84.17,32.79-34.73,32.51-30.49,71c2.81,25.52,18.55,53.65,47,84.17l-67.45,62.83a284.29,284.29,0,0,1-40.13-36.72,257.24,257.24,0,0,1-21-26.79c-5.48-8-18.41-9.75-26.53-3.38l-37.59,29.5c-6.26,4.91-7.08,12.82-2.19,18.63a324.78,324.78,0,0,0,26.66,27.88,444.26,444.26,0,0,0,44.06,35.73l5.93,4.2-23,21.52c-6.21,5.82-6.49,14.28.73,19l.22.14a19,19,0,0,0,23.09-2l23.29-21.82c26.22,15.1,51.87,24.87,76.47,29a164,164,0,0,0,31.73,2.47c34.13-.8,63-12.64,87.17-35.31C1862.38,1966.11,1872.09,1942.66,1869.44,1917Zm-110.63-33c9,11.38,15,22.31,15.6,31.28s-3,17.37-11.1,25a46,46,0,0,1-30.69,13c-11.39.36-23-3.32-35.46-11.47Zm28.61-104.91c-.92-8.26,2.23-15.78,9.4-22.5a39.61,39.61,0,0,1,27.45-10.92c10.72-.15,23.1,3.83,33.79,9.69l-55.49,52C1793,1796.47,1788.37,1787.35,1787.42,1779.08Z" transform="translate(-434.84 -455)"/><path class="cls-30" d="M2131.49,3081.26l-2.77,2.59C1881.47,2274,817.11,2229.45,569.86,1419.57L1403,639.19a1124.93,1124.93,0,0,1-11.1,138,1052.43,1052.43,0,0,1-43.49,183.28c-24.27,72.89-58.9,151.6-108.73,237.36-246.84,423.63-103.2,572.61,157.14,684.52,68.92,30.4,145.43,58.82,222.75,91.3,34,14.31,68.13,29.8,101.86,46.5,66,32.77,130.47,70.29,189.32,113.19,201.88,141.5,322.89,360.26,284.92,607a702,702,0,0,1-33.55,135.94,365.18,365.18,0,0,0-10.86,37.33C2139.94,2961.14,2134.87,3017.42,2131.49,3081.26Z" transform="translate(-434.84 -455)"/></g><path class="cls-31" d="M2620.59,879.92c0,157.41-123.09,281.25-280.41,276.41-163.73-5-301.43-146.43-301.43-315.64s137.7-292.05,301.43-275C2497.5,582.07,2620.59,722.5,2620.59,879.92Z" transform="translate(-434.84 -455)"/><path class="cls-32" d="M2663.1,866.34c0,157.42-123.09,281.25-280.41,276.42-163.73-5-301.43-146.43-301.43-315.64s137.7-292,301.43-275C2540,568.5,2663.1,708.93,2663.1,866.34Z" transform="translate(-434.84 -455)"/><path class="cls-33" d="M2650.75,865.51c0,150.49-117.77,268.67-268.06,263.8-156.13-5.06-287.21-140-287.21-301.23s131.08-278.51,287.21-262.51C2533,581,2650.75,715,2650.75,865.51Z" transform="translate(-434.84 -455)"/><path class="cls-34" d="M2641.91,864.92c0,145.52-114,259.66-259.22,254.78-150.7-5.06-277.08-135.4-277.08-290.94S2232,559.92,2382.69,575.18C2528,589.89,2641.91,719.4,2641.91,864.92Z" transform="translate(-434.84 -455)"/><path class="cls-35" d="M2381.2,624.69h0a15.84,15.84,0,0,1,14,15.54V667a393.42,393.42,0,0,1,46.43,8.06q17.15,4,34.06,9.59a15.67,15.67,0,0,1,10.67,16.08l-3.29,33.59a12.59,12.59,0,0,1-18,10.45,193.94,193.94,0,0,0-22.85-8.51,206.84,206.84,0,0,0-43.09-8l-3.95-.33v76.73c40.32,11.28,69.93,26.46,89.07,45.55s28.54,42.68,28.54,71.1q0,46.11-31.56,73.92-31.77,28-89.27,31.43v29.57a13.45,13.45,0,0,1-14,13.66h-.25a14.87,14.87,0,0,1-14.05-14.83v-29.17l-6.23-.29a408.42,408.42,0,0,1-51.72-5.51,335,335,0,0,1-35.73-8.22,15.41,15.41,0,0,1-11.22-15.92l3.88-43.19c.83-9.34,10.21-14.77,19.09-11.27a279.4,279.4,0,0,0,31.43,10.32,276.13,276.13,0,0,0,50.25,8.4l.25-85.36q-58.07-14.36-86.73-42.55t-28.72-72.41q0-45.6,31.14-70.34c20.63-16.38,50-24.53,87.79-24.51v-27.4A12.65,12.65,0,0,1,2381.2,624.69Zm-14,102.42q-17.94,1.3-28,9.86t-10,23q0,13.69,9.29,22.89t28.71,14.65ZM2392,881.66v78.28q19.52,0,29.94-9.31t10.42-26.35q0-15.53-9.68-25.76T2392,881.66Z" transform="translate(-434.84 -455)"/><path class="cls-36" d="M2335.78,900.55c8.76-86.5,88.25-123.12,77.88-202.69-6.39-49-43.56-90.37-85-122.64-125.77,13.19-223,117.33-223,253.54,0,155.54,126.38,285.88,277.08,290.94a261.9,261.9,0,0,0,42.82-2.09C2365.66,1058.05,2328.25,974.87,2335.78,900.55Z" transform="translate(-434.84 -455)"/><path class="cls-37" d="M2984.37,1373.28c0,120.37-94.12,215-214.42,211.36-125.19-3.85-230.48-112-230.48-241.35S2644.76,1120,2770,1133C2890.25,1145.54,2984.37,1252.91,2984.37,1373.28Z" transform="translate(-434.84 -455)"/><path class="cls-38" d="M3016.87,1362.9c0,120.37-94.12,215-214.41,211.36-125.19-3.85-230.48-112-230.48-241.35s105.29-223.31,230.48-210.27C2922.75,1135.16,3016.87,1242.54,3016.87,1362.9Z" transform="translate(-434.84 -455)"/><path class="cls-39" d="M3007.43,1362.26c0,115.07-90,205.43-205,201.71-119.38-3.86-219.61-107-219.61-230.33s100.23-213,219.61-200.72C2917.38,1144.7,3007.43,1247.2,3007.43,1362.26Z" transform="translate(-434.84 -455)"/><path class="cls-40" d="M3000.67,1361.81c0,111.27-87.14,198.54-198.21,194.81-115.23-3.87-211.86-103.52-211.86-222.46s96.63-205.56,211.86-193.89C2913.53,1151.52,3000.67,1250.54,3000.67,1361.81Z" transform="translate(-434.84 -455)"/><path class="cls-41" d="M2801.32,1178.12h0A12.12,12.12,0,0,1,2812,1190v20.48a302.52,302.52,0,0,1,35.5,6.16q13.11,3.09,26,7.34a12,12,0,0,1,8.16,12.29l-2.51,25.69a9.63,9.63,0,0,1-13.75,8,149.46,149.46,0,0,0-17.47-6.51,159,159,0,0,0-32.95-6.16l-3-.24v58.67c30.83,8.62,53.47,20.23,68.11,34.82s21.81,32.63,21.81,54.37q0,35.25-24.12,56.52c-16.2,14.27-38.9,22.29-68.26,24v22.61a10.29,10.29,0,0,1-10.7,10.45h-.19a11.36,11.36,0,0,1-10.74-11.34v-22.3l-4.77-.22a313,313,0,0,1-39.54-4.21,258.54,258.54,0,0,1-27.33-6.29,11.78,11.78,0,0,1-8.57-12.17l3-33c.64-7.14,7.81-11.3,14.6-8.62a214.81,214.81,0,0,0,24,7.89,211,211,0,0,0,38.43,6.42l.19-65.26q-44.4-11-66.32-32.54t-22-55.37q0-34.87,23.81-53.78t67.13-18.75V1188A9.68,9.68,0,0,1,2801.32,1178.12Zm-10.73,78.32q-13.73,1-21.38,7.54t-7.68,17.61a23.63,23.63,0,0,0,7.1,17.5q7.08,7,22,11.2Zm19,118.18v59.84q14.91,0,22.89-7.11t8-20.15q0-11.87-7.41-19.69T2809.56,1374.62Z" transform="translate(-434.84 -455)"/><path class="cls-42" d="M2766.59,1389.06c6.7-66.14,67.48-94.14,59.55-155-4.89-37.5-33.31-69.1-65-93.78C2665,1150.39,2590.6,1230,2590.6,1334.16c0,118.94,96.63,218.6,211.86,222.46a199.83,199.83,0,0,0,32.74-1.59C2789.44,1509.49,2760.84,1445.88,2766.59,1389.06Z" transform="translate(-434.84 -455)"/><path class="cls-43" d="M2456,2478.2s-135.34,142.73-108.83,233.39S2586,2648.75,2586,2648.75Z" transform="translate(-434.84 -455)"/><path class="cls-44" d="M2509.46,2391.91c-11-1.69-44.59-16.51-53.58-44.73-6.13-19.24,4.54-29.72-3.47-49.35-9.1-22.3-27.14-19.24-43.56-40.84-19.15-25.18-22.63-66.19-7.56-93,12.14-21.58,26.46-16.37,49.31-45.54,20.2-25.79,14.1-36.35,28.3-49.52,27.65-25.62,63.52,2.57,112.94-8.74,68.66-15.71,67.32-85.65,121.43-90,49.74-4,111.06,50.29,120.17,102.37,3.64,20.86-2.26,32,7.74,50.25,15.37,28.11,42.67,20.7,64.68,48.65,16.64,21.14,25.52,56.51,12,77.59-15.81,24.69-50.1,10.73-66,35-17.16,26.12,14.13,55.22-2.3,82.76-15.51,26-59.6,29.07-85.13,27.8-30.76-1.54-60.62-10.46-91-15.41C2617,2370,2564.83,2400.42,2509.46,2391.91Z" transform="translate(-434.84 -455)"/><polygon class="cls-45" points="2300.26 2513.33 1966.15 2429.76 1949.44 2510.93 2255.31 2652.1 2497.5 2592.28 2643.6 2448.83 2300.26 2513.33"/><path class="cls-46" d="M2415.74,2543.31c-11.2-27.23,65.62-101.83,161.94-129.42,69.91-20,129.18-8.85,160-3.4,100,17.65,162.31,67.65,185.75,88.67-19.2,10.41-72.17,42.19-98.41,102.47-25.37,58.28-7.24,111.83,2.21,142.94,8.22,27.09,20.73,68.28,57.7,98.08,19.53,15.73,41.1,23.72,84.25,39.7,50.89,18.84,82.43,24,82.21,34.24-.3,13-52,23.59-50.18,31.7.14.6.52.64.57,1.08.69,5.65-57.36,19.55-130.73,30.59-85.8,12.91-128.7,19.36-169.71,12.34-63.93-10.93-53.18-30.62-117.26-41.65-74.53-12.84-108.4,10.48-175.88-15.43-11.36-4.37-56.84-21.9-55.54-40.11,1.62-22.52,76.64-14.83,141.94-72.52a199.09,199.09,0,0,0,47.5-62.05c6.23-12.93,32.35-79.77,6.15-152.55a46.28,46.28,0,0,0-4.43-9.1C2512.13,2544.75,2426.31,2569,2415.74,2543.31Z" transform="translate(-434.84 -455)"/><path class="cls-47" d="M2743.57,2659.81c-16.14,31.07,40.35,121.11,119,128.8,42.64,4.17,84.71-16.54,109.92-47.84,38.91-48.3,26.87-108.43,22.66-129.48-24.86-124.21-170.89-175.91-184.28-180.43-35.53,55.06-35,89.79-27.46,111.53,6.18,17.92,22.37,37.07,54.74,75.37,28.83,34.11,43.13,46.26,38.85,56.65-5.09,12.34-32.69,13.27-50.18,9.71-32.4-6.59-50.14-32.65-54.78-40C2763.17,2645.58,2749.12,2649.13,2743.57,2659.81Z" transform="translate(-434.84 -455)"/><path class="cls-48" d="M2696.64,2333.45s6.38,51,25.2,62.68,49.25,26.94,52.6,31.08-116.6,17-176-13h0c19.59-4.08,24.91-5.59,24.91-5.59,5.32-1.5,15.24-4.29,25.18-10a85.55,85.55,0,0,0,27.68-25.6l-.22-28.23Z" transform="translate(-434.84 -455)"/><path class="cls-49" d="M2686.24,2361s-17.64,51.15-70.76,48.37c-47.55-2.49-55.89-120.79-25.82-143.79,10-7.67,31.38-12.19,47.93-7.78,11.64,3.1,47.66,27.51,43.84,68.42,9.85-6.44,20.23-6.51,24.25-1.89,5.1,5.86-1.21,17.91-2.65,20.63A37.87,37.87,0,0,1,2686.24,2361Z" transform="translate(-434.84 -455)"/><path class="cls-50" d="M2678.24,3080.69a906.57,906.57,0,0,1-148.74-99.27c-65.5-53.93-95.55-94.61-161.86-110.69-11.85-2.87-79.37-19.24-101.16,10.74-24.12,33.2,22.78,102.62,28.47,111.05,84.72,125.4,300.46,119.55,368.13,115.48Z" transform="translate(-434.84 -455)"/><path class="cls-51" d="M2266.48,2881.47c6.37-8.76,16.68-13.49,28.33-15.82-3.87,13.42-4.23,26,.61,37,13.24,30.07,52.44,20.81,80,56.1,27,34.66,8.32,68.07,32.23,82.36,27.39,16.39,61.36-21.89,90.71-3.58,20,12.45,13.75,36.07,37,48.94,16.07,8.89,31.83,4.69,50.14,2.39,21-2.64,49.73-3.2,85.81,4.33q-4.1,7.41-8.21,14.8c-67.67,4.07-283.41,9.92-368.13-115.48C2289.26,2984.09,2242.36,2914.67,2266.48,2881.47Z" transform="translate(-434.84 -455)"/><path class="cls-52" d="M2628,3099.43s-12.16-8.73-29.82-2.78-45.7,10.74-45.65,19.37,28.09,14,47.48,10.49C2618.58,3123.12,2633.16,3107,2628,3099.43Z" transform="translate(-434.84 -455)"/><path class="cls-53" d="M2645.87,3084.69l-32.5,10.45s-5.28,8.8,1.84,14.37,31.88-6.22,31.88-6.22Z" transform="translate(-434.84 -455)"/><path class="cls-54" d="M3097.54,2934.89c9.6,55.86-111,116.3-138.57,130.13-56.25,28.2-162.1,68-319.18,52.79l-6.27-37.6a742.68,742.68,0,0,0,87.19-36.21c60.9-30,84-51.36,168.53-102.45,93.52-56.54,120.76-63.79,148.62-56.79C3061.68,2890.74,3093.08,2908.93,3097.54,2934.89Z" transform="translate(-434.84 -455)"/><polygon class="cls-55" points="2333.91 2251.8 2294.94 2029.55 2118.75 2097.08 2163.56 2319.84 2333.91 2251.8"/><polygon class="cls-56" points="2021.19 2023.2 2118.75 2097.08 2163.56 2319.84 2091.75 2272.46 2021.19 2023.2"/><path class="cls-57" d="M2506.73,2654.68s-21.47-19.94-23.8-43.1,13.86-41.7,29.56-46.42,24.08,2.24,13.54,25.05S2498.77,2627.82,2506.73,2654.68Z" transform="translate(-434.84 -455)"/><path class="cls-58" d="M2763,2708.86s23.25-18,27.64-40.82-10.18-42.76-25.47-48.87-24.3.1-15.77,23.75S2773.32,2682.81,2763,2708.86Z" transform="translate(-434.84 -455)"/></g></g></svg>