<svg xmlns="http://www.w3.org/2000/svg" xmlns:xlink="http://www.w3.org/1999/xlink" viewBox="0 0 2700.81 2558.39"><defs><style>.cls-1{isolation:isolate;}.cls-2{fill:#e0e0e0;}.cls-3{fill:#263238;}.cls-4{fill:#00bf86;}.cls-5{fill:#455a64;}.cls-6{fill:#fafafa;}.cls-51,.cls-7{opacity:0.2;}.cls-15,.cls-21,.cls-31,.cls-33,.cls-40,.cls-48,.cls-8{opacity:0.3;}.cls-9{fill:#fff;}.cls-10{fill:url(#linear-gradient);}.cls-11{fill:url(#linear-gradient-2);}.cls-12{fill:url(#linear-gradient-3);}.cls-13{fill:url(#linear-gradient-4);}.cls-14{fill:url(#linear-gradient-5);}.cls-15,.cls-21,.cls-23,.cls-31,.cls-33,.cls-40,.cls-48,.cls-51{mix-blend-mode:multiply;}.cls-15{fill:url(#linear-gradient-6);}.cls-16{fill:url(#linear-gradient-7);}.cls-17{fill:url(#linear-gradient-8);}.cls-18{fill:url(#linear-gradient-9);}.cls-19{fill:url(#linear-gradient-10);}.cls-20{fill:url(#linear-gradient-11);}.cls-21{fill:url(#linear-gradient-12);}.cls-22{stroke:#fff;stroke-miterlimit:10;stroke-width:7px;fill:url(#linear-gradient-13);}.cls-23{opacity:0.4;fill:url(#linear-gradient-14);}.cls-24{fill:url(#linear-gradient-15);}.cls-25{fill:url(#linear-gradient-16);}.cls-26{fill:url(#linear-gradient-17);}.cls-27{fill:url(#linear-gradient-18);}.cls-28{fill:url(#linear-gradient-19);}.cls-29{fill:url(#linear-gradient-20);}.cls-30{fill:url(#linear-gradient-21);}.cls-31{fill:url(#linear-gradient-22);}.cls-32{fill:url(#linear-gradient-23);}.cls-33{fill:url(#linear-gradient-24);}.cls-34{fill:url(#linear-gradient-25);}.cls-35{fill:url(#linear-gradient-26);}.cls-36{fill:url(#linear-gradient-27);}.cls-37{fill:url(#linear-gradient-28);}.cls-38{fill:url(#linear-gradient-29);}.cls-39{fill:url(#linear-gradient-30);}.cls-40{fill:url(#linear-gradient-31);}.cls-41{fill:url(#linear-gradient-32);}.cls-42{fill:url(#linear-gradient-33);}.cls-43{fill:url(#linear-gradient-34);}.cls-44{fill:url(#linear-gradient-35);}.cls-45{fill:url(#linear-gradient-36);}.cls-46{fill:url(#linear-gradient-37);}.cls-47{fill:url(#linear-gradient-38);}.cls-48{fill:url(#linear-gradient-39);}.cls-49{fill:url(#linear-gradient-40);}.cls-50{fill:url(#linear-gradient-41);}.cls-51{fill:url(#linear-gradient-42);}.cls-52{fill:url(#linear-gradient-43);}.cls-53{fill:url(#linear-gradient-44);}.cls-54{fill:url(#linear-gradient-45);}.cls-55{fill:url(#linear-gradient-46);}.cls-56{fill:#f4f7fa;}.cls-57{fill:url(#linear-gradient-47);}.cls-58{fill:url(#linear-gradient-48);}.cls-59{fill:url(#linear-gradient-49);}</style><linearGradient id="linear-gradient" x1="1725.69" y1="1843.12" x2="1221.65" y2="2004.88" gradientUnits="userSpaceOnUse"><stop offset="0" stop-color="#fcb148"/><stop offset="0.05" stop-color="#fdba46"/><stop offset="0.14" stop-color="#ffc244"/><stop offset="0.32" stop-color="#ffc444"/><stop offset="0.48" stop-color="#fdb946"/><stop offset="0.78" stop-color="#f99c4d"/><stop offset="0.87" stop-color="#f8924f"/><stop offset="1" stop-color="#f8924f"/></linearGradient><linearGradient id="linear-gradient-2" x1="2133.43" y1="1341.4" x2="1683.45" y2="2334.13" gradientUnits="userSpaceOnUse"><stop offset="0" stop-color="#ffdb44"/><stop offset="1" stop-color="#feef06"/></linearGradient><linearGradient id="linear-gradient-3" x1="2050.66" y1="2389.61" x2="1963.83" y2="1915.3" xlink:href="#linear-gradient"/><linearGradient id="linear-gradient-4" x1="1866.57" y1="1621.88" x2="2224.38" y2="2381.45" xlink:href="#linear-gradient"/><linearGradient id="linear-gradient-5" x1="1852.32" y1="1458.43" x2="2032.24" y2="2132.74" xlink:href="#linear-gradient-2"/><linearGradient id="linear-gradient-6" x1="1761.3" y1="1671.04" x2="2118.4" y2="2429.07" xlink:href="#linear-gradient"/><linearGradient id="linear-gradient-7" x1="1930.64" y1="2456.19" x2="1628.64" y2="2553.11" xlink:href="#linear-gradient"/><linearGradient id="linear-gradient-8" x1="2174.94" y1="2155.58" x2="1905.33" y2="2750.38" xlink:href="#linear-gradient-2"/><linearGradient id="linear-gradient-9" x1="2125.35" y1="2783.62" x2="2073.32" y2="2499.44" xlink:href="#linear-gradient"/><linearGradient id="linear-gradient-10" x1="2015.05" y1="2323.64" x2="2229.44" y2="2778.73" xlink:href="#linear-gradient"/><linearGradient id="linear-gradient-11" x1="2006.51" y1="2225.71" x2="2114.31" y2="2629.72" xlink:href="#linear-gradient-2"/><linearGradient id="linear-gradient-12" x1="1951.98" y1="2353.09" x2="2165.93" y2="2807.27" xlink:href="#linear-gradient"/><linearGradient id="linear-gradient-13" x1="1175.26" y1="1779.64" x2="1979.3" y2="677.68" gradientUnits="userSpaceOnUse"><stop offset="0" stop-color="#00bf86"/><stop offset="1" stop-color="#3abf86"/></linearGradient><linearGradient id="linear-gradient-14" x1="1752.49" y1="1248.37" x2="2087.49" y2="789.25" xlink:href="#linear-gradient-13"/><linearGradient id="linear-gradient-15" x1="3912.32" y1="1600.48" x2="3959.91" y2="1745.73" gradientTransform="matrix(-1, 0, 0, 1, 6361.9, 0)" gradientUnits="userSpaceOnUse"><stop offset="0" stop-color="#ffc444"/><stop offset="1" stop-color="#f36f56"/></linearGradient><linearGradient id="linear-gradient-16" x1="3844.07" y1="1741.52" x2="3912.32" y2="2719.81" gradientTransform="matrix(-1, 0, 0, 1, 6361.9, 0)" gradientUnits="userSpaceOnUse"><stop offset="0" stop-color="#1a1a1a"/><stop offset="1"/></linearGradient><linearGradient id="linear-gradient-17" x1="-874.62" y1="3441.9" x2="-798.97" y2="3441.9" gradientTransform="translate(3905.35 -160.45) rotate(5.15)" gradientUnits="userSpaceOnUse"><stop offset="0" stop-color="#444b8c"/><stop offset="1" stop-color="#26264f"/></linearGradient><linearGradient id="linear-gradient-18" x1="-1323.05" y1="3352.83" x2="-1289.87" y2="3284.14" gradientTransform="translate(4321.27 -60.67) rotate(3.98)" xlink:href="#linear-gradient-15"/><linearGradient id="linear-gradient-19" x1="-1162.26" y1="3720.45" x2="-1081.9" y2="3720.45" gradientTransform="translate(4393.84 -210.66) rotate(12.32)" xlink:href="#linear-gradient-17"/><linearGradient id="linear-gradient-20" x1="-1372.44" y1="3551.86" x2="-1338.55" y2="3481.71" gradientTransform="translate(4387.31 -128.67) rotate(8.35)" xlink:href="#linear-gradient-15"/><linearGradient id="linear-gradient-21" x1="4272.7" y1="2839.82" x2="4058.35" y2="2356.61" gradientTransform="matrix(-1, 0.05, 0.05, 1, 6599.48, -19.3)" gradientUnits="userSpaceOnUse"><stop offset="0" stop-color="#e6e6e6"/><stop offset="1" stop-color="#f2f2f2"/></linearGradient><linearGradient id="linear-gradient-22" x1="4239.46" y1="2854.56" x2="4025.1" y2="2371.35" gradientTransform="matrix(-1, 0.05, 0.05, 1, 6599.48, -19.3)" xlink:href="#linear-gradient-17"/><linearGradient id="linear-gradient-23" x1="3701.85" y1="3242.76" x2="3487.49" y2="2759.54" gradientTransform="matrix(-1, -0.07, -0.07, 1, 6522.79, 92.99)" xlink:href="#linear-gradient-21"/><linearGradient id="linear-gradient-24" x1="3592.84" y1="2729.63" x2="3971.22" y2="1855.35" gradientTransform="matrix(-1, 0, 0, 1, 6361.9, 0)" gradientUnits="userSpaceOnUse"><stop offset="0" stop-color="#ff9085"/><stop offset="1" stop-color="#fb6fbb"/></linearGradient><linearGradient id="linear-gradient-25" x1="3568.83" y1="1760.72" x2="3637.08" y2="2739.02" xlink:href="#linear-gradient-16"/><linearGradient id="linear-gradient-26" x1="3624.25" y1="1939.66" x2="3632.84" y2="1710.89" xlink:href="#linear-gradient-15"/><linearGradient id="linear-gradient-27" x1="-1886.28" y1="1633.47" x2="-1943.48" y2="1488.18" gradientTransform="translate(4572.31 252.48) rotate(-2.84)" gradientUnits="userSpaceOnUse"><stop offset="0" stop-color="#311944"/><stop offset="1" stop-color="#6b3976"/></linearGradient><linearGradient id="linear-gradient-28" x1="3347.3" y1="1686.27" x2="3344.67" y2="1898.23" gradientTransform="matrix(-1, -0.01, -0.01, 1, 6080.54, 228.06)" xlink:href="#linear-gradient-15"/><linearGradient id="linear-gradient-29" x1="-1903.75" y1="1640.42" x2="-1961.02" y2="1494.98" xlink:href="#linear-gradient-27"/><linearGradient id="linear-gradient-30" x1="-1959.8" y1="1552.79" x2="-1956.82" y2="1579.34" gradientTransform="translate(4572.31 252.48) rotate(-2.84)" gradientUnits="userSpaceOnUse"><stop offset="0" stop-color="#ffc444"/><stop offset="1" stop-color="#f36f56"/></linearGradient><linearGradient id="linear-gradient-31" x1="3529.32" y1="2540.14" x2="3857.08" y2="1782.83" xlink:href="#linear-gradient-24"/><linearGradient id="linear-gradient-32" x1="3438.05" y1="2410.85" x2="3431.22" y2="2738.47" xlink:href="#linear-gradient-15"/><linearGradient id="linear-gradient-33" x1="3267.4" y1="1781.75" x2="3335.66" y2="2760.05" xlink:href="#linear-gradient-16"/><linearGradient id="linear-gradient-34" x1="1024.95" y1="3258.89" x2="966.28" y2="3065.43" gradientTransform="translate(63.38 -14.86) rotate(0.79)" xlink:href="#linear-gradient-17"/><linearGradient id="linear-gradient-35" x1="974.37" y1="3221.22" x2="974.37" y2="2910.4" gradientTransform="translate(63.38 -14.86) rotate(0.79)" xlink:href="#linear-gradient-15"/><linearGradient id="linear-gradient-36" x1="1088.82" y1="3221.22" x2="1088.82" y2="2910.4" gradientTransform="translate(-464.18 -672.68) rotate(0.79)" xlink:href="#linear-gradient-15"/><linearGradient id="linear-gradient-37" x1="1110.43" y1="3232.97" x2="1051.75" y2="3039.5" gradientTransform="translate(63.38 -14.86) rotate(0.79)" xlink:href="#linear-gradient-17"/><linearGradient id="linear-gradient-38" x1="947.52" y1="2550.54" x2="918.97" y2="3192.79" gradientTransform="translate(63.38 -14.86) rotate(0.79)" xlink:href="#linear-gradient-21"/><linearGradient id="linear-gradient-39" x1="947.52" y1="2550.54" x2="918.97" y2="3192.79" gradientTransform="translate(63.38 -14.86) rotate(0.79)" gradientUnits="userSpaceOnUse"><stop offset="0" stop-color="#311944"/><stop offset="1" stop-color="#893976"/></linearGradient><linearGradient id="linear-gradient-40" x1="1382.65" y1="2823.76" x2="859.35" y2="2799.97" gradientTransform="translate(63.38 -14.86) rotate(0.79)" xlink:href="#linear-gradient-21"/><linearGradient id="linear-gradient-41" x1="608.13" y1="2960.87" x2="979.21" y2="2167.97" gradientTransform="translate(63.38 -14.86) rotate(0.79)" xlink:href="#linear-gradient-16"/><linearGradient id="linear-gradient-42" x1="1544.24" y1="2104.8" x2="1834.1" y2="2700.85" gradientTransform="matrix(-0.98, -0.19, -0.19, 0.98, 3111.87, 295.69)" gradientUnits="userSpaceOnUse"><stop offset="0" stop-color="#e38ddd"/><stop offset="1" stop-color="#9571f6"/></linearGradient><linearGradient id="linear-gradient-43" x1="1017.06" y1="1932.24" x2="950.12" y2="2040.53" gradientTransform="translate(63.38 -14.86) rotate(0.79)" xlink:href="#linear-gradient-15"/><linearGradient id="linear-gradient-44" x1="1266.37" y1="2099.9" x2="1131.44" y2="2318.17" gradientTransform="translate(63.38 -14.86) rotate(0.79)" xlink:href="#linear-gradient-17"/><linearGradient id="linear-gradient-45" x1="1287.32" y1="2107.85" x2="1170.77" y2="2326.69" gradientTransform="matrix(1, 0, 0, 1, 0, 0)" xlink:href="#linear-gradient-15"/><linearGradient id="linear-gradient-46" x1="1252.59" y1="2085.9" x2="1284.7" y2="2019.3" gradientTransform="translate(63.38 -14.86) rotate(0.79)" gradientUnits="userSpaceOnUse"><stop offset="0" stop-color="#aa80f9"/><stop offset="1" stop-color="#6165d7"/></linearGradient><linearGradient id="linear-gradient-47" x1="1294.91" y1="2186.16" x2="1262.54" y2="2238.53" gradientTransform="translate(63.38 -14.86) rotate(0.79)" xlink:href="#linear-gradient-15"/><linearGradient id="linear-gradient-48" x1="774.68" y1="3038.83" x2="1145.76" y2="2245.92" gradientTransform="translate(63.38 -14.86) rotate(0.79)" xlink:href="#linear-gradient-16"/><linearGradient id="linear-gradient-49" x1="645.29" y1="2385.81" x2="915.92" y2="1807.55" gradientTransform="translate(63.38 -14.86) rotate(0.79)" xlink:href="#linear-gradient-17"/></defs><title>retur</title><g class="cls-1"><g id="Illustration"><rect class="cls-2" x="687.49" y="439.96" width="1276.43" height="2058.22"/><polygon class="cls-3" points="958.22 2537.17 686.47 2537.17 681.96 379.15 953.7 379.15 958.22 2537.17"/><rect class="cls-4" x="2002.51" y="1981.22" width="130.16" height="224.31" transform="translate(3607.62 3528.94) rotate(180)"/><rect class="cls-5" x="1639.43" y="1929.09" width="102.78" height="280.02" transform="translate(2854.08 3480.37) rotate(180)"/><path class="cls-6" d="M1638.24,1949.32c0-.87,23.5-1.57,52.49-1.57s52.49.7,52.49,1.57-23.5,1.56-52.49,1.56S1638.24,1950.18,1638.24,1949.32Z" transform="translate(-527.56 -657.82)"/><path class="cls-6" d="M1643.93,1962.6c0-.87,22.23-1.57,49.64-1.57s49.65.7,49.65,1.57-22.23,1.56-49.65,1.56S1643.93,1963.46,1643.93,1962.6Z" transform="translate(-527.56 -657.82)"/><path class="cls-6" d="M1687.88,2153.89c-.86,0-1.56-37.09-1.56-82.84s.7-82.84,1.56-82.84,1.56,37.08,1.56,82.84S1688.74,2153.89,1687.88,2153.89Z" transform="translate(-527.56 -657.82)"/><path class="cls-6" d="M1639.43,2179.51c0-.87,22.53-1.57,50.31-1.57s50.31.7,50.31,1.57-22.52,1.56-50.31,1.56S1639.43,2180.37,1639.43,2179.51Z" transform="translate(-527.56 -657.82)"/><path class="cls-6" d="M1639.43,2191.52c0-.86,23.09-1.56,51.57-1.56s51.58.7,51.58,1.56-23.08,1.56-51.58,1.56S1639.43,2192.38,1639.43,2191.52Z" transform="translate(-527.56 -657.82)"/><rect class="cls-4" x="1742.14" y="1898.81" width="82.56" height="310.3" transform="translate(3039.29 3450.09) rotate(180)"/><path class="cls-6" d="M1741.62,2041.32c.28-.34,5.11,3.1,12.78,8.84l29.79,22.6,29.75,22.67c7.58,5.85,12.19,9.58,11.93,9.94s-5.31-2.76-13.23-8.16-18.69-13.11-30.34-22-22-17.17-29.28-23.36S1741.36,2041.65,1741.62,2041.32Z" transform="translate(-527.56 -657.82)"/><path class="cls-6" d="M1741.26,1992.73c.56-.65,19.48,14.64,42.25,34.15s40.78,35.87,40.22,36.52-19.47-14.63-42.25-34.15S1740.7,1993.39,1741.26,1992.73Z" transform="translate(-527.56 -657.82)"/><rect class="cls-4" x="1383.32" y="1913.72" width="39.49" height="295.6" transform="translate(2278.56 3465.23) rotate(180)"/><path class="cls-6" d="M1385,1954c0,1,8.28,1.86,18.49,1.86S1422,1955,1422,1954s-8.29-1.86-18.51-1.86S1385,1953,1385,1954Z" transform="translate(-527.56 -657.82)"/><path class="cls-6" d="M1384.15,1947.56c0,1,8.28,1.86,18.5,1.86s18.5-.83,18.5-1.86-8.28-1.86-18.5-1.86S1384.15,1946.53,1384.15,1947.56Z" transform="translate(-527.56 -657.82)"/><path class="cls-6" d="M1385,2186.47c0,1,8.28,1.86,18.49,1.86s18.51-.83,18.51-1.86-8.29-1.86-18.51-1.86S1385,2185.44,1385,2186.47Z" transform="translate(-527.56 -657.82)"/><path class="cls-6" d="M1384.15,2180c0,1,8.28,1.85,18.5,1.85s18.5-.83,18.5-1.85-8.28-1.86-18.5-1.86S1384.15,2179,1384.15,2180Z" transform="translate(-527.56 -657.82)"/><path class="cls-6" d="M1404.26,2141.42c1,0,1.86-33.85,1.86-75.61s-.83-75.62-1.86-75.62-1.86,33.85-1.86,75.62S1403.23,2141.42,1404.26,2141.42Z" transform="translate(-527.56 -657.82)"/><rect class="cls-3" x="1560.29" y="1911.83" width="78.98" height="295.6" transform="translate(2671.99 3461.44) rotate(180)"/><path class="cls-6" d="M1617.05,2211.22a6.47,6.47,0,0,0,.92-1.6c.57-1.09,1.33-2.73,2.25-4.93a85.49,85.49,0,0,0,5.74-20c1.26-8.86,1.62-20.75-4.62-32.52a43.28,43.28,0,0,0-14-15.45c-6.2-4.08-14.31-6.71-22.75-5.37a23.94,23.94,0,0,0-11.76,5.43,15.55,15.55,0,0,0-5.66,12.47c.22,4.95,3.06,9.42,6.76,12.53a24.49,24.49,0,0,0,13.47,5.72c10,1.17,20.39-3.05,28-10.19,7.86-7,12.66-17.55,13.88-28.41s-.43-22.25-4.09-33-9.72-21.33-19.36-28.81a31.81,31.81,0,0,0-17.06-6.72,22.16,22.16,0,0,0-17.74,6.3,14.31,14.31,0,0,0-4,9.24,16.85,16.85,0,0,0,2.72,9.67c3.54,5.7,9.59,9.35,15.93,10.88,12.91,2.77,26.37-2.34,34.79-11.66s12.28-21.59,13.55-33.28.3-23.6-3.4-34.5-10.76-20.63-20.4-26.25c-9.43-5.71-21.36-7.59-31.38-3.28-5,2-9.36,6.59-10.2,12a19.1,19.1,0,0,0,3.59,14.9c6.62,8.34,18,9.73,26.61,7,8.89-2.74,15.69-8.72,21-14.9a67.09,67.09,0,0,0,15.75-40.54,65.47,65.47,0,0,0-19.71-48.87,49.4,49.4,0,0,0-4.11-3.54,6.67,6.67,0,0,0-1.53-1c-.51.38,8.62,5.92,16.76,22a64.24,64.24,0,0,1,6.51,31.37,65.2,65.2,0,0,1-15.67,38.92c-5.14,5.91-11.7,11.47-19.8,13.87-7.83,2.41-18,.84-23.34-6.15a16,16,0,0,1-2.93-12.43c.73-4.39,4.07-7.86,8.39-9.67,8.78-3.73,19.65-2.09,28.31,3.23,8.86,5.23,15.4,14.18,18.8,24.46s4.3,21.69,3.14,33-4.88,22.67-12.66,31.18c-7.54,8.41-19.92,13-31.22,10.52-5.53-1.34-10.71-4.51-13.62-9.21s-3-10.65.87-14.42a18.53,18.53,0,0,1,14.81-5.16,28,28,0,0,1,15.1,6c8.81,6.77,14.66,16.84,18.2,27.05s5.23,21.14,4,31.42-5.48,19.87-12.71,26.43c-7,6.66-16.49,10.51-25.43,9.51-8.69-.72-17.16-7.34-17.7-15.33a12.73,12.73,0,0,1,4.63-10.26,21.27,21.27,0,0,1,10.37-4.9c7.62-1.29,15.14,1,21,4.77a41.27,41.27,0,0,1,13.47,14.46c6.09,11,6,22.62,5,31.32a93.56,93.56,0,0,1-5,20C1617.91,2208.87,1616.91,2211.16,1617.05,2211.22Z" transform="translate(-527.56 -657.82)"/><rect class="cls-4" x="1422.18" y="1938.35" width="137.03" height="269.21" transform="translate(2453.83 3488.09) rotate(180)"/><g class="cls-7"><rect x="1422.18" y="1938.35" width="137.03" height="269.21" transform="translate(2453.83 3488.09) rotate(180)"/></g><path class="cls-2" d="M1426.88,1983.08c0,1,29.7,1.86,66.32,1.86s66.32-.83,66.32-1.86-29.68-1.86-66.32-1.86S1426.88,1982.06,1426.88,1983.08Z" transform="translate(-527.56 -657.82)"/><path class="cls-2" d="M1425.18,2003.49c0,1,29.32,1.86,65.47,1.86s65.47-.83,65.47-1.86-29.31-1.86-65.47-1.86S1425.18,2002.46,1425.18,2003.49Z" transform="translate(-527.56 -657.82)"/><path class="cls-2" d="M1420.78,2177.13c0,1,30.87,1.86,68.94,1.86s69-.84,69-1.86-30.86-1.86-69-1.86S1420.78,2176.1,1420.78,2177.13Z" transform="translate(-527.56 -657.82)"/><path class="cls-2" d="M1422.63,2153.14c0,1,30.07,1.86,67.17,1.86s67.17-.84,67.17-1.86-30.07-1.86-67.17-1.86S1422.63,2152.11,1422.63,2153.14Z" transform="translate(-527.56 -657.82)"/><rect class="cls-5" x="1824.64" y="1909.93" width="78.98" height="295.6" transform="translate(3200.7 3457.65) rotate(180)"/><path class="cls-6" d="M1881.41,2209.33a7,7,0,0,0,.92-1.61c.56-1.08,1.32-2.73,2.25-4.92a85.87,85.87,0,0,0,5.73-20c1.26-8.86,1.62-20.76-4.61-32.52a43.21,43.21,0,0,0-14-15.45c-6.21-4.09-14.32-6.71-22.75-5.38a23.88,23.88,0,0,0-11.76,5.44,15.53,15.53,0,0,0-5.67,12.46c.22,5,3.07,9.42,6.76,12.53a24.45,24.45,0,0,0,13.47,5.72c10,1.17,20.4-3,28-10.19,7.87-7,12.66-17.54,13.89-28.41s-.44-22.24-4.1-33-9.72-21.32-19.36-28.81a31.68,31.68,0,0,0-17.05-6.71,22.12,22.12,0,0,0-17.74,6.29,14.42,14.42,0,0,0-4.06,9.25,16.9,16.9,0,0,0,2.72,9.66c3.54,5.7,9.6,9.35,15.94,10.88,12.91,2.78,26.36-2.33,34.79-11.65s12.28-21.6,13.54-33.28.31-23.6-3.39-34.51-10.76-20.62-20.41-26.24c-9.42-5.72-21.35-7.59-31.37-3.29-5,2-9.37,6.59-10.21,12.06a19.07,19.07,0,0,0,3.6,14.89c6.62,8.34,18,9.73,26.61,7,8.88-2.73,15.69-8.71,21-14.9a67.06,67.06,0,0,0,15.74-40.54,65.32,65.32,0,0,0-19.71-48.86,48,48,0,0,0-4.1-3.54,6.93,6.93,0,0,0-1.53-1c-.52.37,8.62,5.91,16.75,22a64.39,64.39,0,0,1,6.52,31.38,65.2,65.2,0,0,1-15.67,38.92c-5.14,5.9-11.71,11.46-19.81,13.86-7.82,2.42-18,.85-23.33-6.15a16,16,0,0,1-2.93-12.43c.73-4.38,4.06-7.86,8.39-9.66,8.77-3.73,19.64-2.1,28.3,3.23,8.86,5.22,15.4,14.18,18.81,24.46s4.29,21.69,3.13,33-4.87,22.67-12.66,31.19c-7.54,8.4-19.91,13-31.22,10.52-5.53-1.34-10.71-4.51-13.62-9.22s-3-10.64.88-14.41a18.52,18.52,0,0,1,14.8-5.17,28.18,28.18,0,0,1,15.11,6c8.81,6.78,14.66,16.84,18.19,27.05s5.23,21.15,4.06,31.43-5.48,19.87-12.72,26.42c-7,6.66-16.48,10.51-25.43,9.52-8.69-.72-17.15-7.35-17.69-15.33a12.72,12.72,0,0,1,4.62-10.26,21.36,21.36,0,0,1,10.38-4.91c7.62-1.28,15.13,1,21,4.77a41.21,41.21,0,0,1,13.47,14.47c6.09,11,6,22.62,5,31.32a94.24,94.24,0,0,1-5,20C1882.26,2207,1881.27,2209.26,1881.41,2209.33Z" transform="translate(-527.56 -657.82)"/><rect class="cls-4" x="1273.57" y="1895.01" width="109.75" height="310.52" transform="translate(2129.32 3442.73) rotate(180)"/><g class="cls-8"><rect class="cls-9" x="1273.57" y="1895.01" width="109.75" height="310.52" transform="translate(2129.32 3442.73) rotate(180)"/></g><rect class="cls-3" x="1903.62" y="1929.09" width="102.65" height="276.45" transform="translate(3382.33 3476.8) rotate(180)"/><path class="cls-6" d="M2008.85,2067c.47-.51,5.21,6.06,16.32,11.6a56.87,56.87,0,0,0,20.65,5.73,53.24,53.24,0,0,0,25.62-4.46c8.66-3.7,16.61-8.45,24.65-11.23s16-3.73,22.37-2a23.85,23.85,0,0,1,13,7.86c2.28,2.85,2.66,4.9,2.54,4.94s-1-1.71-3.45-4.13a24.26,24.26,0,0,0-12.55-6.52c-5.91-1.28-13.32-.31-20.9,2.6s-15.45,7.55-24.41,11.4a54.35,54.35,0,0,1-27.1,4.44,55.75,55.75,0,0,1-21.41-6.63,47.21,47.21,0,0,1-12-9.17C2009.74,2068.76,2008.72,2067.05,2008.85,2067Z" transform="translate(-527.56 -657.82)"/><path class="cls-6" d="M2006.54,2094.31c.47-.5,5.21,6.07,16.32,11.61a57.07,57.07,0,0,0,20.65,5.73,53.36,53.36,0,0,0,25.62-4.46c8.66-3.7,16.61-8.45,24.65-11.23s16-3.74,22.37-2a23.9,23.9,0,0,1,13,7.85c2.28,2.86,2.66,4.91,2.54,4.94s-1-1.7-3.45-4.13a24.33,24.33,0,0,0-12.55-6.51c-5.91-1.29-13.32-.31-20.9,2.59s-15.45,7.56-24.41,11.41a54.45,54.45,0,0,1-27.1,4.44,55.75,55.75,0,0,1-21.41-6.64,47.4,47.4,0,0,1-12-9.16C2007.43,2096.11,2006.41,2094.41,2006.54,2094.31Z" transform="translate(-527.56 -657.82)"/><path class="cls-6" d="M2008.24,2005.77c0-.86,28.26-1.56,63.11-1.56s63.13.7,63.13,1.56-28.26,1.56-63.13,1.56S2008.24,2006.63,2008.24,2005.77Z" transform="translate(-527.56 -657.82)"/><path class="cls-6" d="M1961.74,1973.63c-.23.49-3.43-2.31-8.93-.75a10.81,10.81,0,0,0-7,5.76c-1.42,3.07-.3,7.22,2.63,10s7.1,3.77,10.12,2.23a10.82,10.82,0,0,0,5.48-7.16c1.34-5.57-1.58-8.65-1.09-8.9.1-.11,1,.38,2,1.91a11.2,11.2,0,0,1,1.3,7.41,12.67,12.67,0,0,1-6.38,9.32c-4.14,2.31-10,1-13.56-2.56s-5.23-9.22-3.09-13.45a12.7,12.7,0,0,1,9.07-6.74,11.21,11.21,0,0,1,7.45,1C1961.32,1972.63,1961.84,1973.52,1961.74,1973.63Z" transform="translate(-527.56 -657.82)"/><path class="cls-6" d="M1955.1,2177.86c-.86,0-1.56-38.75-1.56-86.54s.7-86.55,1.56-86.55,1.56,38.74,1.56,86.55S1956,2177.86,1955.1,2177.86Z" transform="translate(-527.56 -657.82)"/><path class="cls-5" d="M2173,1037l-958-5.07h-86.58V3195h86.58V3041h958l-.15,154h86.59l.15-154V1037Zm0,1943.22h-958V2651.32h958Zm0-389.69h-958V2261.63h958Zm0-389.69h-958V1872h958Zm0-389.68h-958V1482.26h958Zm0-389.69h-958V1097.78h958Z" transform="translate(-527.56 -657.82)"/><rect class="cls-3" x="1730.7" y="379.15" width="271.74" height="2158.02"/><rect class="cls-5" x="1070.53" y="687.4" width="262.16" height="75.31"/><path class="cls-3" d="M1622.79,1415.37c-.87,0-1.57-15.45-1.57-34.51s.7-34.52,1.57-34.52,1.56,15.45,1.56,34.52S1623.65,1415.37,1622.79,1415.37Z" transform="translate(-527.56 -657.82)"/><path class="cls-3" d="M1634.28,1415.37c-.86,0-1.56-15.45-1.56-34.51s.7-34.52,1.56-34.52,1.56,15.45,1.56,34.52S1635.15,1415.37,1634.28,1415.37Z" transform="translate(-527.56 -657.82)"/><path class="cls-3" d="M1819.5,1415.37c-.86,0-1.56-15.45-1.56-34.51s.7-34.52,1.56-34.52,1.56,15.45,1.56,34.52S1820.36,1415.37,1819.5,1415.37Z" transform="translate(-527.56 -657.82)"/><path class="cls-3" d="M1829.84,1415.37c-.87,0-1.56-15.45-1.56-34.51s.69-34.52,1.56-34.52,1.56,15.45,1.56,34.52S1830.7,1415.37,1829.84,1415.37Z" transform="translate(-527.56 -657.82)"/><path class="cls-3" d="M1801.7,1381.53c0,.86-34,1.56-75.91,1.56s-75.92-.7-75.92-1.56,34-1.56,75.92-1.56S1801.7,1380.67,1801.7,1381.53Z" transform="translate(-527.56 -657.82)"/><rect class="cls-4" x="1091.92" y="612.15" width="262.16" height="75.31"/><path class="cls-3" d="M1644.17,1340.12c-.86,0-1.56-15.46-1.56-34.52s.7-34.52,1.56-34.52,1.56,15.45,1.56,34.52S1645,1340.12,1644.17,1340.12Z" transform="translate(-527.56 -657.82)"/><path class="cls-3" d="M1655.67,1340.12c-.86,0-1.56-15.46-1.56-34.52s.7-34.52,1.56-34.52,1.56,15.45,1.56,34.52S1656.53,1340.12,1655.67,1340.12Z" transform="translate(-527.56 -657.82)"/><path class="cls-3" d="M1840.89,1340.12c-.86,0-1.56-15.46-1.56-34.52s.7-34.52,1.56-34.52,1.56,15.45,1.56,34.52S1841.75,1340.12,1840.89,1340.12Z" transform="translate(-527.56 -657.82)"/><path class="cls-3" d="M1851.23,1340.12c-.87,0-1.57-15.46-1.57-34.52s.7-34.52,1.57-34.52,1.56,15.45,1.56,34.52S1852.09,1340.12,1851.23,1340.12Z" transform="translate(-527.56 -657.82)"/><path class="cls-3" d="M1823.09,1306.27c0,.87-34,1.57-75.92,1.57s-75.91-.7-75.91-1.57,34-1.56,75.91-1.56S1823.09,1305.41,1823.09,1306.27Z" transform="translate(-527.56 -657.82)"/><rect class="cls-4" x="1013.39" y="469" width="39.49" height="295.61"/><path class="cls-6" d="M1578.81,1167.09c0,1-8.29,1.86-18.5,1.86s-18.51-.83-18.51-1.86,8.29-1.86,18.51-1.86S1578.81,1166.07,1578.81,1167.09Z" transform="translate(-527.56 -657.82)"/><path class="cls-6" d="M1579.61,1160.66c0,1-8.28,1.86-18.5,1.86s-18.5-.84-18.5-1.86,8.28-1.86,18.5-1.86S1579.61,1159.63,1579.61,1160.66Z" transform="translate(-527.56 -657.82)"/><path class="cls-6" d="M1578.81,1399.57c0,1-8.29,1.86-18.5,1.86s-18.51-.83-18.51-1.86,8.29-1.86,18.51-1.86S1578.81,1398.54,1578.81,1399.57Z" transform="translate(-527.56 -657.82)"/><path class="cls-6" d="M1579.61,1393.13c0,1-8.28,1.86-18.5,1.86s-18.5-.83-18.5-1.86,8.28-1.86,18.5-1.86S1579.61,1392.11,1579.61,1393.13Z" transform="translate(-527.56 -657.82)"/><path class="cls-6" d="M1559.5,1354.52c-1,0-1.86-33.86-1.86-75.61s.83-75.62,1.86-75.62,1.86,33.85,1.86,75.62S1560.53,1354.52,1559.5,1354.52Z" transform="translate(-527.56 -657.82)"/><rect class="cls-4" x="796.93" y="467.11" width="78.98" height="295.6"/><path class="cls-6" d="M1346.71,1424.32a6.75,6.75,0,0,1-.92-1.6c-.56-1.09-1.32-2.74-2.25-4.93a85.64,85.64,0,0,1-5.74-20c-1.26-8.86-1.61-20.75,4.62-32.52a43.28,43.28,0,0,1,14-15.45c6.2-4.08,14.31-6.71,22.75-5.37a23.9,23.9,0,0,1,11.76,5.43,15.55,15.55,0,0,1,5.66,12.47c-.21,5-3.06,9.42-6.75,12.53a24.55,24.55,0,0,1-13.47,5.72c-10,1.17-20.4-3-28-10.2-7.87-7-12.66-17.54-13.89-28.4s.44-22.25,4.09-33,9.72-21.33,19.36-28.81a31.73,31.73,0,0,1,17.06-6.72,22.12,22.12,0,0,1,17.74,6.3,14.38,14.38,0,0,1,4.06,9.24,16.93,16.93,0,0,1-2.72,9.67c-3.55,5.7-9.6,9.34-15.94,10.87-12.91,2.78-26.37-2.33-34.79-11.65s-12.28-21.6-13.55-33.28-.3-23.6,3.4-34.5,10.76-20.63,20.4-26.25c9.43-5.72,21.36-7.59,31.38-3.29,5,2,9.36,6.6,10.2,12.06a19,19,0,0,1-3.59,14.89c-6.62,8.35-18,9.74-26.61,7-8.89-2.73-15.69-8.71-21-14.9a67.11,67.11,0,0,1-15.75-40.53,65,65,0,0,1,7.3-32.12,64.25,64.25,0,0,1,12.41-16.75,49.4,49.4,0,0,1,4.11-3.54,6.67,6.67,0,0,1,1.53-1c.51.38-8.62,5.92-16.76,22a64.24,64.24,0,0,0-6.51,31.37,65.2,65.2,0,0,0,15.67,38.92c5.14,5.91,11.7,11.46,19.8,13.86,7.83,2.42,18,.85,23.34-6.15a15.94,15.94,0,0,0,2.93-12.42c-.73-4.39-4.07-7.86-8.39-9.67-8.77-3.73-19.65-2.1-28.31,3.23-8.85,5.22-15.4,14.18-18.8,24.46s-4.3,21.69-3.14,33,4.88,22.66,12.66,31.18c7.54,8.41,19.92,13,31.22,10.52,5.53-1.34,10.71-4.51,13.62-9.22s3-10.64-.87-14.41a18.52,18.52,0,0,0-14.8-5.16,28.09,28.09,0,0,0-15.11,6c-8.81,6.78-14.66,16.84-18.2,27s-5.22,21.15-4,31.43,5.48,19.87,12.72,26.42c7,6.67,16.48,10.52,25.42,9.52,8.69-.72,17.16-7.34,17.7-15.33a12.72,12.72,0,0,0-4.62-10.26,21.35,21.35,0,0,0-10.38-4.9c-7.62-1.29-15.13,1-21,4.77a41.19,41.19,0,0,0-13.47,14.46c-6.09,11-6,22.62-5,31.32a94.07,94.07,0,0,0,5,20C1345.86,1422,1346.85,1424.26,1346.71,1424.32Z" transform="translate(-527.56 -657.82)"/><rect class="cls-4" x="876.99" y="493.63" width="137.03" height="269.21"/><g class="cls-7"><rect x="876.99" y="493.63" width="137.03" height="269.21"/></g><path class="cls-2" d="M1536.88,1196.18c0,1-29.69,1.86-66.32,1.86s-66.32-.83-66.32-1.86,29.69-1.86,66.32-1.86S1536.88,1195.15,1536.88,1196.18Z" transform="translate(-527.56 -657.82)"/><path class="cls-2" d="M1538.58,1216.59c0,1-29.31,1.86-65.47,1.86s-65.47-.84-65.47-1.86,29.31-1.86,65.47-1.86S1538.58,1215.56,1538.58,1216.59Z" transform="translate(-527.56 -657.82)"/><path class="cls-2" d="M1543,1390.22c0,1-30.87,1.86-68.94,1.86s-69-.83-69-1.86,30.86-1.86,69-1.86S1543,1389.2,1543,1390.22Z" transform="translate(-527.56 -657.82)"/><path class="cls-2" d="M1541.13,1366.24c0,1-30.07,1.86-67.17,1.86s-67.17-.84-67.17-1.86,30.07-1.86,67.17-1.86S1541.13,1365.21,1541.13,1366.24Z" transform="translate(-527.56 -657.82)"/><rect class="cls-3" x="1076.75" y="586.9" width="324.63" height="25.25"/><path class="cls-9" d="M1628.39,1268.35c-.86,0-1.56-5-1.56-11.17s.7-11.17,1.56-11.17,1.56,5,1.56,11.17S1629.25,1268.35,1628.39,1268.35Z" transform="translate(-527.56 -657.82)"/><path class="cls-9" d="M1908.64,1268.35c-.86,0-1.56-5-1.56-11.17s.7-11.17,1.56-11.17,1.56,5,1.56,11.17S1909.5,1268.35,1908.64,1268.35Z" transform="translate(-527.56 -657.82)"/><path class="cls-9" d="M1895.88,1257.18c0,.86-56.43,1.56-126,1.56s-126-.7-126-1.56,56.42-1.56,126-1.56S1895.88,1256.32,1895.88,1257.18Z" transform="translate(-527.56 -657.82)"/><rect class="cls-4" x="1500.68" y="517.76" width="41.28" height="245.74"/><g class="cls-8"><rect x="1500.68" y="517.76" width="41.28" height="245.74"/></g><rect class="cls-3" x="1542.7" y="483.48" width="102.78" height="280.02"/><path class="cls-6" d="M2174.23,1161.53c0,.86-23.5,1.56-52.49,1.56s-52.49-.7-52.49-1.56,23.5-1.56,52.49-1.56S2174.23,1160.66,2174.23,1161.53Z" transform="translate(-527.56 -657.82)"/><path class="cls-6" d="M2168.54,1174.81c0,.86-22.23,1.56-49.64,1.56s-49.65-.7-49.65-1.56,22.23-1.56,49.65-1.56S2168.54,1174,2168.54,1174.81Z" transform="translate(-527.56 -657.82)"/><path class="cls-6" d="M2124.59,1366.11c-.87,0-1.56-37.1-1.56-82.84s.69-82.85,1.56-82.85,1.56,37.08,1.56,82.85S2125.45,1366.11,2124.59,1366.11Z" transform="translate(-527.56 -657.82)"/><path class="cls-6" d="M2173,1391.72c0,.86-22.53,1.56-50.31,1.56s-50.32-.7-50.32-1.56,22.53-1.56,50.32-1.56S2173,1390.86,2173,1391.72Z" transform="translate(-527.56 -657.82)"/><path class="cls-6" d="M2173,1403.73c0,.87-23.09,1.56-51.58,1.56s-51.58-.69-51.58-1.56,23.09-1.56,51.58-1.56S2173,1402.87,2173,1403.73Z" transform="translate(-527.56 -657.82)"/><rect class="cls-4" x="1418.78" y="483.48" width="82.56" height="280.02"/><path class="cls-6" d="M2029.42,1269.9c.25.35-4.12,4-11.47,9.68s-17.69,13.16-29.33,21.15-22.4,14.92-30.29,19.75-12.93,7.58-13.16,7.22,4.37-3.77,11.95-9.06l29.73-20.48,29.81-20.37C2024.33,1272.63,2029.16,1269.55,2029.42,1269.9Z" transform="translate(-527.56 -657.82)"/><path class="cls-6" d="M2029.78,1226.06c.53.68-17.51,15.51-40.28,33.12s-41.66,31.34-42.19,30.65,17.5-15.5,40.28-33.12S2029.25,1225.38,2029.78,1226.06Z" transform="translate(-527.56 -657.82)"/><rect class="cls-5" x="1603.45" y="2517.4" width="262.16" height="75.31" transform="translate(2941.5 4452.29) rotate(180)"/><path class="cls-3" d="M1840.92,2587.55c-.86,0-1.56-15.45-1.56-34.51s.7-34.52,1.56-34.52,1.56,15.45,1.56,34.52S1841.78,2587.55,1840.92,2587.55Z" transform="translate(-527.56 -657.82)"/><path class="cls-3" d="M1829.42,2587.55c-.86,0-1.56-15.45-1.56-34.51s.7-34.52,1.56-34.52S1831,2534,1831,2553,1830.28,2587.55,1829.42,2587.55Z" transform="translate(-527.56 -657.82)"/><path class="cls-3" d="M1644.2,2587.55c-.86,0-1.56-15.45-1.56-34.51s.7-34.52,1.56-34.52,1.56,15.45,1.56,34.52S1645.06,2587.55,1644.2,2587.55Z" transform="translate(-527.56 -657.82)"/><path class="cls-3" d="M1633.87,2587.55c-.87,0-1.56-15.45-1.56-34.51s.69-34.52,1.56-34.52,1.56,15.45,1.56,34.52S1634.73,2587.55,1633.87,2587.55Z" transform="translate(-527.56 -657.82)"/><path class="cls-3" d="M1662,2553.71c0-.86,34-1.56,75.92-1.56s75.92.7,75.92,1.56-34,1.56-75.92,1.56S1662,2554.57,1662,2553.71Z" transform="translate(-527.56 -657.82)"/><rect class="cls-4" x="1586.5" y="2449.02" width="262.16" height="75.31" transform="translate(2907.6 4315.52) rotate(180)"/><path class="cls-3" d="M1824,2519.17c-.87,0-1.57-15.46-1.57-34.52s.7-34.52,1.57-34.52,1.56,15.45,1.56,34.52S1824.83,2519.17,1824,2519.17Z" transform="translate(-527.56 -657.82)"/><path class="cls-3" d="M1812.47,2519.17c-.86,0-1.56-15.46-1.56-34.52s.7-34.52,1.56-34.52,1.56,15.45,1.56,34.52S1813.33,2519.17,1812.47,2519.17Z" transform="translate(-527.56 -657.82)"/><path class="cls-3" d="M1627.25,2519.17c-.86,0-1.56-15.46-1.56-34.52s.7-34.52,1.56-34.52,1.56,15.45,1.56,34.52S1628.11,2519.17,1627.25,2519.17Z" transform="translate(-527.56 -657.82)"/><path class="cls-3" d="M1616.91,2519.17c-.86,0-1.56-15.46-1.56-34.52s.7-34.52,1.56-34.52,1.57,15.45,1.57,34.52S1617.78,2519.17,1616.91,2519.17Z" transform="translate(-527.56 -657.82)"/><path class="cls-3" d="M1645.05,2485.32c0-.86,34-1.56,75.91-1.56s75.92.7,75.92,1.56-34,1.57-75.92,1.57S1645.05,2486.19,1645.05,2485.32Z" transform="translate(-527.56 -657.82)"/><rect class="cls-4" x="1887.7" y="2299.6" width="39.49" height="295.61" transform="translate(3287.32 4236.98) rotate(180)"/><path class="cls-6" d="M1889.33,2339.87c0,1,8.29,1.86,18.5,1.86s18.51-.84,18.51-1.86-8.29-1.86-18.51-1.86S1889.33,2338.84,1889.33,2339.87Z" transform="translate(-527.56 -657.82)"/><path class="cls-6" d="M1888.53,2333.43c0,1,8.28,1.86,18.5,1.86s18.5-.83,18.5-1.86-8.28-1.86-18.5-1.86S1888.53,2332.41,1888.53,2333.43Z" transform="translate(-527.56 -657.82)"/><path class="cls-6" d="M1889.33,2572.34c0,1,8.29,1.86,18.5,1.86s18.51-.83,18.51-1.86-8.29-1.86-18.51-1.86S1889.33,2571.32,1889.33,2572.34Z" transform="translate(-527.56 -657.82)"/><path class="cls-6" d="M1888.53,2565.91c0,1,8.28,1.86,18.5,1.86s18.5-.84,18.5-1.86-8.28-1.86-18.5-1.86S1888.53,2564.88,1888.53,2565.91Z" transform="translate(-527.56 -657.82)"/><path class="cls-6" d="M1908.64,2527.3c1,0,1.86-33.86,1.86-75.62s-.83-75.61-1.86-75.61-1.86,33.84-1.86,75.61S1907.61,2527.3,1908.64,2527.3Z" transform="translate(-527.56 -657.82)"/><rect class="cls-3" x="2064.66" y="2297.7" width="78.98" height="295.6" transform="translate(3680.75 4233.19) rotate(180)"/><path class="cls-6" d="M2121.43,2597.09a6.47,6.47,0,0,0,.92-1.6c.56-1.08,1.32-2.73,2.25-4.92a85.75,85.75,0,0,0,5.74-20.05c1.26-8.86,1.61-20.75-4.62-32.52a43.17,43.17,0,0,0-14-15.44c-6.2-4.09-14.31-6.72-22.75-5.38a24,24,0,0,0-11.76,5.43,15.52,15.52,0,0,0-5.66,12.47c.21,5,3.06,9.42,6.75,12.53a24.55,24.55,0,0,0,13.47,5.72c10,1.17,20.4-3,28-10.19,7.87-7,12.66-17.55,13.89-28.41s-.44-22.25-4.09-33-9.72-21.32-19.36-28.81a31.75,31.75,0,0,0-17.06-6.71,22.12,22.12,0,0,0-17.74,6.29,14.38,14.38,0,0,0-4.06,9.25,16.92,16.92,0,0,0,2.72,9.66c3.54,5.7,9.6,9.35,15.94,10.88,12.91,2.78,26.37-2.33,34.79-11.66s12.28-21.59,13.55-33.28.3-23.6-3.4-34.5-10.76-20.62-20.4-26.24c-9.43-5.72-21.36-7.6-31.38-3.29-5,2-9.36,6.59-10.2,12.06a19,19,0,0,0,3.59,14.89c6.62,8.34,18,9.73,26.61,7,8.89-2.74,15.69-8.71,21-14.9a67.16,67.16,0,0,0,15.75-40.54,65,65,0,0,0-7.3-32.12,64.17,64.17,0,0,0-12.41-16.74,47.52,47.52,0,0,0-4.11-3.54,7,7,0,0,0-1.53-1c-.51.38,8.62,5.92,16.76,22a64.37,64.37,0,0,1,6.51,31.38,65.23,65.23,0,0,1-15.67,38.92c-5.14,5.9-11.7,11.46-19.8,13.86-7.83,2.41-18,.85-23.34-6.15a16,16,0,0,1-2.93-12.43c.73-4.38,4.06-7.86,8.39-9.67,8.77-3.72,19.65-2.09,28.3,3.23,8.86,5.23,15.4,14.18,18.81,24.46s4.3,21.7,3.14,33-4.88,22.67-12.67,31.18c-7.53,8.41-19.91,13-31.21,10.53-5.54-1.34-10.71-4.52-13.62-9.22s-3-10.65.87-14.41a18.53,18.53,0,0,1,14.8-5.17,28.1,28.1,0,0,1,15.11,6c8.81,6.78,14.66,16.84,18.2,27.05s5.22,21.14,4.05,31.42-5.48,19.87-12.72,26.43c-7,6.66-16.48,10.51-25.42,9.52-8.69-.72-17.16-7.35-17.7-15.34a12.75,12.75,0,0,1,4.62-10.26,21.35,21.35,0,0,1,10.38-4.9c7.62-1.29,15.13,1,21,4.77A41.27,41.27,0,0,1,2123.9,2539c6.09,11,6,22.63,5,31.33a94.12,94.12,0,0,1-5,20C2122.28,2594.74,2121.29,2597,2121.43,2597.09Z" transform="translate(-527.56 -657.82)"/><rect class="cls-4" x="1926.56" y="2324.22" width="137.03" height="269.21" transform="translate(3462.58 4259.83) rotate(180)"/><g class="cls-7"><rect x="1926.56" y="2324.22" width="137.03" height="269.21" transform="translate(3462.58 4259.83) rotate(180)"/></g><path class="cls-2" d="M1931.26,2369c0,1,29.69,1.86,66.32,1.86s66.32-.83,66.32-1.86-29.69-1.85-66.32-1.85S1931.26,2367.93,1931.26,2369Z" transform="translate(-527.56 -657.82)"/><path class="cls-2" d="M1929.56,2389.36c0,1,29.31,1.86,65.47,1.86s65.47-.83,65.47-1.86-29.31-1.86-65.47-1.86S1929.56,2388.33,1929.56,2389.36Z" transform="translate(-527.56 -657.82)"/><path class="cls-2" d="M1925.16,2563c0,1,30.87,1.86,68.94,1.86s69-.83,69-1.86-30.86-1.86-69-1.86S1925.16,2562,1925.16,2563Z" transform="translate(-527.56 -657.82)"/><path class="cls-2" d="M1927,2539c0,1,30.07,1.86,67.17,1.86s67.17-.83,67.17-1.86-30.07-1.86-67.17-1.86S1927,2538,1927,2539Z" transform="translate(-527.56 -657.82)"/><rect class="cls-3" x="1539.19" y="2423.77" width="324.63" height="25.24" transform="translate(2875.46 4214.97) rotate(180)"/><path class="cls-9" d="M1839.75,2447.4c-.86,0-1.56-5-1.56-11.17s.7-11.17,1.56-11.17,1.56,5,1.56,11.17S1840.61,2447.4,1839.75,2447.4Z" transform="translate(-527.56 -657.82)"/><path class="cls-9" d="M1559.5,2447.4c-.86,0-1.56-5-1.56-11.17s.7-11.17,1.56-11.17,1.56,5,1.56,11.17S1560.36,2447.4,1559.5,2447.4Z" transform="translate(-527.56 -657.82)"/><path class="cls-9" d="M1572.26,2436.23c0-.86,56.43-1.56,126-1.56s126,.7,126,1.56-56.42,1.56-126,1.56S1572.26,2437.09,1572.26,2436.23Z" transform="translate(-527.56 -657.82)"/><rect class="cls-4" x="1398.62" y="2348.36" width="41.28" height="245.74" transform="translate(2310.96 4284.63) rotate(180)"/><g class="cls-8"><rect x="1398.62" y="2348.36" width="41.28" height="245.74" transform="translate(2310.96 4284.63) rotate(180)"/></g><rect class="cls-4" x="1295.1" y="2314.07" width="102.78" height="280.02" transform="translate(2165.42 4250.35) rotate(180)"/><path class="cls-6" d="M1293.91,2334.3c0-.86,23.5-1.56,52.49-1.56s52.49.7,52.49,1.56-23.5,1.56-52.49,1.56S1293.91,2335.16,1293.91,2334.3Z" transform="translate(-527.56 -657.82)"/><path class="cls-6" d="M1299.6,2347.58c0-.86,22.23-1.56,49.64-1.56s49.65.7,49.65,1.56-22.23,1.56-49.65,1.56S1299.6,2348.44,1299.6,2347.58Z" transform="translate(-527.56 -657.82)"/><path class="cls-6" d="M1343.55,2538.88c-.86,0-1.56-37.09-1.56-82.84s.7-82.85,1.56-82.85,1.56,37.09,1.56,82.85S1344.42,2538.88,1343.55,2538.88Z" transform="translate(-527.56 -657.82)"/><path class="cls-6" d="M1295.1,2564.49c0-.86,22.53-1.56,50.31-1.56s50.32.7,50.32,1.56-22.53,1.56-50.32,1.56S1295.1,2565.35,1295.1,2564.49Z" transform="translate(-527.56 -657.82)"/><path class="cls-6" d="M1295.1,2576.51c0-.87,23.09-1.56,51.57-1.56s51.58.69,51.58,1.56-23.08,1.56-51.58,1.56S1295.1,2577.37,1295.1,2576.51Z" transform="translate(-527.56 -657.82)"/><rect class="cls-4" x="1439.24" y="2314.07" width="82.56" height="280.02" transform="translate(2433.48 4250.35) rotate(180)"/><path class="cls-6" d="M1438.72,2442.68c.26-.35,5.09,2.72,12.76,7.88l29.81,20.37,29.73,20.48c7.58,5.3,12.19,8.7,12,9.07s-5.26-2.39-13.16-7.22-18.64-11.77-30.29-19.75-22-15.52-29.33-21.15S1438.47,2443,1438.72,2442.68Z" transform="translate(-527.56 -657.82)"/><path class="cls-6" d="M1438.36,2398.84c.53-.69,19.42,13,42.19,30.65s40.81,32.44,40.28,33.12-19.42-13-42.19-30.65S1437.83,2399.52,1438.36,2398.84Z" transform="translate(-527.56 -657.82)"/><path class="cls-6" d="M1444.38,1799.73c0,.86-29.07,1.56-64.92,1.56s-64.93-.7-64.93-1.56,29.07-1.56,64.93-1.56S1444.38,1798.87,1444.38,1799.73Z" transform="translate(-527.56 -657.82)"/><rect class="cls-4" x="786.38" y="928.6" width="130.15" height="224.31"/><rect class="cls-5" x="1176.84" y="876.47" width="102.78" height="280.02"/><path class="cls-6" d="M1808.37,1554.51c0,.87-23.5,1.57-52.49,1.57s-52.49-.7-52.49-1.57,23.5-1.56,52.49-1.56S1808.37,1553.65,1808.37,1554.51Z" transform="translate(-527.56 -657.82)"/><path class="cls-6" d="M1802.68,1567.8c0,.86-22.23,1.56-49.64,1.56s-49.65-.7-49.65-1.56,22.22-1.57,49.65-1.57S1802.68,1566.93,1802.68,1567.8Z" transform="translate(-527.56 -657.82)"/><path class="cls-6" d="M1758.72,1759.09c-.86,0-1.56-37.09-1.56-82.84s.7-82.84,1.56-82.84,1.57,37.08,1.57,82.84S1759.59,1759.09,1758.72,1759.09Z" transform="translate(-527.56 -657.82)"/><path class="cls-6" d="M1807.18,1784.71c0,.86-22.53,1.56-50.31,1.56s-50.32-.7-50.32-1.56,22.52-1.57,50.32-1.57S1807.18,1783.84,1807.18,1784.71Z" transform="translate(-527.56 -657.82)"/><path class="cls-6" d="M1807.18,1796.72c0,.86-23.1,1.56-51.58,1.56s-51.58-.7-51.58-1.56,23.09-1.56,51.58-1.56S1807.18,1795.86,1807.18,1796.72Z" transform="translate(-527.56 -657.82)"/><rect class="cls-4" x="1094.34" y="841.05" width="82.56" height="310.3"/><path class="cls-6" d="M1705,1646.52c.27.33-4.07,4.38-11.4,10.57s-17.63,14.5-29.27,23.36-22.42,16.57-30.34,22-13,8.51-13.24,8.16,4.36-4.09,11.94-9.94l29.75-22.67,29.79-22.6C1699.87,1649.62,1704.71,1646.18,1705,1646.52Z" transform="translate(-527.56 -657.82)"/><path class="cls-6" d="M1705.34,1597.93c.57.66-17.44,17-40.21,36.52s-41.69,34.81-42.26,34.15,17.45-17,40.23-36.52S1704.78,1597.28,1705.34,1597.93Z" transform="translate(-527.56 -657.82)"/><rect class="cls-4" x="1496.24" y="861.1" width="39.49" height="295.61"/><path class="cls-6" d="M2061.65,1559.2c0,1-8.28,1.86-18.5,1.86s-18.5-.84-18.5-1.86,8.28-1.86,18.5-1.86S2061.65,1558.17,2061.65,1559.2Z" transform="translate(-527.56 -657.82)"/><path class="cls-6" d="M2062.46,1552.76c0,1-8.29,1.86-18.5,1.86s-18.51-.83-18.51-1.86,8.29-1.86,18.51-1.86S2062.46,1551.73,2062.46,1552.76Z" transform="translate(-527.56 -657.82)"/><path class="cls-6" d="M2061.65,1791.67c0,1-8.28,1.86-18.5,1.86s-18.5-.83-18.5-1.86,8.28-1.86,18.5-1.86S2061.65,1790.64,2061.65,1791.67Z" transform="translate(-527.56 -657.82)"/><path class="cls-6" d="M2062.46,1785.23c0,1-8.29,1.86-18.5,1.86s-18.51-.83-18.51-1.86,8.29-1.85,18.51-1.85S2062.46,1784.21,2062.46,1785.23Z" transform="translate(-527.56 -657.82)"/><path class="cls-6" d="M2042.35,1746.62c-1,0-1.86-33.85-1.86-75.61s.83-75.62,1.86-75.62,1.86,33.85,1.86,75.62S2043.37,1746.62,2042.35,1746.62Z" transform="translate(-527.56 -657.82)"/><rect class="cls-3" x="1279.78" y="859.21" width="78.98" height="295.6"/><path class="cls-6" d="M1829.56,1816.42a6.65,6.65,0,0,1-.93-1.6c-.56-1.08-1.32-2.73-2.25-4.93a85.57,85.57,0,0,1-5.73-20c-1.26-8.86-1.62-20.75,4.61-32.52a43.37,43.37,0,0,1,14-15.45c6.21-4.08,14.32-6.71,22.75-5.37a23.94,23.94,0,0,1,11.77,5.43,15.55,15.55,0,0,1,5.66,12.47c-.22,4.95-3.06,9.42-6.76,12.53a24.49,24.49,0,0,1-13.47,5.72c-10,1.17-20.4-3.05-28-10.19-7.87-7-12.66-17.55-13.89-28.41s.44-22.25,4.1-33,9.72-21.33,19.36-28.81a31.77,31.77,0,0,1,17-6.72,22.19,22.19,0,0,1,17.75,6.3,14.42,14.42,0,0,1,4.05,9.24,16.93,16.93,0,0,1-2.72,9.67c-3.54,5.7-9.59,9.35-15.93,10.88-12.92,2.77-26.37-2.34-34.8-11.66s-12.28-21.59-13.54-33.28-.31-23.6,3.4-34.5,10.75-20.63,20.4-26.25c9.42-5.71,21.36-7.59,31.37-3.28,5,2,9.37,6.59,10.21,12a19.11,19.11,0,0,1-3.59,14.89c-6.62,8.35-18,9.74-26.62,7.05-8.88-2.74-15.69-8.72-21-14.9a67.09,67.09,0,0,1-15.75-40.54,65.37,65.37,0,0,1,19.71-48.87,47.8,47.8,0,0,1,4.11-3.54,6.78,6.78,0,0,1,1.52-1c.52.38-8.62,5.92-16.75,22a64.24,64.24,0,0,0-6.51,31.37,65.19,65.19,0,0,0,15.66,38.92c5.15,5.91,11.71,11.47,19.81,13.87,7.83,2.41,18,.84,23.33-6.15a16,16,0,0,0,2.94-12.43c-.74-4.39-4.07-7.86-8.4-9.67-8.77-3.73-19.64-2.1-28.3,3.23-8.86,5.23-15.4,14.18-18.81,24.46s-4.29,21.69-3.13,33,4.87,22.67,12.66,31.18c7.54,8.41,19.92,13,31.22,10.52,5.53-1.34,10.71-4.51,13.62-9.21s3-10.65-.88-14.42a18.53,18.53,0,0,0-14.8-5.16,28,28,0,0,0-15.1,6c-8.82,6.77-14.67,16.83-18.2,27s-5.23,21.14-4,31.42,5.47,19.87,12.71,26.43c7,6.66,16.48,10.51,25.43,9.51,8.69-.72,17.16-7.34,17.69-15.33A12.72,12.72,0,0,0,1872,1744a21.36,21.36,0,0,0-10.37-4.9c-7.63-1.29-15.14,1-21,4.77a41.33,41.33,0,0,0-13.46,14.46c-6.09,11-6,22.62-5,31.32a94.07,94.07,0,0,0,5,20C1828.7,1814.07,1829.7,1816.36,1829.56,1816.42Z" transform="translate(-527.56 -657.82)"/><rect class="cls-5" x="1359.84" y="885.73" width="137.03" height="269.21"/><path class="cls-2" d="M2019.73,1588.28c0,1-29.7,1.86-66.32,1.86s-66.33-.83-66.33-1.86,29.69-1.86,66.33-1.86S2019.73,1587.25,2019.73,1588.28Z" transform="translate(-527.56 -657.82)"/><path class="cls-2" d="M2021.43,1608.69c0,1-29.32,1.86-65.47,1.86s-65.48-.83-65.48-1.86,29.31-1.86,65.48-1.86S2021.43,1607.66,2021.43,1608.69Z" transform="translate(-527.56 -657.82)"/><path class="cls-2" d="M2025.83,1782.33c0,1-30.87,1.86-68.95,1.86s-69-.84-69-1.86,30.87-1.86,69-1.86S2025.83,1781.3,2025.83,1782.33Z" transform="translate(-527.56 -657.82)"/><path class="cls-2" d="M2024,1758.34c0,1-30.08,1.86-67.17,1.86s-67.18-.84-67.18-1.86,30.07-1.86,67.18-1.86S2024,1757.31,2024,1758.34Z" transform="translate(-527.56 -657.82)"/><rect class="cls-5" x="1015.42" y="857.31" width="78.98" height="295.6"/><path class="cls-6" d="M1565.2,1814.53a7,7,0,0,1-.92-1.61c-.56-1.08-1.32-2.73-2.25-4.92a85.79,85.79,0,0,1-5.74-20c-1.26-8.87-1.61-20.76,4.62-32.53a43.17,43.17,0,0,1,14-15.44c6.2-4.09,14.31-6.71,22.75-5.38a23.92,23.92,0,0,1,11.76,5.44,15.52,15.52,0,0,1,5.66,12.46c-.21,5-3.06,9.42-6.75,12.53a24.48,24.48,0,0,1-13.47,5.72c-10,1.17-20.4-3-28-10.19-7.87-7-12.66-17.54-13.89-28.41s.44-22.24,4.09-33,9.72-21.32,19.36-28.81a31.75,31.75,0,0,1,17.06-6.71,22.12,22.12,0,0,1,17.74,6.29,14.42,14.42,0,0,1,4.06,9.25,16.9,16.9,0,0,1-2.72,9.66c-3.54,5.7-9.6,9.35-15.94,10.88-12.91,2.78-26.37-2.33-34.79-11.65s-12.28-21.6-13.55-33.28-.3-23.6,3.4-34.51,10.76-20.62,20.4-26.24c9.43-5.72,21.36-7.59,31.38-3.29,5,2,9.36,6.59,10.2,12.06a19,19,0,0,1-3.59,14.89c-6.62,8.34-18,9.73-26.61,7-8.89-2.74-15.69-8.71-21-14.9a67.13,67.13,0,0,1-15.75-40.54,65,65,0,0,1,7.3-32.12,64.34,64.34,0,0,1,12.41-16.74,49.4,49.4,0,0,1,4.11-3.54c1-.74,1.49-1.1,1.53-1,.51.37-8.62,5.91-16.76,22a64.4,64.4,0,0,0-6.51,31.38,65.2,65.2,0,0,0,15.67,38.92c5.14,5.9,11.7,11.46,19.8,13.86,7.83,2.42,18,.85,23.34-6.15a16,16,0,0,0,2.93-12.43c-.73-4.38-4.07-7.86-8.39-9.66-8.77-3.73-19.64-2.1-28.3,3.23-8.86,5.22-15.4,14.18-18.81,24.46s-4.3,21.69-3.14,33,4.88,22.67,12.67,31.19c7.53,8.4,19.91,13,31.21,10.52,5.54-1.34,10.71-4.51,13.62-9.22s3-10.64-.87-14.41a18.53,18.53,0,0,0-14.8-5.17,28.18,28.18,0,0,0-15.11,6c-8.81,6.78-14.66,16.84-18.2,27s-5.22,21.14-4,31.43,5.48,19.87,12.72,26.42c7,6.66,16.48,10.51,25.42,9.52,8.69-.72,17.16-7.35,17.7-15.33a12.72,12.72,0,0,0-4.62-10.26,21.36,21.36,0,0,0-10.38-4.91c-7.62-1.28-15.13,1-21,4.77a41.21,41.21,0,0,0-13.47,14.47c-6.09,11-6,22.62-5,31.32a94.24,94.24,0,0,0,5,20C1564.35,1812.17,1565.34,1814.46,1565.2,1814.53Z" transform="translate(-527.56 -657.82)"/><rect class="cls-3" x="1535.73" y="842.39" width="109.75" height="310.52"/><rect class="cls-4" x="912.78" y="876.47" width="102.65" height="276.45"/><path class="cls-6" d="M1437.76,1672.16c.12.1-.9,1.8-3.34,4.39a47.13,47.13,0,0,1-12,9.17,55.8,55.8,0,0,1-21.42,6.63,54.41,54.41,0,0,1-27.09-4.44c-9-3.85-16.76-8.61-24.41-11.41s-15-3.87-20.91-2.59a24.22,24.22,0,0,0-12.54,6.52c-2.42,2.42-3.19,4.26-3.45,4.13s.26-2.09,2.54-4.94a23.86,23.86,0,0,1,13-7.86c6.38-1.69,14.42-.84,22.38,2s16,7.53,24.64,11.23a53.3,53.3,0,0,0,25.63,4.46,56.87,56.87,0,0,0,20.65-5.73C1432.55,1678.22,1437.29,1671.65,1437.76,1672.16Z" transform="translate(-527.56 -657.82)"/><path class="cls-6" d="M1440.07,1699.51c.12.1-.9,1.8-3.34,4.4a47.32,47.32,0,0,1-12,9.16,55.8,55.8,0,0,1-21.42,6.64,54.41,54.41,0,0,1-27.09-4.44c-9-3.85-16.76-8.61-24.41-11.41s-15-3.88-20.91-2.59a24.29,24.29,0,0,0-12.54,6.51c-2.42,2.43-3.19,4.27-3.45,4.13s.26-2.08,2.54-4.94a23.91,23.91,0,0,1,13-7.85c6.38-1.7,14.42-.84,22.38,2s16,7.53,24.64,11.23a53.42,53.42,0,0,0,25.63,4.46,57.07,57.07,0,0,0,20.65-5.73C1434.86,1705.58,1439.6,1699,1440.07,1699.51Z" transform="translate(-527.56 -657.82)"/><path class="cls-6" d="M1438.37,1611c0,.86-28.26,1.56-63.12,1.56s-63.12-.7-63.12-1.56,28.26-1.56,63.12-1.56S1438.37,1610.11,1438.37,1611Z" transform="translate(-527.56 -657.82)"/><path class="cls-6" d="M1484.87,1578.83c-.11-.11.42-1,2-1.89a11.21,11.21,0,0,1,7.45-1,12.67,12.67,0,0,1,9.06,6.74c2.15,4.22.63,10-3.08,13.44s-9.42,4.88-13.56,2.57a12.64,12.64,0,0,1-6.38-9.32,11.26,11.26,0,0,1,1.29-7.41c1-1.53,1.87-2,2-1.91.48.25-2.44,3.33-1.09,8.9a10.76,10.76,0,0,0,5.48,7.16c3,1.54,7.2.58,10.12-2.24s4-6.95,2.62-10a10.79,10.79,0,0,0-6.94-5.76C1488.29,1576.52,1485.1,1579.32,1484.87,1578.83Z" transform="translate(-527.56 -657.82)"/><path class="cls-6" d="M1491.51,1783.06c-.86,0-1.56-38.75-1.56-86.54s.7-86.55,1.56-86.55,1.56,38.74,1.56,86.55S1492.37,1783.06,1491.51,1783.06Z" transform="translate(-527.56 -657.82)"/><rect class="cls-4" x="786.38" y="2093.26" width="130.15" height="224.31"/><rect class="cls-5" x="1176.84" y="2041.13" width="102.78" height="280.02"/><path class="cls-6" d="M1808.37,2719.17c0,.87-23.5,1.56-52.49,1.56s-52.49-.69-52.49-1.56,23.5-1.56,52.49-1.56S1808.37,2718.31,1808.37,2719.17Z" transform="translate(-527.56 -657.82)"/><path class="cls-6" d="M1802.68,2732.45c0,.87-22.23,1.57-49.64,1.57s-49.65-.7-49.65-1.57,22.22-1.56,49.65-1.56S1802.68,2731.59,1802.68,2732.45Z" transform="translate(-527.56 -657.82)"/><path class="cls-6" d="M1758.72,2923.75c-.86,0-1.56-37.09-1.56-82.84s.7-82.84,1.56-82.84,1.57,37.08,1.57,82.84S1759.59,2923.75,1758.72,2923.75Z" transform="translate(-527.56 -657.82)"/><path class="cls-6" d="M1807.18,2949.36c0,.87-22.53,1.57-50.31,1.57s-50.32-.7-50.32-1.57,22.52-1.56,50.32-1.56S1807.18,2948.5,1807.18,2949.36Z" transform="translate(-527.56 -657.82)"/><path class="cls-6" d="M1807.18,2961.38c0,.86-23.1,1.56-51.58,1.56s-51.58-.7-51.58-1.56,23.09-1.56,51.58-1.56S1807.18,2960.52,1807.18,2961.38Z" transform="translate(-527.56 -657.82)"/><rect class="cls-4" x="1094.34" y="2010.84" width="82.56" height="310.3"/><path class="cls-6" d="M1705,2811.18c.27.33-4.07,4.38-11.4,10.57s-17.63,14.5-29.27,23.35-22.42,16.58-30.34,22-13,8.5-13.24,8.16,4.36-4.1,11.94-9.94l29.75-22.67,29.79-22.6C1699.87,2814.28,1704.71,2810.84,1705,2811.18Z" transform="translate(-527.56 -657.82)"/><path class="cls-6" d="M1705.34,2762.59c.57.66-17.44,17-40.21,36.52s-41.69,34.81-42.26,34.15,17.45-17,40.23-36.52S1704.78,2761.94,1705.34,2762.59Z" transform="translate(-527.56 -657.82)"/><rect class="cls-5" x="1496.24" y="2025.76" width="39.49" height="295.61"/><path class="cls-6" d="M2061.65,2723.85c0,1-8.28,1.86-18.5,1.86s-18.5-.83-18.5-1.86,8.28-1.86,18.5-1.86S2061.65,2722.83,2061.65,2723.85Z" transform="translate(-527.56 -657.82)"/><path class="cls-6" d="M2062.46,2717.42c0,1-8.29,1.86-18.5,1.86s-18.51-.83-18.51-1.86,8.29-1.86,18.51-1.86S2062.46,2716.39,2062.46,2717.42Z" transform="translate(-527.56 -657.82)"/><path class="cls-6" d="M2061.65,2956.33c0,1-8.28,1.86-18.5,1.86s-18.5-.83-18.5-1.86,8.28-1.86,18.5-1.86S2061.65,2955.3,2061.65,2956.33Z" transform="translate(-527.56 -657.82)"/><path class="cls-6" d="M2062.46,2949.89c0,1-8.29,1.86-18.5,1.86s-18.51-.83-18.51-1.86,8.29-1.86,18.51-1.86S2062.46,2948.87,2062.46,2949.89Z" transform="translate(-527.56 -657.82)"/><path class="cls-6" d="M2042.35,2911.28c-1,0-1.86-33.85-1.86-75.61s.83-75.62,1.86-75.62,1.86,33.85,1.86,75.62S2043.37,2911.28,2042.35,2911.28Z" transform="translate(-527.56 -657.82)"/><rect class="cls-3" x="1279.78" y="2023.87" width="78.98" height="295.6"/><path class="cls-6" d="M1829.56,2981.08a6.65,6.65,0,0,1-.93-1.6c-.56-1.09-1.32-2.74-2.25-4.93a85.72,85.72,0,0,1-5.73-20c-1.26-8.86-1.62-20.75,4.61-32.52a43.37,43.37,0,0,1,14-15.45c6.21-4.08,14.32-6.71,22.75-5.37a23.94,23.94,0,0,1,11.77,5.43,15.55,15.55,0,0,1,5.66,12.47c-.22,4.95-3.06,9.42-6.76,12.53a24.49,24.49,0,0,1-13.47,5.72c-10,1.17-20.4-3.05-28-10.2-7.87-7-12.66-17.54-13.89-28.4s.44-22.25,4.1-33,9.72-21.33,19.36-28.81a31.7,31.7,0,0,1,17-6.72,22.12,22.12,0,0,1,17.75,6.3,14.42,14.42,0,0,1,4.05,9.24,16.93,16.93,0,0,1-2.72,9.67c-3.54,5.7-9.59,9.35-15.93,10.87-12.92,2.78-26.37-2.33-34.8-11.65s-12.28-21.6-13.54-33.28-.31-23.6,3.4-34.5,10.75-20.63,20.4-26.25c9.42-5.72,21.36-7.59,31.37-3.29,5,2,9.37,6.6,10.21,12.06a19.11,19.11,0,0,1-3.59,14.89c-6.62,8.35-18,9.74-26.62,7-8.88-2.73-15.69-8.71-21-14.9a67,67,0,0,1-15.75-40.53A65.37,65.37,0,0,1,1830.8,2687a47.8,47.8,0,0,1,4.11-3.54,6.78,6.78,0,0,1,1.52-1c.52.38-8.62,5.92-16.75,22a64.24,64.24,0,0,0-6.51,31.37,65.19,65.19,0,0,0,15.66,38.92c5.15,5.91,11.71,11.47,19.81,13.87,7.83,2.41,18,.84,23.33-6.15a16,16,0,0,0,2.94-12.43c-.74-4.39-4.07-7.86-8.4-9.67-8.77-3.73-19.64-2.1-28.3,3.23-8.86,5.23-15.4,14.18-18.81,24.46s-4.29,21.69-3.13,33,4.87,22.67,12.66,31.18c7.54,8.41,19.92,13,31.22,10.52,5.53-1.34,10.71-4.51,13.62-9.21s3-10.65-.88-14.42a18.5,18.5,0,0,0-14.8-5.16,28,28,0,0,0-15.1,5.95c-8.82,6.78-14.67,16.84-18.2,27.05s-5.23,21.15-4,31.43,5.47,19.87,12.71,26.42c7,6.67,16.48,10.52,25.43,9.52,8.69-.72,17.16-7.34,17.69-15.33a12.72,12.72,0,0,0-4.62-10.26,21.36,21.36,0,0,0-10.37-4.9c-7.63-1.29-15.14,1-21,4.77a41.25,41.25,0,0,0-13.46,14.46c-6.09,11-6,22.62-5,31.32a94.07,94.07,0,0,0,5,20C1828.7,2978.73,1829.7,2981,1829.56,2981.08Z" transform="translate(-527.56 -657.82)"/><rect class="cls-4" x="1359.84" y="2050.39" width="137.03" height="269.2"/><g class="cls-7"><rect x="1359.84" y="2050.39" width="137.03" height="269.2"/></g><path class="cls-2" d="M2019.73,2752.94c0,1-29.7,1.86-66.32,1.86s-66.33-.83-66.33-1.86,29.69-1.86,66.33-1.86S2019.73,2751.91,2019.73,2752.94Z" transform="translate(-527.56 -657.82)"/><path class="cls-2" d="M2021.43,2773.35c0,1-29.32,1.86-65.47,1.86s-65.48-.83-65.48-1.86,29.31-1.86,65.48-1.86S2021.43,2772.32,2021.43,2773.35Z" transform="translate(-527.56 -657.82)"/><path class="cls-2" d="M2025.83,2947c0,1-30.87,1.86-68.95,1.86s-69-.83-69-1.86,30.87-1.85,69-1.85S2025.83,2946,2025.83,2947Z" transform="translate(-527.56 -657.82)"/><path class="cls-2" d="M2024,2923c0,1-30.08,1.86-67.17,1.86s-67.18-.84-67.18-1.86,30.07-1.86,67.18-1.86S2024,2922,2024,2923Z" transform="translate(-527.56 -657.82)"/><rect class="cls-5" x="1015.42" y="2021.97" width="78.98" height="295.6"/><path class="cls-6" d="M1565.2,2979.19a7,7,0,0,1-.92-1.61c-.56-1.08-1.32-2.73-2.25-4.92a85.79,85.79,0,0,1-5.74-20c-1.26-8.87-1.61-20.76,4.62-32.53a43.17,43.17,0,0,1,14-15.44c6.2-4.09,14.31-6.71,22.75-5.38a24,24,0,0,1,11.76,5.43,15.55,15.55,0,0,1,5.66,12.47c-.21,4.95-3.06,9.42-6.75,12.53a24.55,24.55,0,0,1-13.47,5.72c-10,1.17-20.4-3.05-28-10.19-7.87-7-12.66-17.54-13.89-28.41s.44-22.25,4.09-33,9.72-21.32,19.36-28.81a31.75,31.75,0,0,1,17.06-6.71,22.12,22.12,0,0,1,17.74,6.29,14.4,14.4,0,0,1,4.06,9.25,16.9,16.9,0,0,1-2.72,9.66c-3.54,5.7-9.6,9.35-15.94,10.88-12.91,2.78-26.37-2.33-34.79-11.66s-12.28-21.59-13.55-33.28-.3-23.59,3.4-34.5,10.76-20.62,20.4-26.24c9.43-5.72,21.36-7.6,31.38-3.29,5,2,9.36,6.59,10.2,12.06a19,19,0,0,1-3.59,14.89c-6.62,8.34-18,9.73-26.61,7-8.89-2.74-15.69-8.71-21-14.9a67.16,67.16,0,0,1-15.75-40.54,65,65,0,0,1,7.3-32.12,64.17,64.17,0,0,1,12.41-16.74,49.4,49.4,0,0,1,4.11-3.54c1-.74,1.49-1.1,1.53-1,.51.37-8.62,5.91-16.76,22a64.37,64.37,0,0,0-6.51,31.38,65.23,65.23,0,0,0,15.67,38.92c5.14,5.9,11.7,11.46,19.8,13.86,7.83,2.41,18,.85,23.34-6.15a16,16,0,0,0,2.93-12.43c-.73-4.38-4.07-7.86-8.39-9.66-8.77-3.73-19.64-2.1-28.3,3.22-8.86,5.23-15.4,14.18-18.81,24.46s-4.3,21.7-3.14,33,4.88,22.67,12.67,31.19c7.53,8.4,19.91,13,31.21,10.52,5.54-1.34,10.71-4.51,13.62-9.22s3-10.65-.87-14.41a18.53,18.53,0,0,0-14.8-5.17,28.1,28.1,0,0,0-15.11,6c-8.81,6.78-14.66,16.84-18.2,27s-5.22,21.14-4,31.43,5.48,19.86,12.72,26.42c7,6.66,16.48,10.51,25.42,9.52,8.69-.72,17.16-7.35,17.7-15.34a12.75,12.75,0,0,0-4.62-10.26,21.35,21.35,0,0,0-10.38-4.9c-7.62-1.29-15.13,1-21,4.77a41.27,41.27,0,0,0-13.47,14.46c-6.09,11-6,22.63-5,31.33a94.24,94.24,0,0,0,5,20C1564.35,2976.83,1565.34,2979.12,1565.2,2979.19Z" transform="translate(-527.56 -657.82)"/><rect class="cls-4" x="1535.73" y="2007.05" width="109.75" height="310.52"/><rect class="cls-3" x="912.78" y="2041.13" width="102.65" height="276.45"/><path class="cls-6" d="M1437.76,2836.81c.12.1-.9,1.8-3.34,4.4a46.91,46.91,0,0,1-12,9.16A55.8,55.8,0,0,1,1401,2857a54.41,54.41,0,0,1-27.09-4.44c-9-3.85-16.76-8.61-24.41-11.41s-15-3.88-20.91-2.59a24.29,24.29,0,0,0-12.54,6.51c-2.42,2.43-3.19,4.27-3.45,4.14s.26-2.09,2.54-4.94a23.86,23.86,0,0,1,13-7.86c6.38-1.69,14.42-.84,22.38,2s16,7.53,24.64,11.23a53.3,53.3,0,0,0,25.63,4.46,57.07,57.07,0,0,0,20.65-5.73C1432.55,2842.88,1437.29,2836.31,1437.76,2836.81Z" transform="translate(-527.56 -657.82)"/><path class="cls-6" d="M1440.07,2864.17c.12.1-.9,1.8-3.34,4.4a47.32,47.32,0,0,1-12,9.16,55.8,55.8,0,0,1-21.42,6.64,54.41,54.41,0,0,1-27.09-4.44c-9-3.85-16.76-8.61-24.41-11.41s-15-3.88-20.91-2.59a24.29,24.29,0,0,0-12.54,6.51c-2.42,2.43-3.19,4.27-3.45,4.13s.26-2.09,2.54-4.94a23.91,23.91,0,0,1,13-7.85c6.38-1.7,14.42-.85,22.38,2s16,7.53,24.64,11.23a53.29,53.29,0,0,0,25.63,4.45,56.88,56.88,0,0,0,20.65-5.72C1434.86,2870.24,1439.6,2863.67,1440.07,2864.17Z" transform="translate(-527.56 -657.82)"/><path class="cls-6" d="M1438.37,2775.63c0,.86-28.26,1.56-63.12,1.56s-63.12-.7-63.12-1.56,28.26-1.56,63.12-1.56S1438.37,2774.77,1438.37,2775.63Z" transform="translate(-527.56 -657.82)"/><path class="cls-6" d="M1484.87,2743.49c-.11-.11.42-1,2-1.89a11.15,11.15,0,0,1,7.45-1,12.67,12.67,0,0,1,9.06,6.74c2.15,4.22.63,10-3.08,13.44s-9.42,4.88-13.56,2.57a12.64,12.64,0,0,1-6.38-9.32,11.26,11.26,0,0,1,1.29-7.41c1-1.53,1.87-2,2-1.91.48.24-2.44,3.33-1.09,8.9a10.76,10.76,0,0,0,5.48,7.16c3,1.54,7.2.58,10.12-2.24s4-6.95,2.62-10a10.79,10.79,0,0,0-6.94-5.76C1488.29,2741.18,1485.1,2744,1484.87,2743.49Z" transform="translate(-527.56 -657.82)"/><path class="cls-6" d="M1491.51,2947.72c-.86,0-1.56-38.75-1.56-86.54s.7-86.55,1.56-86.55,1.56,38.74,1.56,86.55S1492.37,2947.72,1491.51,2947.72Z" transform="translate(-527.56 -657.82)"/><path class="cls-3" d="M2172.89,2200.43c0,.86-214.45,1.56-478.94,1.56s-479-.7-479-1.56,214.41-1.56,479-1.56S2172.89,2199.57,2172.89,2200.43Z" transform="translate(-527.56 -657.82)"/><path class="cls-3" d="M2172.89,2592.75c0,.86-214.45,1.56-478.94,1.56s-479-.7-479-1.56,214.41-1.56,479-1.56S2172.89,2591.89,2172.89,2592.75Z" transform="translate(-527.56 -657.82)"/><path class="cls-3" d="M2172.89,1810.74c0,.86-214.45,1.56-478.94,1.56s-479-.7-479-1.56,214.41-1.56,479-1.56S2172.89,1809.87,2172.89,1810.74Z" transform="translate(-527.56 -657.82)"/><path class="cls-3" d="M2172.89,1421.65c0,.86-214.45,1.56-478.94,1.56s-479-.7-479-1.56,214.41-1.56,479-1.56S2172.89,1420.79,2172.89,1421.65Z" transform="translate(-527.56 -657.82)"/><path class="cls-3" d="M2172.89,2977.27c0,.87-214.45,1.57-478.94,1.57s-479-.7-479-1.57,214.41-1.56,479-1.56S2172.89,2976.41,2172.89,2977.27Z" transform="translate(-527.56 -657.82)"/><path class="cls-3" d="M1160.34,3195c-.3,0-.54-484.26-.54-1081.49,0-597.44.24-1081.6.54-1081.6s.54,484.16.54,1081.6C1160.88,2710.73,1160.64,3195,1160.34,3195Z" transform="translate(-527.56 -657.82)"/><path class="cls-3" d="M1189.4,3195c-.3,0-.54-484.26-.54-1081.49,0-597.44.24-1081.6.54-1081.6s.54,484.16.54,1081.6C1189.94,2710.73,1189.69,3195,1189.4,3195Z" transform="translate(-527.56 -657.82)"/><path class="cls-3" d="M2203.64,3193.33c-.3,0-.54-484.27-.54-1081.49,0-597.44.24-1081.6.54-1081.6s.54,484.16.54,1081.6C2204.18,2709.06,2203.94,3193.33,2203.64,3193.33Z" transform="translate(-527.56 -657.82)"/><path class="cls-3" d="M2232.7,3193.33c-.3,0-.54-484.27-.54-1081.49,0-597.44.24-1081.6.54-1081.6s.54,484.16.54,1081.6C2233.24,2709.06,2233,3193.33,2232.7,3193.33Z" transform="translate(-527.56 -657.82)"/><path class="cls-10" d="M2306,1824.83c0,233.83-182.84,417.77-416.54,410.6-243.2-7.47-447.74-217.51-447.74-468.87s204.54-433.81,447.74-408.49C2123.11,1382.4,2306,1591,2306,1824.83Z" transform="translate(-527.56 -657.82)"/><path class="cls-11" d="M2369.09,1804.67c0,233.83-182.84,417.77-416.53,410.59-243.2-7.46-447.75-217.51-447.75-468.86s204.55-433.82,447.75-408.49C2186.25,1362.24,2369.09,1570.84,2369.09,1804.67Z" transform="translate(-527.56 -657.82)"/><path class="cls-12" d="M2350.75,1803.43c0,223.53-174.94,399.08-398.19,391.85-231.91-7.51-426.62-208-426.62-447.46s194.71-413.69,426.62-389.93C2175.81,1380.76,2350.75,1579.9,2350.75,1803.43Z" transform="translate(-527.56 -657.82)"/><path class="cls-13" d="M2337.61,1802.55c0,216.15-169.28,385.7-385.05,378.46-223.85-7.52-411.58-201.12-411.58-432.17s187.73-399.34,411.58-376.68C2168.33,1394,2337.61,1586.39,2337.61,1802.55Z" transform="translate(-527.56 -657.82)"/><path class="cls-14" d="M1950.35,1445.7h0c11.49,1.09,20.78,11.43,20.78,23.09v39.8a582.27,582.27,0,0,1,69,12q25.47,6,50.59,14.24c10,3.3,16.88,13.43,15.85,23.88l-4.88,49.91c-1.3,13.24-14.39,21-26.71,15.52a288.55,288.55,0,0,0-33.94-12.64,307.71,307.71,0,0,0-64-12l-5.87-.49v114c59.9,16.76,103.88,39.3,132.31,67.66s42.39,63.39,42.39,105.61q0,68.49-46.88,109.8-47.17,41.58-132.6,46.69v43.93a20,20,0,0,1-20.79,20.29h-.37a22.08,22.08,0,0,1-20.86-22v-43.33l-9.26-.42a606.32,606.32,0,0,1-76.82-8.19,498.28,498.28,0,0,1-53.08-12.21c-10.45-3-17.62-13-16.66-23.65l5.75-64.15c1.25-13.87,15.18-21.94,28.36-16.74a417.42,417.42,0,0,0,46.69,15.33,410,410,0,0,0,74.65,12.47l.37-126.79q-86.25-21.33-128.83-63.21-42.62-42.06-42.67-107.56,0-67.74,46.26-104.48,46-36.51,130.41-36.42v-40.68C1929.5,1453.21,1938.85,1444.61,1950.35,1445.7Zm-20.85,152.14q-26.65,2-41.54,14.65t-14.91,34.21q0,20.35,13.79,34t42.66,21.76Zm36.85,229.58v116.27q29,.06,44.47-13.82t15.48-39.14q0-23.07-14.38-38.27T1966.35,1827.42Z" transform="translate(-527.56 -657.82)"/><path class="cls-15" d="M1882.88,1855.48c13-128.49,131.1-182.89,115.69-301.08-9.5-72.85-64.71-134.24-126.31-182.17C1685.45,1391.82,1541,1546.51,1541,1748.84c0,231.05,187.73,424.65,411.58,432.17a387.91,387.91,0,0,0,63.6-3.11C1927.26,2089.44,1871.7,1965.87,1882.88,1855.48Z" transform="translate(-527.56 -657.82)"/><path class="cls-16" d="M2278.3,2445.23c0,140.1-109.55,250.31-249.56,246-145.72-4.47-268.27-130.32-268.27-280.92S1883,2150.4,2028.74,2165.57C2168.75,2180.15,2278.3,2305.13,2278.3,2445.23Z" transform="translate(-527.56 -657.82)"/><path class="cls-17" d="M2316.14,2433.15c0,140.1-109.55,250.31-249.57,246-145.71-4.47-268.27-130.32-268.27-280.92s122.56-259.92,268.27-244.75C2206.59,2168.07,2316.14,2293.05,2316.14,2433.15Z" transform="translate(-527.56 -657.82)"/><path class="cls-18" d="M2305.15,2432.41c0,133.93-104.82,239.11-238.58,234.78-139-4.5-255.61-124.6-255.61-268.09s116.66-247.87,255.61-233.63C2200.33,2179.17,2305.15,2298.48,2305.15,2432.41Z" transform="translate(-527.56 -657.82)"/><path class="cls-19" d="M2297.28,2431.88c0,129.51-101.43,231.1-230.71,226.76-134.12-4.5-246.6-120.5-246.6-258.94s112.48-239.26,246.6-225.68C2195.85,2187.11,2297.28,2302.37,2297.28,2431.88Z" transform="translate(-527.56 -657.82)"/><path class="cls-20" d="M2065.25,2218.08h0a14.1,14.1,0,0,1,12.45,13.83v23.85a349.68,349.68,0,0,1,41.32,7.17q15.26,3.59,30.31,8.53a13.94,13.94,0,0,1,9.5,14.31l-2.93,29.9a11.2,11.2,0,0,1-16,9.3,174,174,0,0,0-20.33-7.57,184.34,184.34,0,0,0-38.36-7.17l-3.51-.29v68.29q53.82,15.06,79.27,40.54t25.4,63.28q0,41-28.09,65.78c-18.85,16.61-45.27,26-79.44,28v26.32a12,12,0,0,1-12.46,12.16h-.22a13.24,13.24,0,0,1-12.5-13.2v-26l-5.55-.25a363.94,363.94,0,0,1-46-4.91,301.85,301.85,0,0,1-31.8-7.31,13.72,13.72,0,0,1-10-14.18l3.44-38.43c.75-8.31,9.1-13.15,17-10a250.34,250.34,0,0,0,28,9.18,244.7,244.7,0,0,0,44.72,7.47l.23-76q-51.67-12.78-77.19-37.87t-25.56-64.45q0-40.59,27.71-62.6,27.54-21.87,78.14-21.82v-24.37A11.26,11.26,0,0,1,2065.25,2218.08Zm-12.49,91.16q-16,1.16-24.89,8.77t-8.94,20.5a27.49,27.49,0,0,0,8.27,20.37q8.23,8.17,25.56,13Zm22.08,137.55v69.66q17.35,0,26.64-8.28t9.27-23.45q0-13.81-8.61-22.93T2074.84,2446.79Z" transform="translate(-527.56 -657.82)"/><path class="cls-21" d="M2024.82,2463.6c7.8-77,78.55-109.58,69.32-180.39-5.69-43.65-38.77-80.43-75.68-109.15C1906.53,2185.8,1820,2278.48,1820,2399.7c0,138.44,112.48,254.44,246.6,258.94a232.64,232.64,0,0,0,38.11-1.86C2051.41,2603.77,2018.13,2529.74,2024.82,2463.6Z" transform="translate(-527.56 -657.82)"/><path class="cls-22" d="M2335.09,1034.39,2238.68,1045q-8-9.37-16.78-18.67c-27.17-29.15-60.22-56.84-97.49-81.25-4.51-3.22-9.55-5.89-14.3-8.85-2.41-1.43-4.85-2.92-7.29-4.34l-3.58-2.2c-1.26-.72-2.53-1.35-3.78-2q-7.5-4-15.06-8.12l-3.77-2-3.92-1.83c-2.6-1.25-5.19-2.5-7.79-3.71-10.29-5.22-21.17-9.42-31.86-14-5.41-2.18-11-4.08-16.52-6.1-2.71-1-5.49-2.05-8.26-3s-5.66-1.77-8.45-2.65a495.69,495.69,0,0,0-140.65-23.32l-18-.09c-6,.12-12,.56-17.92.8l-9,.41-8.92.93-8.93.87c-3,.31-5.92.48-8.88,1-5.88.91-11.76,1.78-17.67,2.69-1.44.23-3,.39-4.35.69l-3.89.84-7.79,1.67-7.73,1.63c-.69.14-1.17.22-2.06.42l-7.91,1.87-10.58,2.46-7.91,1.87-1.33.31-.48.1s-2.79.45,1.9-.21l-16.89,5.3c-2.78.91-5.61,1.64-8.36,2.72l-8.21,3.06-8.22,3-4.09,1.51c-1.37.49-2.68,1.13-4,1.68-5.32,2.29-10.64,4.56-15.93,6.87-2.69,1.05-5.24,2.44-7.81,3.68l-7.69,3.83-7.71,3.72-7.45,4.17c-5,2.82-10,5.4-14.75,8.31s-9.54,5.94-14.26,8.94a444.87,444.87,0,0,0-96.65,84.68l-5,5.78-4.69,6.06c-3.11,4-6.37,7.87-9.29,11.94-.13.14-.22.34-.35.48-5.66,8.1-11.47,15.78-16.4,24-1.34,2-2.65,4.08-3.92,6.12l-2,3-1.77,3.17c-2.38,4.14-4.73,8.29-7.09,12.39-.58,1-1.22,2-1.79,3.05l-1.56,3.13c-1.08,2.11-2.13,4.22-3.19,6.26-2,4.2-4.36,8.13-6.11,12.41-15.25,33.17-25.74,65.58-31.55,95.83a409.75,409.75,0,0,0-7.67,82.19c.08,3,.16,6,.23,8.94s0,5.78.32,8.58c.44,5.65.83,11,1.19,16.17.52,5.2,1.31,10.15,1.84,14.83.28,2.35.49,4.65.81,6.85s.86,4.41,1.22,6.5c.73,4.22,1.43,8.2,2.08,11.91a14.75,14.75,0,0,0,.58,2.27l.59,2c.33,1.3.48,1.09.79,2.27.26,1,.45,1.47.54,1.45l197.36-31.42-98.75,152.05-230.24,349.28L803.47,1475.79l209.65-33.38c.3-.05,0-3.7-.07-6.57-.16-6.21-.23-12.29-.42-19.66,0-3.69-.09-7.12-.14-11.08,0-1.94,0-3.78,0-5.8s-.1-4.14,0-5.91c.32-7.49.63-15.37.95-23.79.22-4.18.41-8.45.63-12.85s.73-8.91,1.16-13.53c.87-9.21,1.61-18.85,2.85-28.86q2.13-15,4.43-31.07c.7-5.4,1.91-10.79,2.93-16.33l3.29-16.79a766.56,766.56,0,0,1,46.55-146.87c22.14-51.51,52.4-104.13,90.25-154.48,4.54-6.42,9.73-12.44,14.67-18.66,2.52-3.08,5-6.18,7.53-9.29l3.84-4.67,4-4.5c5.35-6,10.75-12,16.12-18.09l4.08-4.52,4.28-4.37c2.88-3,5.74-5.86,8.62-8.78,11.24-11.84,23.6-22.88,35.82-34.17,6.18-5.53,12.66-10.81,19.08-16.23,3.18-2.65,6.41-5.32,9.63-8l10-7.68a719,719,0,0,1,178.45-100.93c8.11-3,16.26-6,24.39-9s16.52-5.34,24.77-8l12.43-3.82,12.6-3.3,12.57-3.26c4.2-1.07,8.35-2.23,12.61-3.06,8.45-1.74,16.84-4.12,25.32-5.87,2.08-.43,4.11-1.58,6.24-1.92l6.42-1,12.85-1.31,12.81-1.61c4.26-.68,8.61-.78,12.87-1.25l25.57-2.5c5.77-.83,2-.17,3.48-.37l.67,0,1.38-.06,2.69-.06,5.44-.19,10.83-.37,5.44-.19,2.69-.09,3.34-.07,13.74-.16,13.76-.1h6.82c2.25,0,4.27.18,6.44.26,8.46.44,16.93.91,25.38,1.31,4.21.16,8.41.69,12.6,1.1l12.59,1.28,12.5,1.3,12.44,1.87c8.26,1.29,16.53,2.44,24.67,4s16.27,3.31,24.37,5a666.92,666.92,0,0,1,178.49,67.68c3.37,1.83,6.71,3.69,10,5.53s6.53,3.91,9.77,5.91c6.47,4,12.94,7.72,19.22,11.82,12.44,8.44,24.78,16.47,36.32,25.45,2.93,2.18,5.81,4.39,8.73,6.54l4.3,3.25,4.17,3.43q8.34,6.87,16.47,13.67l4.08,3.4,3.95,3.56c2.56,2.39,5.18,4.73,7.74,7.09,5.12,4.75,10.4,9.2,15.13,14.19a667.63,667.63,0,0,1,69.45,79.6c9.71,13,18.59,26.18,26.66,39.25A633.18,633.18,0,0,1,2335.09,1034.39Z" transform="translate(-527.56 -657.82)"/><path class="cls-23" d="M2335.09,1034.39,2238.68,1045q-8-9.37-16.78-18.67c-27.17-29.15-60.22-56.84-97.49-81.25-4.51-3.22-9.55-5.89-14.3-8.85-2.41-1.43-4.85-2.92-7.29-4.34l-3.58-2.2c-1.26-.72-2.53-1.35-3.78-2q-7.5-4-15.06-8.12l-3.77-2-3.92-1.83c-2.6-1.25-5.19-2.5-7.79-3.71-10.29-5.22-21.17-9.42-31.86-14-5.41-2.18-11-4.08-16.52-6.1-2.71-1-5.49-2.05-8.26-3s-5.66-1.77-8.45-2.65a495.69,495.69,0,0,0-140.65-23.32l-18-.09c-6,.12-12,.56-17.92.8l-9,.41-8.92.93-8.93.87c-3,.31-5.92.48-8.88,1-5.88.91-11.76,1.78-17.67,2.69-1.44.23-3,.39-4.35.69l-3.89.84-7.79,1.67-7.73,1.63c-.69.14-1.17.22-2.06.42l-7.91,1.87-10.58,2.46-7.91,1.87-1.33.31-.48.1s-2.79.45,1.9-.21l-16.89,5.3c-2.78.91-5.61,1.64-8.36,2.72l-8.21,3.06-8.22,3-4.09,1.51c-1.37.49-2.68,1.13-4,1.68-5.32,2.29-10.64,4.56-15.93,6.87-2.69,1.05-5.24,2.44-7.81,3.68l-7.69,3.83-7.71,3.72-7.45,4.17c-5,2.82-10,5.4-14.75,8.31s-9.54,5.94-14.26,8.94a444.87,444.87,0,0,0-96.65,84.68l-5,5.78-4.69,6.06c-3.11,4-6.37,7.87-9.29,11.94-.13.14-.22.34-.35.48C1547.5,923.1,1679.67,829,1841.62,803.2c165.94-26.41,324.42,25,430.57,125.3,9.71,13,18.59,26.18,26.66,39.25A633.18,633.18,0,0,1,2335.09,1034.39Z" transform="translate(-527.56 -657.82)"/><path class="cls-24" d="M2419.59,1697.9l10.74-20.21s9.88-2,14.36-9.1l4.48-7.06s2.24-7.42-5.89-15.47a8.12,8.12,0,0,1-2.42-6.92c1.12-7.68,3.39-23.41,3.83-27.43.3-2.66-.79-5.83-2-8.36a2,2,0,0,0-3.79.29l-8.61,31.69s-6.9-1.74-9.27,4.06c0,0-6,3.56-6.86,9.76s0,21.19,0,21.19l-9.45,21.32Z" transform="translate(-527.56 -657.82)"/><path class="cls-25" d="M2433.71,1694.54c-5.89,13.67-38.75,93.29-.83,167.2,42.28,82.41,156.06,125.53,269.91,88.35.89,14.73,10.25,201.1-81.28,245.6-98.28,47.78-283.31-82.29-313.51-245.6-25.85-139.75,73.83-252.88,90-270.66Z" transform="translate(-527.56 -657.82)"/><path class="cls-26" d="M2796.22,3178c3.92,3.61,4.17,12,4.33,17.55.08,2.46.11,3.69-.21,4.54-2.38,6.18-14.65,6.1-34,6.89-30.49,1.25-39.65,3.08-41.75-1.57-2-4.36,3.84-11,4.49-11.68,3.51-3.9,7.59-5.15,15.47-7.22,14.59-3.84,24.41-5.83,27.38-6.43C2790.54,3176.35,2793.64,3175.67,2796.22,3178Z" transform="translate(-527.56 -657.82)"/><path class="cls-27" d="M2774.83,3147.63l-1.18,34.71c.95,1.62,11.48,6.07,19.41,1.35l6-34.38Z" transform="translate(-527.56 -657.82)"/><path class="cls-28" d="M2539.37,3173.23c5.24,5.21,6.91,15.22,2.86,20.41s-10.53,1.78-28.54,3.28c-19.3,1.61-24.11,6.45-37.44,3.52-5.38-1.18-14.94-4.24-15-8,0-2.67,4.68-4.3,20.33-10.49,22.22-8.79,22.1-9.19,26.86-10.25C2520.43,3169,2532.44,3166.37,2539.37,3173.23Z" transform="translate(-527.56 -657.82)"/><path class="cls-29" d="M2525.3,3142.37l-8,32.77c.83,1.69,11,6.93,19.26,2.83l12.72-32.08Z" transform="translate(-527.56 -657.82)"/><path class="cls-30" d="M2573.72,2431.41a3024.64,3024.64,0,0,1-7.16,364.08,3025.12,3025.12,0,0,1-50.08,356.76l37.64,8c29.82-30.94,67-79.12,82.58-145.24,9.7-41,4.64-61.59,9.51-111.69,7.75-79.77,29.79-122.52,51.45-187.66,19.47-58.55,41.6-144.12,49.87-257.36Z" transform="translate(-527.56 -657.82)"/><path class="cls-31" d="M2591.06,2938.31c13.81-54.72,40.43-69.19,41.38-120.84.67-36.53-12.46-39.52-11.59-74.49,1.32-53,32.39-80.85,48-114.21,16.48-35.24,22.8-91.84-21.63-186l100.3,15.52c-8.27,113.24-30.4,198.81-49.87,257.36-21.66,65.14-43.7,107.89-51.45,187.66-4.87,50.1.19,70.65-9.51,111.69-15.62,66.12-52.76,114.3-82.58,145.24l-9.57-2c32.24-38.48,43.61-72.84,46.51-100.73C2595.76,3012.13,2577.13,2993.48,2591.06,2938.31Z" transform="translate(-527.56 -657.82)"/><path class="cls-32" d="M2699.14,2424.63q22.41,206.17,41,420.19Q2754.06,3005.39,2765,3162l38.16,2.65a441.71,441.71,0,0,0,34.09-104.14c10.6-54.83,5.76-86.79,8.68-143.18,3.28-63.24,12.2-77.46,25-157.7,26.08-162.86,39.12-244.29-2.23-292.31C2855.29,2451.74,2813.75,2413.06,2699.14,2424.63Z" transform="translate(-527.56 -657.82)"/><path class="cls-33" d="M2324.19,1798.73a123.33,123.33,0,0,0,8.64,42.11c16.63,41.23,56.22,71.31,48,117.52-4.11,23.1-16.77,31.2-11.59,48,7.35,23.82,37.46,22.7,69.53,49.66,28.44,23.91,30,46.06,44.69,66.21,19.84,27.29,64.63,52.26,173.2,44.33-9.64,12.25-21.21,22.34-35.15,29.12-98.28,47.78-283.31-82.29-313.51-245.6C2297.59,1893.82,2307.54,1841.88,2324.19,1798.73Z" transform="translate(-527.56 -657.82)"/><path class="cls-34" d="M3028.55,1997.22c-68.71-23.29-173.54-49.11-301.76-43.82a824.94,824.94,0,0,0-188.72,30q-10.28,57.39-20.53,114.77a1368.25,1368.25,0,0,0,2.23,151.73c4.31,61.39,8.53,62.32,18.41,149,16.09,141.3,9.36,178.21,37.76,195.19,18.47,11,25.15-2.29,119.4-11.63,63.2-6.27,95.45-9.18,127.46,1.65,43.58,14.75,58.17,39.51,76.14,31.45,17.25-7.72,19.44-37.49,21.52-89.38,3.22-80.06,3-134.47,3.31-153.95,1.36-89.36,24-157.6,53-245A1182.73,1182.73,0,0,1,3028.55,1997.22Z" transform="translate(-527.56 -657.82)"/><path class="cls-35" d="M2702.55,1941.05c5.64-11.8-2.23-27.69-11.24-40.72,7.22-15.46,36.75-20,44-35.46a262.77,262.77,0,0,0,7.49,52.21c3.46,13.84,5.61,17.34,8.27,20.14,4,4.21,9.88,7.6,42.49,13.86,17.75,3.41,20,3.17,20.47,4.89,2.34,8.38-43.87,39.82-93.58,35.49-30.42-2.65-58.81-18.41-57.61-27.54S2694.44,1958,2702.55,1941.05Z" transform="translate(-527.56 -657.82)"/><path class="cls-36" d="M2679.71,1876.74c-7.63-9.09-8.95-25.59-1.3-36.47,6.59-9.37,17.64-11.25,24.25-12.37,19.18-3.26,44,3.5,53.36,20.8,5.58,10.25-4.11,32.69-5.6,36.71-1.68,4.55-5.09,6.26-8.14,9.79-4.22,4.9-10.83,12.69-21.6,25.69a78.88,78.88,0,0,0-5.08-12.86,70.36,70.36,0,0,0-10-14.89C2694.91,1881.42,2687,1885.35,2679.71,1876.74Z" transform="translate(-527.56 -657.82)"/><path class="cls-37" d="M2736.43,1909.6s-11.57,21.48-36.91,21.18c-22.68-.26-28.7-50.78-14.83-62.31,4.62-3.84,14.19-5.85,22.15-4.07,4.7,1,6.38,2.89,14.09,4.46,7.12,1.45,9.06.56,11.28,2.23,2.77,2.09,5,7.46,1.37,22.51,4.08-4.59,9.16-6.55,12.92-5a7.79,7.79,0,0,1,3.17,2.77C2753.14,1897,2748.25,1904.66,2736.43,1909.6Z" transform="translate(-527.56 -657.82)"/><path class="cls-38" d="M2733.07,1868c-1.05.87,2.5,4.76,3.06,10.5,1.08,11.15-9.52,25.17-21,26.92-6.78,1-8.88-3-20.22-3.57a52,52,0,0,0-16.4,1.83c-2.89,12.45,1.1,24.49,9.59,29.72,9.15,5.63,20.22,1.33,24.85-.47,3.09-1.2,13-5,17.8-14.58,5-9.95-.73-15.47,5.23-22.34,3-3.46,7.11-5.11,10.84-11.7a31.17,31.17,0,0,0,2.06-4.41C2742.72,1874,2734.58,1866.74,2733.07,1868Z" transform="translate(-527.56 -657.82)"/><path class="cls-39" d="M2687,1907.8s5,2.29,13.43,1.36c.41,0,.87,0,.93.26.24.79-5,4.67-10,3.54-3.6-.81-6.53-4-6.1-4.9C2685.36,1907.69,2686.17,1907.7,2687,1907.8Z" transform="translate(-527.56 -657.82)"/><path class="cls-40" d="M2612.57,2547.66c46.36-19.78,46.09-60.72,89.39-77.8,61.79-24.38,130.05,32.25,140.7,16.55,11.09-16.34-70.43-66.45-59.59-115.87,8.62-39.28,65.53-32.32,96-86.08,28.91-51,.88-98.15,26.49-115.87,9.18-6.36,25.37-8.87,56.08,4.65-21.41,66.87-36.76,125.85-37.88,199-.29,19.48-.09,73.89-3.31,153.95-2.08,51.89-4.27,81.66-21.52,89.38-18,8.06-32.56-16.7-76.14-31.45-32-10.83-64.26-7.92-127.46-1.65-94.25,9.34-100.93,22.67-119.4,11.63-12-7.19-17.75-18-21.58-38.77C2573.26,2557.32,2593.3,2555.88,2612.57,2547.66Z" transform="translate(-527.56 -657.82)"/><path class="cls-41" d="M2965.16,2372.26l-22.75-1.26s-24.92-20.86-36.26-19.56-28.31,9.17-30.38,10.83,6.21,10.89,14.48,10,26.75,3.57,30.05,10.86,17.64,11.7,20.08,7.42l30.57,6.07Z" transform="translate(-527.56 -657.82)"/><path class="cls-42" d="M2958.28,2364.31c-1.6,18.66,2.47,31.33,9.25,40,30.06,38.52,132.23,22.77,192.95-28.83,44.95-38.19,68.75-97.49,67.87-150.63-1.71-103.69-97.81-205.29-240.74-240.39-21.16,63.25-64.4,121.17-85.56,184.42,88.13,1.34,163.74,73.1,155.8,120.53C3051.94,2324.76,3010.74,2356.53,2958.28,2364.31Z" transform="translate(-527.56 -657.82)"/><path class="cls-43" d="M987.38,3163.31c-6,12.25-4.32,17.51-2.83,19.82,4.39,6.8,14.94.38,42.48,3.64a46.2,46.2,0,0,0,17.09-.59c6.59-1.56,14.36-5.06,14-6.83-.12-.64-1.29-.9-1.74-1-7.64-1.63-55.49-16.32-55.49-16.32Z" transform="translate(-527.56 -657.82)"/><path class="cls-44" d="M983.71,3136.38l4.27,27.38s11.76,8.32,14.85-1.78c2.22-7.26,2.16-26.82,2.16-26.82Z" transform="translate(-527.56 -657.82)"/><polygon class="cls-45" points="595.02 2492.12 583.47 2523.64 566.69 2520.97 570.58 2491.78 595.02 2492.12"/><path class="cls-46" d="M1105.81,3198.83c-8.13-9.64-15.38-8.77-16.84-15.39-1.15-5.2,2-11.58,6.84-14,6.76-3.4,15,1.92,16.8,3.12,12.56,8.16,9.14,20.93,21,26.47,2.38,1.11,6.16,2.3,10.14,6,1.69,1.58,5.88,5.51,4.9,8.21-1.13,3.13-8.6,3-15.7,2.91-8.52-.12-12.78-.18-16.88-2.73C1110.37,3209.89,1112.07,3206.26,1105.81,3198.83Z" transform="translate(-527.56 -657.82)"/><path class="cls-47" d="M893.93,2481.44a903.48,903.48,0,0,0,22.59,162.38c11.16,47.67,17.24,55.82,21.11,88.87,8.42,71.92-14.58,82.74-17.1,164.29-2.78,90.05,22.67,161,32.66,188.09a517.31,517.31,0,0,0,24.5,56c8.4,7,21,4,34.19,1,3.15-81.69,7.61-158.6,10.76-240.29l39.48-369.21Z" transform="translate(-527.56 -657.82)"/><path class="cls-48" d="M1011.88,3142c3.15-81.69,7.61-158.6,10.76-240.29l39.48-369.21-168.19-51.09c.2,4.22.5,8.28.76,12.42,79.56,66.16,96,119.57,96,156.24,0,44.47-23.81,67-17.68,131.38,4.39,46,18.41,53.84,19.3,95.43,1.14,53.55-21.2,84.15-31.73,115.33-10.17,30.14-13.12,72.59,9.08,132.39,2.87,6.16,5.59,11.68,8,16.41C986.09,3148.05,998.65,3145,1011.88,3142Z" transform="translate(-527.56 -657.82)"/><path class="cls-49" d="M993.81,2540.71c42.42,68.24,66.32,122.15,79.38,155.47,8,20.34,15.25,41.54,17.44,69.49a218.82,218.82,0,0,1-9.05,80.75,422.38,422.38,0,0,0-19.54,81c-13.7,99.11,11.21,181.28,30.32,228.42l29.92,10.36a1636.17,1636.17,0,0,0,64-262.81c9.48-60.14,16.7-107.3,15.5-167-1.27-63-12.36-162.32-66.41-280.17Z" transform="translate(-527.56 -657.82)"/><path class="cls-50" d="M1005,1995.36c63.15,9.45,111.3,19.67,133.39,52.17,23.34,34.33-12,61.3-20.14,137.88-12.45,117.25,55.72,159.48,38.9,277.63a304.58,304.58,0,0,1-27.39,89.21c-20,17-51.81,40.35-95.33,56.63-63.32,23.68-95.08,11.38-180.82,18.13-140.24,11-160.39,52.21-224.36,28.53-64.66-23.93-112.53-91.33-99.56-120.85,7.77-17.67,33.69-7.29,70.08-29.57,46.89-28.71,38.1-66.34,75.93-99.58,54.34-47.76,108.58-1.87,155-43.38,47-42,50.57-141.74,29-200.6-14.12-38.45-15.27-80.57-26-120.1a25.56,25.56,0,0,1,.28-14.56c7.35-23,49.06-28.29,80.59-32C962.66,1989.28,999.8,1994.58,1005,1995.36Z" transform="translate(-527.56 -657.82)"/><path class="cls-51" d="M635.66,2611c19.17-13.37,7.85-49.87,36.22-70,26.34-18.66,47.69,4.55,86.82-8.36,50.18-16.57,46.5-65.15,94.57-81.71,34.57-11.91,45.55,10.08,95.78,10s115.41-22.21,155.88-76.24a179,179,0,0,0,31.46-69.64c14.33,43,29.79,84.56,20.76,148a304.58,304.58,0,0,1-27.39,89.21c-20,17-51.81,40.35-95.33,56.63-63.32,23.68-95.08,11.38-180.82,18.13-140.24,11-160.39,52.21-224.36,28.53-41.32-15.3-75.7-48.33-91.81-77.89C593.8,2616.82,621.76,2620.75,635.66,2611Z" transform="translate(-527.56 -657.82)"/><path class="cls-52" d="M1039,1885.68s18,32.18,19.62,55-24.23,21.71-24.23,21.71l1.28,14.39a31.24,31.24,0,0,0,21,26.78l10.26,3.53s-66.09,15.63-102.89-9.2l10.43-1.25a31.22,31.22,0,0,0,27.42-28.51l.5-6.18S989.32,1891,1039,1885.68Z" transform="translate(-527.56 -657.82)"/><path class="cls-53" d="M1144.58,2246.49l82.09-183.23a5.64,5.64,0,0,1,5.85-3.28l143.55,18.09a5.65,5.65,0,0,1,4.36,8.07l-96.8,198a5.63,5.63,0,0,1-6.41,3l-127.81-31.61Z" transform="translate(-527.56 -657.82)"/><path class="cls-54" d="M1167.16,2224.31,1233.64,2076a4.53,4.53,0,0,1,4.73-2.66l116.23,14.65a4.56,4.56,0,0,1,3.53,6.53l-78.37,160.31a4.56,4.56,0,0,1-5.2,2.42l-103.48-25.59Z" transform="translate(-527.56 -657.82)"/><path class="cls-55" d="M1257.74,2075.05l5.27-11.89a4.13,4.13,0,0,1,4.25-2.43l59.73,7a4.12,4.12,0,0,1,3.27,5.8l-5.88,13a4.15,4.15,0,0,1-4.31,2.38L1261,2080.8A4.12,4.12,0,0,1,1257.74,2075.05Z" transform="translate(-527.56 -657.82)"/><path class="cls-56" d="M1339.21,2115.17l-.27,0-105.28-13.51a2.36,2.36,0,0,1-2.06-2.65,2.41,2.41,0,0,1,2.66-2.06l105.28,13.51a2.38,2.38,0,0,1-.33,4.74Z" transform="translate(-527.56 -657.82)"/><path class="cls-56" d="M1333.81,2125.8l-.3,0-104.75-14.53a2.38,2.38,0,1,1,.65-4.71l104.75,14.53a2.38,2.38,0,0,1-.35,4.74Z" transform="translate(-527.56 -657.82)"/><path class="cls-56" d="M1281.1,2142.51a2.19,2.19,0,0,1-.36,0l-57.12-9.52a2.38,2.38,0,1,1,.78-4.69l57.12,9.51a2.38,2.38,0,0,1-.42,4.73Z" transform="translate(-527.56 -657.82)"/><path class="cls-57" d="M1307.32,2235.67s23.39-15.91,26.12-27.13,2-32.32,2-32.32L1321.85,2206s-6.59-1.89-9.43-11.68-7.63-.83-5.7,6.57S1307.32,2235.67,1307.32,2235.67Z" transform="translate(-527.56 -657.82)"/><path class="cls-58" d="M1127.21,2036.47a174.44,174.44,0,0,1,47.45,42.06c46.85,60.64,28.58,125.25,67.34,148.1,11.08,6.54,30.53,11.85,65.65-.58l13.47,7.16s16.44,83.64-85.12,86.76-152.15-123.12-152.15-123.12Z" transform="translate(-527.56 -657.82)"/><path class="cls-59" d="M1029.33,1918.27c-3.44-.21-6.37-4.5-8.69-3.16s-2,7.74.21,12.15a16,16,0,0,0,6.37,6.54,42,42,0,0,0-7.07,17c-2.76,16.57,6.3,29.65,10.11,37.34,17.2,34.66-7.2,90.55-34.67,119.11-22.33,23.21-33.17,14.3-46.4,33.15-25.74,36.68,11.71,75.6-1,124.5-19.27,74.36-135.51,98.86-140.33,99.81-1.9.38-3.17.62-5.15,1-52.18,9.44-131.27,23.75-188.07-18-42.51-31.25-62.88-86.8-60.77-136.16.55-13,3.42-62.28,42.66-103.31,6.23-6.51,43.11-45,94-46.53,27-.83,32.61,8.56,53.12,2.24,28.07-8.65,44.91-34.7,55.37-50.86,19.22-29.73,11-35.81,25-50.53,27.38-28.83,60.69-7.36,90-32.92,28.94-25.19,10.45-58.13,38.44-80,28.87-22.55,85.16-16.1,97.68,9.75C1061,1881.55,1039.87,1918.91,1029.33,1918.27Z" transform="translate(-527.56 -657.82)"/></g></g></svg>