<svg xmlns="http://www.w3.org/2000/svg" viewBox="0 0 423.9 367.08"><defs><style>.cls-1{opacity:0.06;}.cls-2{fill:#f5f5f5;}.cls-3{fill:#ebebeb;}.cls-4{fill:#00bf7f;}.cls-10,.cls-5{opacity:0.1;}.cls-11,.cls-6{fill:#fff;}.cls-13,.cls-7{fill:#fafafa;}.cls-8{fill:#e0e0e0;}.cls-9{fill:#455a64;}.cls-11{opacity:0.4;}.cls-12{opacity:0.2;}.cls-13{stroke:#e0e0e0;stroke-miterlimit:10;stroke-width:1.17px;}.cls-14{fill:#37474f;}</style></defs><title>signup</title><g id="Floor" class="cls-1"><path id="Floor-2" data-name="Floor" class="cls-2" d="M99.83,403.51c81.05,41.43,212.46,41.43,293.5,0s81.05-108.63,0-150.06-212.45-41.44-293.5,0S18.78,362.07,99.83,403.51Z" transform="translate(-39.05 -67.5)"/></g><g id="Shadows"><path id="Shadow" class="cls-3" d="M364.9,337.31c4.44,2.56,13.17,1.68,19.49-2l36.47-21.18c6.33-3.66,7.85-8.7,3.4-11.27s-13.19-1.69-19.51,2L368.31,326C362,329.7,360.46,334.74,364.9,337.31Z" transform="translate(-39.05 -67.5)"/><polygon id="Shadow-2" data-name="Shadow" class="cls-3" points="106.31 289.34 69.22 267.92 106.31 246.51 106.31 289.34"/><polygon id="Shadow-3" data-name="Shadow" class="cls-3" points="211.15 302.15 151.37 267.61 211.16 233.14 211.15 302.15"/></g><g id="Plants"><g id="Plants-2" data-name="Plants"><path class="cls-4" d="M95.18,306.77c.11-8.68-6-26.73-14.82-38.1s-22.92-19.78-33-16.46c-9.4,3.09-8.54,15.39,2.73,23.67s28.22,18.71,33.05,32.84l10.27,17.39Z" transform="translate(-39.05 -67.5)"/><path class="cls-5" d="M95.18,306.77c.11-8.68-6-26.73-14.82-38.1s-22.92-19.78-33-16.46c-9.4,3.09-8.54,15.39,2.73,23.67s28.22,18.71,33.05,32.84l10.27,17.39Z" transform="translate(-39.05 -67.5)"/><path class="cls-6" d="M95.68,318.65a.66.66,0,0,1-.57-.52C89.66,288.44,66,264.08,51.72,258.59a.63.63,0,1,1,.45-1.18C66.72,263,90.83,287.76,96.36,317.9a.64.64,0,0,1-.51.74Z" transform="translate(-39.05 -67.5)"/><path class="cls-4" d="M91,337.55c-1.33-4.89-7.19-13-16.74-19.78-10.57-7.48-24-11-27.06-16.78-3.65-6.93,2.22-13.35,13.15-11.86s30,16.66,32.81,39.18Z" transform="translate(-39.05 -67.5)"/><path class="cls-6" d="M93.21,332.46a.63.63,0,0,1-.54-.43c-8.77-25.48-28-34.62-37-35.89a.63.63,0,0,1-.53-.72.61.61,0,0,1,.71-.53c9.9,1.4,29,10.72,38,36.73a.64.64,0,0,1-.39.81A.63.63,0,0,1,93.21,332.46Z" transform="translate(-39.05 -67.5)"/></g><g id="Plants-3" data-name="Plants"><path class="cls-4" d="M419,282.07s1.22-18.29,12-31.87,10.11-19.17,2.68-21.91-24.7,13.62-20.85,35.54S419,282.07,419,282.07Z" transform="translate(-39.05 -67.5)"/><path class="cls-5" d="M419,282.07s1.22-18.29,12-31.87,10.11-19.17,2.68-21.91-24.7,13.62-20.85,35.54S419,282.07,419,282.07Z" transform="translate(-39.05 -67.5)"/><path class="cls-6" d="M415.66,271.62a.43.43,0,0,1-.43-.39c-1.26-20.15,13-36.67,18.29-40.42a.44.44,0,0,1,.6.11.43.43,0,0,1-.11.59c-5.22,3.67-19.17,19.88-17.93,39.66a.41.41,0,0,1-.4.45Z" transform="translate(-39.05 -67.5)"/><path class="cls-4" d="M416,297.18a96.65,96.65,0,0,0,14.84,3.57c8.35,1.32,12-2.67,12-2.67s-3.28-7.83-8-10A46.53,46.53,0,0,1,449.35,294s5.1.07,7.13-7.71c0,0-3-4.68-13.15-7.21,0,0,6.16-1.55,15,.72.67.26,3.51-9.8,4.37-14.44s-1-4.59-4.62-5.55-15.6-3.66-17.87-1.67-3.41,8.79-3.41,8.79a15.94,15.94,0,0,1-.34-8.62s-3.26-1.27-8.31.2c-4.13,1.2-4.33,4-4.15,7.19a31.36,31.36,0,0,0,1.79,8.07s-3.22-4.13-3.32-13.08c0,0-8.46,4.2-9.9,12.59C411.83,277.82,410.72,291.15,416,297.18Z" transform="translate(-39.05 -67.5)"/><path class="cls-6" d="M417.61,295.54a.46.46,0,0,0,.43-.26c6.73-14,31.78-30.26,40.75-32a.47.47,0,0,0,.37-.55.47.47,0,0,0-.55-.37c-9.12,1.77-34.58,18.29-41.42,32.51a.48.48,0,0,0,.22.63A.51.51,0,0,0,417.61,295.54Z" transform="translate(-39.05 -67.5)"/></g></g><g id="Computer_Screen" data-name="Computer Screen"><path class="cls-7" d="M91.91,344c-1,0-1.6-.84-1.6-2.24V188.16l188-108.54V232.51a8.09,8.09,0,0,1-3.66,6.34L93.39,343.51a3.11,3.11,0,0,1-1.48.46Z" transform="translate(-39.05 -67.5)"/><path class="cls-8" d="M277.72,80.63V232.51a7.61,7.61,0,0,1-3.37,5.84L93.09,343a2.45,2.45,0,0,1-1.18.38c-.88,0-1-1-1-1.65V188.5L277.72,80.63m1.17-2L89.72,187.82V341.73c0,1.79.9,2.82,2.19,2.82a3.58,3.58,0,0,0,1.77-.54L274.94,239.36a8.73,8.73,0,0,0,4-6.85V78.61Z" transform="translate(-39.05 -67.5)"/><polygon class="cls-4" points="50.68 120.32 50.68 146.02 239.85 36.81 239.85 11.11 50.68 120.32"/><path class="cls-7" d="M104.56,189.2v3.68c0,.75.54,1.06,1.19.69L163.91,160v-6.43l-58.16,33.58A2.62,2.62,0,0,0,104.56,189.2Z" transform="translate(-39.05 -67.5)"/><path class="cls-9" d="M170.14,150c.66-.37,1.19-.07,1.19.69v3.68a2.62,2.62,0,0,1-1.19,2.06l-6.23,3.6v-6.43Z" transform="translate(-39.05 -67.5)"/><path class="cls-9" d="M89.72,179.54a8.73,8.73,0,0,1,4-6.85L274.94,68c2.18-1.26,3.95-.24,3.95,2.28v8.29L89.72,187.82Z" transform="translate(-39.05 -67.5)"/><path class="cls-4" d="M257.87,82.2A4.1,4.1,0,0,0,256,85.41c0,1.18.83,1.66,1.85,1.07a4.11,4.11,0,0,0,1.86-3.21C259.73,82.08,258.89,81.6,257.87,82.2Z" transform="translate(-39.05 -67.5)"/><path class="cls-4" d="M263.75,78.8A4.09,4.09,0,0,0,261.89,82c0,1.18.83,1.66,1.86,1.07a4.1,4.1,0,0,0,1.85-3.21C265.6,78.69,264.77,78.21,263.75,78.8Z" transform="translate(-39.05 -67.5)"/><path class="cls-4" d="M269.62,75.4a4.1,4.1,0,0,0-1.85,3.21c0,1.19.83,1.67,1.85,1.08a4.11,4.11,0,0,0,1.86-3.22C271.48,75.29,270.65,74.81,269.62,75.4Z" transform="translate(-39.05 -67.5)"/><g class="cls-10"><path d="M219.55,121a9,9,0,0,0-4.06,7c0,2.59,1.82,3.64,4.06,2.34a8.94,8.94,0,0,0,4-7C223.6,120.8,221.79,119.75,219.55,121Z" transform="translate(-39.05 -67.5)"/><path d="M201,131.75a8.94,8.94,0,0,0-4.05,7c0,2.59,1.81,3.63,4.05,2.34a8.94,8.94,0,0,0,4.05-7C205.05,131.5,203.24,130.46,201,131.75Z" transform="translate(-39.05 -67.5)"/><path d="M238.09,110.33a9,9,0,0,0-4.05,7c0,2.59,1.81,3.64,4.05,2.35a9,9,0,0,0,4.06-7C242.15,110.09,240.33,109,238.09,110.33Z" transform="translate(-39.05 -67.5)"/><path d="M256.64,99.6a9,9,0,0,0-4.06,7c0,2.58,1.82,3.63,4.06,2.34a9,9,0,0,0,4.05-7C260.69,99.36,258.88,98.31,256.64,99.6Z" transform="translate(-39.05 -67.5)"/></g><path class="cls-8" d="M108.51,215.52l44-25.41c2.18-1.26,4-.24,4,2.28v42.27a8.75,8.75,0,0,1-4,6.85l-44,25.41c-2.19,1.26-4,.24-4-2.28V222.37A8.76,8.76,0,0,1,108.51,215.52Z" transform="translate(-39.05 -67.5)"/><path class="cls-8" d="M171.58,179.12l92.23-53.26c2.19-1.26,4-.24,4,2.29v42.26a8.73,8.73,0,0,1-4,6.85l-92.23,53.26c-2.19,1.26-4,.23-4-2.29V186A8.73,8.73,0,0,1,171.58,179.12Z" transform="translate(-39.05 -67.5)"/><path class="cls-8" d="M108.52,279.77l70-40.41c2.18-1.26,3.95-.36,3.95,2a8.43,8.43,0,0,1-3.95,6.57l-70,40.41c-2.19,1.26-4,.36-4-2A8.47,8.47,0,0,1,108.52,279.77Z" transform="translate(-39.05 -67.5)"/><path class="cls-8" d="M108.52,294.76l70-40.41c2.18-1.26,3.95-.36,3.95,2a8.43,8.43,0,0,1-3.95,6.57l-70,40.4c-2.19,1.27-4,.37-4-2A8.47,8.47,0,0,1,108.52,294.76Z" transform="translate(-39.05 -67.5)"/><path class="cls-8" d="M108.52,309.75l70-40.41c2.18-1.26,3.95-.36,3.95,2a8.43,8.43,0,0,1-3.95,6.57l-70,40.4c-2.19,1.26-4,.37-4-2A8.47,8.47,0,0,1,108.52,309.75Z" transform="translate(-39.05 -67.5)"/></g><g id="Envelope"><g id="Letter"><path class="cls-4" d="M141.65,258.92a5.26,5.26,0,0,1,2.38-4.11l121.36-70.07a5.3,5.3,0,0,1,4.75,0l2.67,1.55a5.22,5.22,0,0,1,2.37,4.11v93a5.24,5.24,0,0,1-2.37,4.1L151.44,357.61a5.27,5.27,0,0,1-4.74,0L144,356.06a5.25,5.25,0,0,1-2.38-4.11Z" transform="translate(-39.05 -67.5)"/><path class="cls-11" d="M142.35,256.59l6.73,3.88,125.41-72.41a5,5,0,0,0-1.68-1.78l-2.68-1.53a5.13,5.13,0,0,0-4.73,0L144,254.81A4.81,4.81,0,0,0,142.35,256.59Z" transform="translate(-39.05 -67.5)"/><path class="cls-5" d="M141.65,258.92v93a5.25,5.25,0,0,0,2.38,4.11l2.67,1.55a4.27,4.27,0,0,0,.65.29,4.85,4.85,0,0,0,1,.22,5.59,5.59,0,0,0,1.87-.07,3.09,3.09,0,0,0,.46-.12l.28-.11a1.41,1.41,0,0,1-1.13,0,1.65,1.65,0,0,1-.73-1.56v-93a2.07,2.07,0,0,1,1.23-2l-1.23-.72-6.73-3.88A4.83,4.83,0,0,0,141.65,258.92Z" transform="translate(-39.05 -67.5)"/><path class="cls-12" d="M149.08,260.47l56.2,21a9.15,9.15,0,0,0,10.85-3.57l9-13.83,49.79-76.27-48,76.79,48.23,18.88a4.9,4.9,0,0,1-.74,2.36l-47.62-21-10.49,16.78a9.14,9.14,0,0,1-11.44,3.51l-7.47-3.29-47.61,76a1.65,1.65,0,0,1-.73-1.56v-1.55l48.11-73Z" transform="translate(-39.05 -67.5)"/></g></g><g id="Mobile_Screen" data-name="Mobile Screen"><path class="cls-13" d="M249.22,153.67V367.25c0,2.53,1.77,3.55,4,2.29l95.95-55.4a8.75,8.75,0,0,0,3.95-6.85V93.71c0-2.53-1.77-3.55-3.95-2.29l-95.95,55.4A8.73,8.73,0,0,0,249.22,153.67Z" transform="translate(-39.05 -67.5)"/><path class="cls-9" d="M254.78,157.65a2.18,2.18,0,0,1,1-1.67l10.93-6.31c.57-.32,1-.11,1,.48a2.18,2.18,0,0,1-1,1.67l-10.93,6.3C255.24,158.45,254.78,158.24,254.78,157.65Z" transform="translate(-39.05 -67.5)"/><path class="cls-9" d="M254.78,161.9a2.15,2.15,0,0,1,1-1.66l10.93-6.31c.57-.33,1-.12,1,.48a2.16,2.16,0,0,1-1,1.66l-10.93,6.31C255.24,162.71,254.78,162.49,254.78,161.9Z" transform="translate(-39.05 -67.5)"/><path class="cls-9" d="M254.78,166.15a2.16,2.16,0,0,1,1-1.66l10.93-6.31c.57-.33,1-.11,1,.48a2.15,2.15,0,0,1-1,1.66l-10.93,6.31C255.24,167,254.78,166.75,254.78,166.15Z" transform="translate(-39.05 -67.5)"/><path class="cls-14" d="M345.66,111.38v-1.7c0-.1-.07-.15-.17-.11l-1.31.59a.15.15,0,0,1-.22-.1,3.54,3.54,0,0,0-.29-.65.33.33,0,0,1,0-.32l.87-1.77a.19.19,0,0,0-.08-.25l-.95-.55a.19.19,0,0,0-.26.06l-1.09,1.64a.33.33,0,0,1-.29.14,3,3,0,0,0-.71.08.15.15,0,0,1-.19-.14l-.15-1.44a.11.11,0,0,0-.18-.09l-1.47.85a.41.41,0,0,0-.18.28l-.15,1.64a.6.6,0,0,1-.15.31,8.5,8.5,0,0,0-.82.87.29.29,0,0,1-.29.08l-.95-.33a.24.24,0,0,0-.27.1l-1.08,1.88a.24.24,0,0,0,0,.28l.77.65a.32.32,0,0,1,.07.3,8.21,8.21,0,0,0-.34,1.14.57.57,0,0,1-.19.29l-1.35,1a.41.41,0,0,0-.15.29v1.7c0,.11.07.15.17.11l1.31-.59a.16.16,0,0,1,.22.1,3.54,3.54,0,0,0,.29.65.33.33,0,0,1,0,.32l-.87,1.77a.2.2,0,0,0,.07.26l1,.55a.2.2,0,0,0,.26-.07l1.09-1.64a.39.39,0,0,1,.29-.14,3,3,0,0,0,.71-.07.15.15,0,0,1,.19.14l.15,1.43a.11.11,0,0,0,.18.09l1.47-.85a.39.39,0,0,0,.18-.28l.15-1.64a.6.6,0,0,1,.15-.31,8.38,8.38,0,0,0,.82-.86.3.3,0,0,1,.29-.09l1,.33a.23.23,0,0,0,.27-.09l1.08-1.89a.23.23,0,0,0-.05-.28l-.76-.65a.29.29,0,0,1-.07-.29,8.34,8.34,0,0,0,.34-1.15.51.51,0,0,1,.19-.28l1.35-.95A.42.42,0,0,0,345.66,111.38Zm-5.78,5.37c-1.37.79-2.49.15-2.49-1.44a5.52,5.52,0,0,1,2.49-4.32c1.38-.8,2.5-.16,2.5,1.44A5.52,5.52,0,0,1,339.88,116.75Z" transform="translate(-39.05 -67.5)"/><path class="cls-9" d="M301.15,153.48c11.21-6.47,20.3-1.23,20.3,11.72s-9.09,28.69-20.3,35.16-20.3,1.23-20.3-11.72S289.94,160,301.15,153.48Z" transform="translate(-39.05 -67.5)"/><path class="cls-4" d="M301,163.67c3.64-2.1,6.58-.4,6.58,3.8A14.55,14.55,0,0,1,301,178.88c-3.64,2.1-6.59.4-6.59-3.8A14.56,14.56,0,0,1,301,163.67Z" transform="translate(-39.05 -67.5)"/><path class="cls-4" d="M314,186.06c0-6.9-4.85-9.69-10.82-6.24L299.43,182c-6,3.45-10.82,11.84-10.82,18.74v1.89a11.29,11.29,0,0,0,3.49.53,18.26,18.26,0,0,0,9-2.77A40,40,0,0,0,314,187.66Z" transform="translate(-39.05 -67.5)"/><path class="cls-4" d="M282.83,219.62l36.64-21.15c1.1-.63,2-.19,2,1a4.22,4.22,0,0,1-2,3.28l-36.64,21.16c-1.09.63-2,.18-2-1A4.25,4.25,0,0,1,282.83,219.62Z" transform="translate(-39.05 -67.5)"/><path class="cls-9" d="M278.9,234.76,323.41,209c1.09-.63,2-.18,2,1a4.23,4.23,0,0,1-2,3.28L278.9,239c-1.1.63-2,.18-2-1A4.22,4.22,0,0,1,278.9,234.76Z" transform="translate(-39.05 -67.5)"/><path class="cls-14" d="M324.59,229.77l12.47-7.2c.65-.38,1.18-.2,1.18.39a2.36,2.36,0,0,1-1.18,1.75l-12.47,7.2c-.65.38-1.18.21-1.18-.39A2.38,2.38,0,0,1,324.59,229.77Z" transform="translate(-39.05 -67.5)"/><path class="cls-4" d="M262.33,261.44l18.3-10.57c1.09-.63,2-.12,2,1.15v12.56a4.38,4.38,0,0,1-2,3.43l-18.3,10.56c-1.1.63-2,.12-2-1.14V264.86A4.34,4.34,0,0,1,262.33,261.44Z" transform="translate(-39.05 -67.5)"/><path class="cls-7" d="M265.25,263.2l12.46-7.2c.65-.38,1.19-.21,1.19.39a2.39,2.39,0,0,1-1.19,1.75l-12.46,7.2c-.66.38-1.19.2-1.19-.39A2.36,2.36,0,0,1,265.25,263.2Z" transform="translate(-39.05 -67.5)"/><path class="cls-7" d="M264.06,269.53v3.69c0,.76.53,1.06,1.19.68l12.46-7.19a2.65,2.65,0,0,0,1.19-2.06V261c0-.76-.54-1.06-1.19-.69l-12.46,7.2A2.62,2.62,0,0,0,264.06,269.53Z" transform="translate(-39.05 -67.5)"/><path class="cls-4" d="M292,244.31l18.3-10.57c1.09-.63,2-.12,2,1.14v12.57a4.37,4.37,0,0,1-2,3.42L292,261.44c-1.09.63-2,.12-2-1.14V247.73A4.37,4.37,0,0,1,292,244.31Z" transform="translate(-39.05 -67.5)"/><path class="cls-7" d="M294.92,246.07l12.46-7.2c.66-.38,1.19-.21,1.19.38a2.36,2.36,0,0,1-1.19,1.76l-12.46,7.2c-.66.38-1.19.2-1.19-.39A2.35,2.35,0,0,1,294.92,246.07Z" transform="translate(-39.05 -67.5)"/><path class="cls-7" d="M293.73,252.4v3.69c0,.75.53,1.06,1.19.68l12.46-7.19a2.62,2.62,0,0,0,1.19-2.06v-3.68c0-.76-.53-1.07-1.19-.69l-12.46,7.2A2.62,2.62,0,0,0,293.73,252.4Z" transform="translate(-39.05 -67.5)"/><path class="cls-4" d="M321.67,227.18,340,216.61c1.09-.63,2-.12,2,1.14v12.57a4.36,4.36,0,0,1-2,3.42l-18.31,10.57c-1.09.63-2,.12-2-1.14V230.6A4.36,4.36,0,0,1,321.67,227.18Z" transform="translate(-39.05 -67.5)"/><path class="cls-7" d="M324.59,228.93l12.47-7.19c.65-.38,1.18-.21,1.18.38a2.39,2.39,0,0,1-1.18,1.76l-12.47,7.19c-.65.38-1.18.21-1.18-.38A2.39,2.39,0,0,1,324.59,228.93Z" transform="translate(-39.05 -67.5)"/><path class="cls-7" d="M323.41,235.27V239c0,.75.53,1.06,1.18.68l12.47-7.2a2.6,2.6,0,0,0,1.18-2.05V226.7c0-.75-.53-1.06-1.18-.68l-12.47,7.2A2.6,2.6,0,0,0,323.41,235.27Z" transform="translate(-39.05 -67.5)"/><path class="cls-8" d="M264.3,290.28,338,247.73c2.18-1.26,3.95-.36,3.95,2A8.48,8.48,0,0,1,338,256.3l-73.7,42.55c-2.18,1.26-3.95.36-3.95-2A8.48,8.48,0,0,1,264.3,290.28Z" transform="translate(-39.05 -67.5)"/><path class="cls-8" d="M264.3,307.41,338,264.86c2.18-1.26,3.95-.36,3.95,2a8.48,8.48,0,0,1-3.95,6.57L264.3,316c-2.18,1.26-3.95.36-3.95-2A8.48,8.48,0,0,1,264.3,307.41Z" transform="translate(-39.05 -67.5)"/><path class="cls-4" d="M288.29,315,314,300.13c1.09-.63,2-.12,2,1.14v8.28a4.39,4.39,0,0,1-2,3.43l-25.72,14.85c-1.09.63-2,.12-2-1.14V318.4A4.37,4.37,0,0,1,288.29,315Z" transform="translate(-39.05 -67.5)"/><path class="cls-7" d="M265.91,291.54a4.1,4.1,0,0,0-1.85,3.21c0,1.18.83,1.66,1.85,1.07a4.09,4.09,0,0,0,1.86-3.21C267.77,291.43,266.94,291,265.91,291.54Z" transform="translate(-39.05 -67.5)"/><path class="cls-7" d="M271.79,288.14a4.09,4.09,0,0,0-1.86,3.21c0,1.19.83,1.67,1.86,1.08a4.12,4.12,0,0,0,1.85-3.22C273.64,288,272.81,287.55,271.79,288.14Z" transform="translate(-39.05 -67.5)"/><path class="cls-7" d="M277.66,284.74a4.12,4.12,0,0,0-1.85,3.22c0,1.18.83,1.66,1.85,1.07a4.09,4.09,0,0,0,1.86-3.21C279.52,284.63,278.69,284.15,277.66,284.74Z" transform="translate(-39.05 -67.5)"/><path class="cls-7" d="M283.54,281.35a4.11,4.11,0,0,0-1.86,3.21c0,1.18.84,1.66,1.86,1.07a4.1,4.1,0,0,0,1.85-3.21C285.39,281.24,284.56,280.76,283.54,281.35Z" transform="translate(-39.05 -67.5)"/><path class="cls-7" d="M289.42,278a4.09,4.09,0,0,0-1.86,3.21c0,1.19.83,1.67,1.86,1.07a4.1,4.1,0,0,0,1.85-3.21C291.27,277.84,290.44,277.36,289.42,278Z" transform="translate(-39.05 -67.5)"/><path class="cls-7" d="M295.29,274.55a4.11,4.11,0,0,0-1.85,3.22c0,1.18.83,1.66,1.85,1.07a4.11,4.11,0,0,0,1.85-3.22C297.14,274.44,296.31,274,295.29,274.55Z" transform="translate(-39.05 -67.5)"/><path class="cls-7" d="M301.17,271.16a4.09,4.09,0,0,0-1.86,3.21c0,1.18.83,1.66,1.86,1.07a4.1,4.1,0,0,0,1.85-3.21C303,271,302.19,270.57,301.17,271.16Z" transform="translate(-39.05 -67.5)"/><path class="cls-7" d="M265.91,308.69a4.1,4.1,0,0,0-1.85,3.21c0,1.18.83,1.66,1.85,1.07a4.09,4.09,0,0,0,1.86-3.21C267.77,308.58,266.94,308.1,265.91,308.69Z" transform="translate(-39.05 -67.5)"/><path class="cls-7" d="M271.79,305.29a4.09,4.09,0,0,0-1.86,3.22c0,1.18.83,1.66,1.86,1.07a4.12,4.12,0,0,0,1.85-3.22C273.64,305.18,272.81,304.7,271.79,305.29Z" transform="translate(-39.05 -67.5)"/><path class="cls-7" d="M277.66,301.9a4.1,4.1,0,0,0-1.85,3.21c0,1.18.83,1.66,1.85,1.07a4.09,4.09,0,0,0,1.86-3.21C279.52,301.78,278.69,301.3,277.66,301.9Z" transform="translate(-39.05 -67.5)"/><path class="cls-7" d="M283.54,298.5a4.11,4.11,0,0,0-1.86,3.21c0,1.18.84,1.66,1.86,1.07a4.1,4.1,0,0,0,1.85-3.21C285.39,298.39,284.56,297.91,283.54,298.5Z" transform="translate(-39.05 -67.5)"/><path class="cls-7" d="M289.42,295.1a4.09,4.09,0,0,0-1.86,3.21c0,1.19.83,1.67,1.86,1.08a4.12,4.12,0,0,0,1.85-3.22C291.27,295,290.44,294.51,289.42,295.1Z" transform="translate(-39.05 -67.5)"/><path class="cls-7" d="M295.29,291.7a4.12,4.12,0,0,0-1.85,3.22c0,1.18.83,1.66,1.85,1.07a4.1,4.1,0,0,0,1.85-3.21C297.14,291.59,296.31,291.11,295.29,291.7Z" transform="translate(-39.05 -67.5)"/><path class="cls-7" d="M301.17,288.31a4.09,4.09,0,0,0-1.86,3.21c0,1.18.83,1.66,1.86,1.07a4.1,4.1,0,0,0,1.85-3.21C303,288.2,302.19,287.72,301.17,288.31Z" transform="translate(-39.05 -67.5)"/></g><g id="Key"><path class="cls-9" d="M383.58,326.91a17.86,17.86,0,0,1-9-2.37c-6.58-3.8-10.35-11.76-10.35-21.82,0-17.7,11.25-38.06,25.61-46.35,7.73-4.46,15.41-5,21.62-1.36,6.58,3.8,10.36,11.75,10.36,21.81,0,17.7-11.25,38.06-25.61,46.35A25.42,25.42,0,0,1,383.58,326.91Zm18.86-61.53a13.55,13.55,0,0,0-6.23,2c-10.43,6-19.24,22.2-19.24,35.32,0,5.31,1.49,9.34,4,10.78,2.84,1.64,6.79-.15,8.89-1.36,10.43-6,19.24-22.19,19.24-35.32,0-5.31-1.49-9.34-4-10.78A5.22,5.22,0,0,0,402.44,265.38Z" transform="translate(-39.05 -67.5)"/><path class="cls-14" d="M411.36,279.66c0-9.94-6.27-13.62-6.27-13.62h0c2.5,1.44,4,5.47,4,10.78,0,13.13-8.81,29.3-19.24,35.32-2.1,1.21-6,3-8.89,1.36,0,0,5.29,3.28,12.59-.7C404.11,307,411.36,292.78,411.36,279.66Z" transform="translate(-39.05 -67.5)"/><path class="cls-14" d="M401.31,155.39a6.59,6.59,0,0,0-13.17,0v0h0V260.15h0a3.26,3.26,0,0,0,1.93,2.69,10.25,10.25,0,0,0,9.31,0,3.26,3.26,0,0,0,1.93-2.69h0V155.41h0Z" transform="translate(-39.05 -67.5)"/><path class="cls-9" d="M396.05,178.8a8.4,8.4,0,0,0-3.8-6.59,2.65,2.65,0,0,0-2.73-.24h0l-16.25,9.37-.39.23a.62.62,0,0,0-.16.1,4.39,4.39,0,0,0-.78.63,5.38,5.38,0,0,0,6.35,8.56l.31-.18L395,181.25h0A2.68,2.68,0,0,0,396.05,178.8Z" transform="translate(-39.05 -67.5)"/><path class="cls-9" d="M396.05,205a8.4,8.4,0,0,0-3.8-6.59,2.65,2.65,0,0,0-2.73-.24h0l-19,10.93-.39.24a.83.83,0,0,0-.16.09,5.31,5.31,0,0,0-.78.64,5.4,5.4,0,0,0,1.21,8.56,5.48,5.48,0,0,0,5.14,0l.31-.18,19.15-11h0A2.68,2.68,0,0,0,396.05,205Z" transform="translate(-39.05 -67.5)"/></g></svg>