<?xml version="1.0" encoding="utf-8"?>
<!-- Generator: Adobe Illustrator 24.0.1, SVG Export Plug-In . SVG Version: 6.00 Build 0)  -->
<svg version="1.1" id="Layer_1" xmlns="http://www.w3.org/2000/svg" xmlns:xlink="http://www.w3.org/1999/xlink" x="0px" y="0px"
	 viewBox="0 0 612 612" style="enable-background:new 0 0 612 612;" xml:space="preserve">
<style type="text/css">
	.st0{fill:#FB8500;}
	.st1{enable-background:new    ;}
	.st2{fill:#FFFFFF;}
</style>
<title>lalogo</title>
<path class="st0" d="M612,510c0,56.1-45.9,102-102,102H102C45.9,612,0,566.1,0,510V102C0,45.9,45.9,0,102,0h408
	c56.1,0,102,45.9,102,102V510z"/>
<g class="st1">
	<path class="st2" d="M293,443.2c0,15.5-12.7,27.6-27.6,27.6H75c-0.6,0-0.6,0-1.1,0h-0.6c-15.5,0-27.6-12.1-27.6-27.6V113.1
		c0-15.5,12.1-27.6,27.6-27.6c14.9,0,27.6,12.1,27.6,27.6v302.5h164.5C280.3,415.6,293,427.7,293,443.2z"/>
</g>
<g class="st1">
	<path class="st2" d="M567.9,334.4v108.2c0,16-11.6,27.6-27.6,27.6c-11,0-26.5-11.6-26.5-27.6c-23.7,19.9-50.2,27.6-81.7,27.6
		c-77.8,0-139.6-58-139.6-135.8c0-77.8,61.8-139.6,139.6-139.6C509.9,194.8,567.9,256.6,567.9,334.4z M513.8,334.4
		c0-46.4-35.3-85.6-81.7-85.6c-46.4,0-85.6,39.2-85.6,85.6c0,46.4,39.2,81.7,85.6,81.7C478.5,416.1,513.8,380.8,513.8,334.4z"/>
</g>
</svg>
